<?xml version="1.0" standalone="no"?>
<!DOCTYPE svg PUBLIC "-//W3C//DTD SVG 1.1//EN" "http://www.w3.org/Graphics/SVG/1.1/DTD/svg11.dtd" >
<svg xmlns="http://www.w3.org/2000/svg" xmlns:xlink="http://www.w3.org/1999/xlink" version="1.1">
<metadata>
Created by FontForge 20170731 at Wed Sep  7 04:24:40 2022
 By Aleksey,,,
Copyright (c) 2016 by Radomir Tinkov. All rights reserved.
</metadata>
<defs>
<font id="SVN-Gilroy" horiz-adv-x="1302" >
  <font-face 
    font-family="SVN-Gilroy"
    font-weight="400"
    font-stretch="normal"
    units-per-em="2048"
    panose-1="0 0 5 0 0 0 0 0 0 0"
    ascent="1638"
    descent="-410"
    x-height="1024"
    cap-height="1434"
    bbox="-649 -492 2066 2177"
    underline-thickness="102"
    underline-position="-307"
    unicode-range="U+0020-FB02"
  />
<missing-glyph horiz-adv-x="1024" 
d="M190 1638h650v-2048h-650v2048zM682 1434v67h-338v-67h133v-76h-135v-68h340v68h-135v76h135zM547 1094v143h-205v-213h340v70h-135zM410 1167h67v-73h-67v73zM682 901v68h-340v-68h135v-76h-135v-67h205v143h135zM682 641v205h-68v-135h-272v-70h340zM682 365v231h-205
v-115h70v47h67v-96h-204v164h-68v-231h340zM682 10v232h-340v-232h340zM410 174h204v-96h-204v96zM682 -104v67h-340v-67h143l-143 -97v-67h340v67h-209l143 97h66z" />
    <glyph glyph-name="fi" unicode="fi" horiz-adv-x="1056" 
d="M360 1024h553v-1024h-135v893h-418v-893h-135v893h-174v131h174v41q0 393 430 393q86 0 197 -24v-123q-101 16 -197 16q-156 0 -225.5 -60.5t-69.5 -201.5v-41z" />
    <glyph glyph-name="fl" unicode="fl" horiz-adv-x="1056" 
d="M655 1458q120 0 258 -24v-1434h-135v1329q-64 6 -123 6q-154 0 -224.5 -63t-70.5 -207v-41h234v-131h-234v-893h-135v893h-174v131h174v41q0 393 430 393z" />
    <glyph glyph-name="f_f" unicode="ff" horiz-adv-x="1208" 
d="M1208 1479v-131q-150 12 -222.5 -52t-72.5 -211v-61h295v-131h-295v-893h-135v893h-418v-893h-135v893h-174v131h174v41q0 201 111.5 303.5t318.5 89.5v-131q-150 12 -222.5 -51.5t-72.5 -210.5v-41h418v61q0 202 112 304.5t318 89.5z" />
    <glyph glyph-name="f_f_i" unicode="ffi" horiz-adv-x="1609" 
d="M913 1024h553v-1024h-135v893h-418v-893h-135v893h-418v-893h-135v893h-174v131h174v41q0 201 111.5 303.5t318.5 89.5v-131q-150 12 -222.5 -51.5t-72.5 -210.5v-41h418v61q0 394 430 394q81 0 197 -25v-123q-107 17 -197 17q-155 0 -225 -61t-70 -202v-61z" />
    <glyph glyph-name="f_f_l" unicode="ffl" horiz-adv-x="1609" 
d="M1208 1479q114 0 258 -25v-1454h-135v1350q-65 6 -123 6q-154 0 -224.5 -63t-70.5 -208v-61h234v-131h-234v-893h-135v893h-418v-893h-135v893h-174v131h174v41q0 201 111.5 303.5t318.5 89.5v-131q-150 12 -222.5 -51.5t-72.5 -210.5v-41h418v61q0 394 430 394z" />
    <glyph glyph-name=".notdef" horiz-adv-x="1024" 
d="M190 1638h650v-2048h-650v2048zM682 1434v67h-338v-67h133v-76h-135v-68h340v68h-135v76h135zM547 1094v143h-205v-213h340v70h-135zM410 1167h67v-73h-67v73zM682 901v68h-340v-68h135v-76h-135v-67h205v143h135zM682 641v205h-68v-135h-272v-70h340zM682 365v231h-205
v-115h70v47h67v-96h-204v164h-68v-231h340zM682 10v232h-340v-232h340zM410 174h204v-96h-204v96zM682 -104v67h-340v-67h143l-143 -97v-67h340v67h-209l143 97h66z" />
    <glyph glyph-name=".null" horiz-adv-x="0" 
 />
    <glyph glyph-name="nonmarkingreturn" horiz-adv-x="682" 
 />
    <glyph glyph-name="space" unicode=" " horiz-adv-x="512" 
 />
    <glyph glyph-name="exclam" unicode="!" horiz-adv-x="471" 
d="M287 389h-103l-30 635v410h163v-410zM315 12q-32 -32 -79.5 -32t-79.5 32t-32 80t32 80t79.5 32t79.5 -32t32 -80t-32 -80z" />
    <glyph glyph-name="quotedbl" unicode="&#x22;" horiz-adv-x="634" 
d="M225 1024h-102l-21 410h144zM512 1024h-102l-21 410h143z" />
    <glyph glyph-name="numbersign" unicode="#" horiz-adv-x="1226" 
d="M1165 963l-20 -123h-244l-41 -246h246l-21 -123h-245l-62 -369h-131l62 369h-271l-61 -369h-131l61 369h-246l21 123h246l41 246h-248l20 123h248l62 368h131l-62 -368h271l61 368h131l-61 -368h243zM459 594h270l41 246h-270z" />
    <glyph glyph-name="dollar" unicode="$" horiz-adv-x="1126" 
d="M1044 373q0 -161 -108 -269q-106 -106 -281 -124v-185h-123v182q-165 10 -282 88t-168 209l123 72q76 -208 327 -229v565q-94 33 -149.5 60.5t-114.5 70.5q-114 84 -114 264q0 160 106 260q110 104 272 119v182h123v-184q123 -14 216.5 -82t142.5 -182l-121 -68
q-65 164 -238 191v-533q95 -32 153 -60.5t116 -74.5q120 -92 120 -272zM297 1077q0 -91 54.5 -147t180.5 -105v490q-107 -12 -171 -75.5t-64 -162.5zM655 639v-520q116 17 181 84t65 170q0 96 -58 155t-188 111z" />
    <glyph glyph-name="percent" unicode="%" horiz-adv-x="1452" 
d="M436 844q-135 0 -223 88q-90 90 -90 219q0 127 90 217t223 90t223 -90q91 -91 91 -217q0 -131 -88 -219t-226 -88zM305 1020q51 -54 131 -54t131 54t51 131t-51 131t-131 54t-131 -54t-51 -131t51 -131zM281 145l-86 50l960 1079l88 -49zM1239 63q-88 -88 -223 -88
t-223 88q-91 91 -91 220q0 126 91 217q90 90 223 90t223 -90t90 -217q0 -130 -90 -220zM885 152q51 -54 131 -54t131 54t51 131t-51 131t-131 54t-131 -54t-51 -131t51 -131z" />
    <glyph glyph-name="ampersand" unicode="&#x26;" horiz-adv-x="1345" 
d="M1102 252l192 -205l-127 -72l-151 162q-162 -162 -422 -162q-209 0 -342 109q-129 111 -129 297q0 137 70.5 245.5t205.5 170.5q-106 118 -106 270q0 177 123 285q121 106 286 106q138 0 251.5 -77t162.5 -207l-121 -70q-31 100 -109 157.5t-181 57.5q-111 0 -191 -68
q-78 -69 -78 -176q0 -69 31.5 -125.5t101.5 -130.5l432 -461q60 121 78 273l127 -74q-27 -178 -104 -305zM590 115q204 0 328 127l-422 448q-116 -42 -173 -123.5t-57 -181.5q0 -124 87.5 -197t236.5 -73z" />
    <glyph glyph-name="quotesingle" unicode="'" horiz-adv-x="348" 
d="M225 1024h-102l-21 410h144z" />
    <glyph glyph-name="parenleft" unicode="(" horiz-adv-x="544" 
d="M483 -205h-135q-226 450 -226 921.5t226 921.5h135q-226 -450 -226 -921.5t226 -921.5z" />
    <glyph glyph-name="parenright" unicode=")" horiz-adv-x="544" 
d="M197 -205h-136q226 450 226 921.5t-226 921.5h136q226 -450 226 -921.5t-226 -921.5z" />
    <glyph glyph-name="asterisk" unicode="*" horiz-adv-x="802" 
d="M494 1243l186 6v-114l-186 6l106 -154l-104 -61l-95 166l-94 -166l-104 61l106 154l-186 -6v114l186 -6l-106 154l104 61l94 -166l95 166l104 -61z" />
    <glyph glyph-name="plus" unicode="+" horiz-adv-x="1105" 
d="M618 782h365v-131h-365v-364h-131v364h-364v131h364v365h131v-365z" />
    <glyph glyph-name="comma" unicode="," horiz-adv-x="491" 
d="M205 174h164l-123 -461h-123z" />
    <glyph glyph-name="hyphen" unicode="-" horiz-adv-x="1064" 
d="M901 567h-737v131h737v-131z" />
    <glyph glyph-name="period" unicode="." horiz-adv-x="471" 
d="M315 12q-32 -32 -79.5 -32t-79.5 32t-32 80t32 80t79.5 32t79.5 -32t32 -80t-32 -80z" />
    <glyph glyph-name="slash" unicode="/" horiz-adv-x="1085" 
d="M1004 1638l-820 -1843h-102l819 1843h103z" />
    <glyph glyph-name="zero" unicode="0" horiz-adv-x="1290" 
d="M1044 176q-142 -201 -399 -201q-256 0 -401 201q-142 204 -142 541t142 538q144 203 401 203q258 0 399 -203q144 -199 144 -538t-144 -541zM350 272q109 -157 295 -157q187 0 293 157q106 153 106 445q0 291 -106 444q-106 158 -293 158q-186 0 -295 -158
q-104 -155 -104 -444q0 -290 104 -445z" />
    <glyph glyph-name="one" unicode="1" horiz-adv-x="696" 
d="M31 1303l379 131h122v-1434h-143v1276l-321 -96z" />
    <glyph glyph-name="two" unicode="2" horiz-adv-x="1075" 
d="M993 0h-911v129l516 520q221 221 221 379q0 133 -83 212t-206 79q-219 0 -321 -203l-121 72q66 131 182.5 200.5t259.5 69.5q172 0 301 -117q132 -114 132 -313q0 -119 -66 -232.5t-201 -248.5l-409 -408h706v-139z" />
    <glyph glyph-name="three" unicode="3" horiz-adv-x="1085" 
d="M942 1298l-334 -460q171 -21 283 -133q113 -107 113 -289q0 -203 -142 -324q-138 -117 -340 -117q-162 0 -286.5 75t-174.5 210l119 70q35 -105 124 -160t218 -55q151 0 244.5 80.5t93.5 220.5t-93.5 220.5t-244.5 80.5v2l-2 -2h-39l-61 94l356 487h-674v136h840v-136z
" />
    <glyph glyph-name="four" unicode="4" horiz-adv-x="1187" 
d="M952 422h185v-135h-185v-287h-143v287h-758v135l533 1012h157l-532 -1012h600v438h143v-438z" />
    <glyph glyph-name="five" unicode="5" horiz-adv-x="1105" 
d="M301 856h242q203 0 340 -119q141 -117 141 -321t-141 -324q-138 -117 -340 -117q-165 0 -291.5 81t-169.5 225l121 69q30 -114 120 -174.5t220 -60.5q151 0 244.5 80.5t93.5 220.5t-93.5 220.5t-244.5 80.5h-389l51 717h768v-136h-641z" />
    <glyph glyph-name="six" unicode="6" horiz-adv-x="1085" 
d="M543 922q209 0 346 -134q135 -132 135 -339q0 -211 -135 -343q-134 -131 -346 -131t-346 131q-136 133 -136 343q0 159 89 286l468 699h162l-352 -525q60 13 115 13zM297 207q95 -92 246 -92t243 92q95 92 95 242q0 149 -95 241q-92 92 -243 92t-246 -92
q-92 -92 -92 -241q0 -150 92 -242z" />
    <glyph glyph-name="seven" unicode="7" horiz-adv-x="1003" 
d="M41 1298v136h881v-136l-541 -1298h-150l541 1298h-731z" />
    <glyph glyph-name="eight" unicode="8" horiz-adv-x="1122" 
d="M803 739q111 -52 174 -143.5t63 -206.5q0 -195 -137 -305q-139 -109 -342 -109t-342 109q-137 110 -137 305q0 115 63 206.5t174 143.5q-190 108 -190 322q0 192 127 295q129 102 305 102q177 0 303 -102q129 -102 129 -295q0 -214 -190 -322zM272 1061q0 -119 83 -188.5
t206 -69.5t206 69.5t83 188.5q0 126 -80 192t-209 66t-209 -66t-80 -192zM317 184q90 -69 244 -69t244 69q92 71 92 205q0 132 -92 203q-93 72 -244 72t-244 -72q-92 -71 -92 -203q0 -134 92 -205z" />
    <glyph glyph-name="nine" unicode="9" horiz-adv-x="1085" 
d="M1024 985q0 -162 -88 -287l-469 -698h-162l352 524q-55 -12 -114 -12q-212 0 -346 131q-136 133 -136 342q0 207 136 340t346 133t346 -133q135 -132 135 -340zM297 1227q-92 -92 -92 -242t92 -242q95 -92 246 -92t243 92q95 92 95 242t-95 242q-92 92 -243 92t-246 -92z
" />
    <glyph glyph-name="colon" unicode=":" horiz-adv-x="471" 
d="M315 852q-32 -32 -79.5 -32t-79.5 32t-32 80t32 80t79.5 32t79.5 -32t32 -80t-32 -80zM315 12q-32 -32 -79.5 -32t-79.5 32t-32 80t32 80t79.5 32t79.5 -32t32 -80t-32 -80z" />
    <glyph glyph-name="semicolon" unicode=";" horiz-adv-x="501" 
d="M346 852q-32 -32 -80 -32t-80 32t-32 80t32 80t80 32t80 -32t32 -80t-32 -80zM205 174h164l-123 -461h-123z" />
    <glyph glyph-name="less" unicode="&#x3c;" horiz-adv-x="1064" 
d="M123 788l819 359v-152l-666 -278l666 -279v-151l-819 358v143z" />
    <glyph glyph-name="equal" unicode="=" horiz-adv-x="1105" 
d="M983 856h-860v131h860v-131zM983 446h-860v132h860v-132z" />
    <glyph glyph-name="greater" unicode="&#x3e;" horiz-adv-x="1064" 
d="M123 995v152l819 -359v-143l-819 -358v151l665 279z" />
    <glyph glyph-name="question" unicode="?" horiz-adv-x="1089" 
d="M573 389h-143q0 94 38.5 178t100.5 146q19 19 56.5 54.5t59.5 57t51.5 55.5t46 62t28.5 64t12 73q0 116 -78.5 178t-209.5 62q-253 0 -312 -207l-121 68q46 133 163 205.5t270 72.5q181 0 305 -100q127 -100 127 -279q0 -157 -140 -297q-9 -9 -42 -39.5t-45.5 -43
t-41 -42.5t-41 -47.5t-32.5 -47.5t-29 -54.5t-16 -56t-7 -62.5zM582 12q-32 -32 -80 -32t-80 32t-32 80t32 80t80 32t80 -32t32 -80t-32 -80z" />
    <glyph glyph-name="at" unicode="@" horiz-adv-x="1626" 
d="M827 1253q219 0 385 -106q163 -101 247.5 -258t84.5 -336q0 -219 -88 -326q-88 -108 -207 -108q-88 0 -148.5 45t-80.5 131q-88 -111 -227 -111q-143 0 -238 95q-94 94 -94 233t94 233q95 95 238 95q132 0 217 -99v84h127v-442q0 -197 133 -197q96 0 154.5 93t58.5 274
q0 274 -191 459q-187 184 -465 184q-285 0 -485 -197q-199 -196 -199 -487q0 -299 205 -492q204 -192 516 -192q206 0 357 59v-61q-152 -55 -357 -55q-335 0 -559 211q-223 207 -223 530q0 308 213 524q214 217 532 217zM649 362q64 -55 152 -55q89 0 147 55q62 59 62 150
t-62 147q-58 58 -147 58q-88 0 -152 -58q-61 -55 -61 -147t61 -150z" />
    <glyph glyph-name="A" unicode="A" horiz-adv-x="1290" 
d="M1270 0h-152l-133 352h-680l-133 -352h-152l551 1434h148zM645 1255l-289 -768h578z" />
    <glyph glyph-name="B" unicode="B" horiz-adv-x="1269" 
d="M958 743q105 -45 167.5 -136.5t62.5 -207.5q0 -165 -117 -282t-283 -117h-624v1434h577q158 0 273 -115q112 -112 112 -270q0 -202 -168 -306zM741 1298h-434v-499h434q99 0 170 71q72 75 72 179q0 101 -72 176q-70 73 -170 73zM307 135h481q108 0 181 76q75 75 75 188
q0 112 -75 187q-75 78 -181 78h-481v-529z" />
    <glyph glyph-name="C" unicode="C" horiz-adv-x="1525" 
d="M834 -25q-327 0 -539 215q-213 216 -213 527q0 310 213 526q212 215 539 215q197 0 363 -95t257 -257l-127 -74q-68 131 -201 209t-292 78q-271 0 -439 -174q-170 -176 -170 -428t170 -428q168 -174 439 -174q159 0 292 77.5t201 208.5l127 -71q-88 -162 -255.5 -258.5
t-364.5 -96.5z" />
    <glyph glyph-name="D" unicode="D" horiz-adv-x="1474" 
d="M164 1434h553q292 0 483 -209q193 -205 193 -508q0 -302 -193 -510q-192 -207 -483 -207h-553v1434zM307 135h410q236 0 385 168q151 171 151 414q0 242 -151 413q-149 168 -385 168h-410v-1163z" />
    <glyph glyph-name="E" unicode="E" horiz-adv-x="1085" 
d="M307 655v-520h697v-135h-840v1434h829v-136h-686v-507h635v-136h-635z" />
    <glyph glyph-name="F" unicode="F" horiz-adv-x="1054" 
d="M973 1434v-136h-666v-528h635v-135h-635v-635h-143v1434h809z" />
    <glyph glyph-name="G" unicode="G" horiz-adv-x="1615" 
d="M817 682h717v-74q0 -265 -191 -450q-192 -183 -509 -183q-327 0 -539 215q-213 216 -213 527q0 310 213 526q212 215 539 215q195 0 364 -96q166 -94 256 -256l-127 -74q-68 131 -201 209t-292 78q-271 0 -439 -174q-170 -176 -170 -428t170 -428q168 -174 439 -174
q242 0 387 121q144 123 165 311h-569v135z" />
    <glyph glyph-name="H" unicode="H" horiz-adv-x="1392" 
d="M1085 805v629h144v-1434h-144v670h-778v-670h-143v1434h143v-629h778z" />
    <glyph glyph-name="I" unicode="I" horiz-adv-x="471" 
d="M164 0v1434h143v-1434h-143z" />
    <glyph glyph-name="J" unicode="J" horiz-adv-x="1132" 
d="M518 -25q-153 0 -269.5 63.5t-166.5 182.5l121 72q67 -178 315 -178q154 0 241 73.5t87 217.5v1028h143v-1028q0 -209 -135 -320q-132 -111 -336 -111z" />
    <glyph glyph-name="K" unicode="K" horiz-adv-x="1187" 
d="M459 737l708 -737h-188l-672 694v-694h-143v1434h143v-656l651 656h189z" />
    <glyph glyph-name="L" unicode="L" horiz-adv-x="1003" 
d="M307 1434v-1299h656v-135h-799v1434h143z" />
    <glyph glyph-name="M" unicode="M" horiz-adv-x="1638" 
d="M1296 1434h179v-1434h-144v1217l-502 -840h-20l-502 840v-1217h-143v1434h178l477 -799z" />
    <glyph glyph-name="N" unicode="N" horiz-adv-x="1392" 
d="M1085 266v1168h144v-1434h-123l-799 1167v-1167h-143v1434h123z" />
    <glyph glyph-name="O" unicode="O" horiz-adv-x="1646" 
d="M1350 190q-215 -215 -527 -215q-311 0 -526 215q-215 218 -215 527t215 524q214 217 526 217q313 0 527 -217q215 -215 215 -524t-215 -527zM397 289q171 -174 426 -174t426 174q172 175 172 428q0 251 -172 426q-173 176 -426 176t-426 -176q-172 -175 -172 -426
q0 -253 172 -428z" />
    <glyph glyph-name="P" unicode="P" horiz-adv-x="1208" 
d="M164 1434h512q192 0 321 -129t129 -322q0 -192 -129 -321q-130 -130 -321 -130h-369v-532h-143v1434zM307 668h369q134 0 219 88q88 88 88 227q0 137 -88 225q-87 90 -219 90h-369v-630z" />
    <glyph glyph-name="Q" unicode="Q" horiz-adv-x="1656" 
d="M1348 193l163 -160l-96 -88l-166 164q-196 -134 -426 -134q-306 0 -524 218q-217 217 -217 524t217 524t524 217q308 0 525 -217t217 -524t-217 -524zM823 115q175 0 324 94l-311 307l96 88l317 -311q172 175 172 424q0 250 -176 426t-422 176q-248 0 -424 -176
q-174 -174 -174 -426t174 -426q176 -176 424 -176z" />
    <glyph glyph-name="R" unicode="R" horiz-adv-x="1249" 
d="M1208 0h-164l-335 573h-402v-573h-143v1434h573q176 0 303 -127t127 -303q0 -148 -88 -261q-82 -109 -221 -151zM737 1298h-430v-589h430q120 0 203 86q84 90 84 209q0 121 -84 208q-83 86 -203 86z" />
    <glyph glyph-name="S" unicode="S" horiz-adv-x="1179" 
d="M614 -25q-196 0 -336 93t-196 258l123 71q39 -135 144 -208.5t267 -73.5q158 0 248 70t90 188q0 112 -82 170q-80 57 -270 119q-230 75 -295 118q-164 99 -164 285q0 181 127 287q124 106 314 106q162 0 286.5 -84.5t186.5 -224.5l-121 -68q-99 238 -352 238
q-135 0 -216 -66t-81 -182q0 -108 73 -160t244 -108l111 -39q26 -7 98 -37q68 -25 96 -45q109 -66 138 -121q51 -81 51 -184q0 -181 -133 -293q-133 -109 -351 -109z" />
    <glyph glyph-name="T" unicode="T" horiz-adv-x="1105" 
d="M41 1434h1024v-136h-440v-1298h-144v1298h-440v136z" />
    <glyph glyph-name="U" unicode="U" horiz-adv-x="1351" 
d="M143 487v947h144v-947q0 -173 103 -272.5t286 -99.5t286 99.5t103 272.5v947h143v-947q0 -234 -147 -372q-149 -140 -385 -140t-385 140q-148 139 -148 372z" />
    <glyph glyph-name="V" unicode="V" horiz-adv-x="1245" 
d="M696 0h-147l-529 1434h156l447 -1244l446 1244h156z" />
    <glyph glyph-name="W" unicode="W" horiz-adv-x="2048" 
d="M649 0h-172l-416 1434h152l354 -1239l373 1239h168l373 -1239l354 1239h152l-416 -1434h-172l-375 1245z" />
    <glyph glyph-name="X" unicode="X" horiz-adv-x="1187" 
d="M676 739l471 -739h-164l-389 612l-389 -612h-164l471 739l-440 695h161l361 -566l360 566h162z" />
    <glyph glyph-name="Y" unicode="Y" horiz-adv-x="1218" 
d="M1036 1434h162l-518 -846v-588h-143v592l-517 842h162l428 -703z" />
    <glyph glyph-name="Z" unicode="Z" horiz-adv-x="1064" 
d="M983 1298l-741 -1163h762v-135h-922v135l741 1163h-721v136h881v-136z" />
    <glyph glyph-name="bracketleft" unicode="[" horiz-adv-x="573" 
d="M532 1638v-131h-274v-1581h274v-131h-409v1843h409z" />
    <glyph glyph-name="backslash" unicode="\" horiz-adv-x="1085" 
d="M1004 -205h-103l-819 1843h102z" />
    <glyph glyph-name="bracketright" unicode="]" horiz-adv-x="573" 
d="M41 1638h410v-1843h-410v131h274v1581h-274v131z" />
    <glyph glyph-name="asciicircum" unicode="^" horiz-adv-x="1024" 
d="M442 1434h140l360 -615h-158l-272 465l-272 -465h-158z" />
    <glyph glyph-name="underscore" unicode="_" horiz-adv-x="1064" 
d="M983 -289h-901v131h901v-131z" />
    <glyph glyph-name="grave" unicode="`" horiz-adv-x="409" 
d="M369 1167h-131l-197 267h164z" />
    <glyph glyph-name="a" unicode="a" 
d="M1024 823v201h135v-1024h-135v201q-142 -226 -414 -226q-218 0 -374 156q-154 157 -154 381t154 381q156 156 374 156q272 0 414 -226zM334 223q117 -117 287 -117q169 0 286 117q117 120 117 289q0 170 -117 287q-116 119 -286 119q-171 0 -287 -119
q-117 -117 -117 -287q0 -169 117 -289z" />
    <glyph glyph-name="b" unicode="b" 
d="M692 1049q220 0 373 -156q156 -156 156 -381t-156 -381q-153 -156 -373 -156q-271 0 -413 226v-201h-136v1434h136v-611q142 226 413 226zM395 223q117 -117 287 -117t287 117q116 119 116 289q0 171 -116 287q-116 119 -287 119t-287 -119q-116 -116 -116 -287
q0 -170 116 -289z" />
    <glyph glyph-name="c" unicode="c" horiz-adv-x="1130" 
d="M621 -25q-231 0 -385 154q-154 157 -154 383q0 227 154 381q153 156 385 156q152 0 272 -72.5t176 -196.5l-111 -63q-41 93 -131.5 147t-205.5 54q-171 0 -287 -119q-117 -117 -117 -287q0 -169 117 -289q117 -117 287 -117q114 0 204 53.5t142 147.5l112 -65
q-63 -123 -186 -195t-272 -72z" />
    <glyph glyph-name="d" unicode="d" 
d="M1024 823v611h135v-1434h-135v201q-142 -226 -414 -226q-218 0 -374 156q-154 157 -154 381t154 381q156 156 374 156q272 0 414 -226zM334 223q117 -117 287 -117q169 0 286 117q117 120 117 289q0 170 -117 287q-116 119 -286 119q-171 0 -287 -119
q-117 -117 -117 -287q0 -169 117 -289z" />
    <glyph glyph-name="e" unicode="e" horiz-adv-x="1196" 
d="M616 1049q230 0 367 -162q141 -159 141 -379q0 -10 -4 -64h-899q20 -155 131.5 -246.5t276.5 -91.5q114 0 199.5 47.5t129.5 127.5l119 -70q-69 -111 -186 -173.5t-264 -62.5q-242 0 -394 152q-151 151 -151 385q0 231 149 383q151 154 385 154zM616 918q-159 0 -267 -95
t-128 -248h764q-21 164 -125 252q-108 91 -244 91z" />
    <glyph glyph-name="f" unicode="f" horiz-adv-x="655" 
d="M655 1458v-131q-150 12 -222.5 -51.5t-72.5 -210.5v-41h295v-131h-295v-893h-135v893h-174v131h174v41q0 201 111.5 303.5t318.5 89.5z" />
    <glyph glyph-name="g" unicode="g" 
d="M1024 823v201h135v-983q0 -221 -151 -348t-363 -127q-358 0 -485 250l119 67q91 -186 366 -186q176 0 277.5 92.5t101.5 251.5v160q-142 -226 -414 -226q-218 0 -374 156q-154 157 -154 381t154 381q156 156 374 156q272 0 414 -226zM334 223q117 -117 287 -117
q169 0 286 117q117 120 117 289q0 170 -117 287q-116 119 -286 119q-171 0 -287 -119q-117 -117 -117 -287q0 -169 117 -289z" />
    <glyph glyph-name="h" unicode="h" horiz-adv-x="1142" 
d="M623 1049q185 0 293 -113.5t108 -306.5v-629h-135v629q0 137 -73 213t-206 76q-153 0 -242 -96t-89 -285v-537h-136v1434h136v-570q114 185 344 185z" />
    <glyph glyph-name="i" unicode="i" horiz-adv-x="421" 
d="M281 1202q-29 -29 -70 -29t-70 29t-29 69.5t29 69.5t70 29t70 -29t29 -69.5t-29 -69.5zM279 0h-136v1024h136v-1024z" />
    <glyph glyph-name="j" unicode="j" horiz-adv-x="471" 
d="M193 -82v1106h135v-1106q0 -185 -96 -277t-273 -75v131q122 -12 178 39.5t56 181.5zM330 1202q-29 -29 -70 -29t-70 29t-29 69.5t29 69.5t70 29t70 -29t29 -69.5t-29 -69.5z" />
    <glyph glyph-name="k" unicode="k" horiz-adv-x="1011" 
d="M422 532l549 -532h-180l-512 494v-494h-136v1434h136v-863l487 453h184z" />
    <glyph glyph-name="l" unicode="l" horiz-adv-x="421" 
d="M279 0h-136v1495h136v-1495z" />
    <glyph glyph-name="m" unicode="m" horiz-adv-x="1736" 
d="M1235 1049q173 0 278 -111t105 -299v-639h-135v639q0 132 -68 205.5t-182 73.5q-132 0 -208.5 -88t-76.5 -263v-567h-135v639q0 133 -64 206t-176 73q-130 0 -212 -90t-82 -261v-567h-136v1024h136v-150q111 175 313 175q223 0 311 -187q111 187 332 187z" />
    <glyph glyph-name="n" unicode="n" horiz-adv-x="1142" 
d="M623 1049q185 0 293 -113.5t108 -306.5v-629h-135v629q0 137 -73 213t-206 76q-153 0 -242 -96t-89 -285v-537h-136v1024h136v-160q114 185 344 185z" />
    <glyph glyph-name="o" unicode="o" horiz-adv-x="1241" 
d="M1001 129q-157 -154 -380 -154q-226 0 -383 154q-156 156 -156 383q0 228 156 381q156 156 383 156q224 0 380 -156q158 -155 158 -381q0 -225 -158 -383zM334 223q117 -117 287 -117q169 0 286 117q117 120 117 289q0 170 -117 287q-116 119 -286 119q-171 0 -287 -119
q-117 -117 -117 -287q0 -169 117 -289z" />
    <glyph glyph-name="p" unicode="p" 
d="M692 1049q220 0 373 -156q156 -156 156 -381t-156 -381q-153 -156 -373 -156q-271 0 -413 226v-611h-136v1434h136v-201q142 226 413 226zM395 223q117 -117 287 -117t287 117q116 119 116 289q0 171 -116 287q-116 119 -287 119t-287 -119q-116 -116 -116 -287
q0 -170 116 -289z" />
    <glyph glyph-name="q" unicode="q" 
d="M1024 823v201h135v-1434h-135v611q-142 -226 -414 -226q-218 0 -374 156q-154 157 -154 381t154 381q156 156 374 156q272 0 414 -226zM334 223q117 -117 287 -117q169 0 286 117q117 120 117 289q0 170 -117 287q-116 119 -286 119q-171 0 -287 -119
q-117 -117 -117 -287q0 -169 117 -289z" />
    <glyph glyph-name="r" unicode="r" horiz-adv-x="643" 
d="M279 1024v-170q94 186 323 186v-131q-147 0 -235 -85t-88 -255v-569h-136v1024h136z" />
    <glyph glyph-name="s" unicode="s" horiz-adv-x="929" 
d="M250 756q0 -118 211 -174q158 -40 222 -70q165 -79 165 -242q0 -130 -105 -213q-101 -82 -266 -82q-144 0 -248.5 64.5t-146.5 171.5l115 68q29 -80 103.5 -126.5t176.5 -46.5q105 0 170.5 41.5t65.5 122.5q0 118 -211 174q-158 40 -222 70q-165 79 -165 242
q0 127 98 209q104 84 252 84q124 0 218.5 -56t139.5 -153l-112 -66q-59 144 -246 144q-92 0 -153.5 -43.5t-61.5 -118.5z" />
    <glyph glyph-name="t" unicode="t" horiz-adv-x="768" 
d="M686 1024v-131h-295v-621q0 -84 32.5 -119.5t98.5 -36.5t164 3v-119q-219 -33 -324.5 31.5t-105.5 240.5v621h-215v131h215v246l135 41v-287h295z" />
    <glyph glyph-name="u" unicode="u" horiz-adv-x="1142" 
d="M864 487v537h135v-1024h-135v160q-114 -185 -344 -185q-185 0 -293 113.5t-108 306.5v629h135v-629q0 -137 72.5 -213t205.5 -76q153 0 242.5 96t89.5 285z" />
    <glyph glyph-name="v" unicode="v" horiz-adv-x="1044" 
d="M522 141l359 883h143l-420 -1024h-164l-420 1024h144z" />
    <glyph glyph-name="w" unicode="w" horiz-adv-x="1576" 
d="M1124 174l252 850h140l-316 -1024h-147l-265 825l-264 -825h-147l-316 1024h140l252 -850l268 850h135z" />
    <glyph glyph-name="x" unicode="x" horiz-adv-x="1044" 
d="M604 530l400 -530h-162l-320 422l-319 -422h-162l401 530l-374 494h161l293 -387l293 387h162z" />
    <glyph glyph-name="y" unicode="y" horiz-adv-x="1044" 
d="M549 166l332 858h143l-438 -1118q-61 -155 -171 -240.5t-243 -75.5v127q186 -21 281 213l26 64l-459 1030h144z" />
    <glyph glyph-name="z" unicode="z" horiz-adv-x="962" 
d="M860 934l-569 -803h590v-131h-779v90l570 803h-549v131h737v-90z" />
    <glyph glyph-name="braceleft" unicode="{" horiz-adv-x="724" 
d="M684 -90v-131q-180 -17 -274.5 66.5t-94.5 265.5v342q0 119 -46.5 159.5t-166.5 40.5v131q120 0 166.5 41t46.5 160v342q0 182 94.5 265.5t274.5 66.5v-131q-126 12 -179.5 -32t-53.5 -169v-342q0 -219 -160 -266q160 -47 160 -266v-342q0 -125 53.5 -169t179.5 -32z" />
    <glyph glyph-name="bar" unicode="|" horiz-adv-x="462" 
d="M299 -410h-135v1885h135v-1885z" />
    <glyph glyph-name="braceright" unicode="}" horiz-adv-x="724" 
d="M41 -221v131q126 -12 179.5 32t53.5 169v342q0 219 160 266q-160 47 -160 266v342q0 125 -53.5 169t-179.5 32v131q180 17 274.5 -66.5t94.5 -265.5v-342q0 -119 46.5 -160t166.5 -41v-131q-120 0 -166.5 -40.5t-46.5 -159.5v-342q0 -182 -94.5 -265.5t-274.5 -66.5z" />
    <glyph glyph-name="asciitilde" unicode="~" horiz-adv-x="1216" 
d="M971 848l123 -57q-114 -365 -516 -132q-158 90 -230 68q-67 -20 -102 -141l-123 57q55 175 183.5 210.5t332.5 -79.5q103 -64 170.5 -71.5t103 29t58.5 116.5z" />
    <glyph glyph-name="exclamdown" unicode="&#xa1;" horiz-adv-x="471" 
d="M156 1012q32 32 79.5 32t79.5 -32t32 -80t-32 -80t-79.5 -32t-79.5 32t-32 80t32 80zM154 0l30 635h103l30 -635v-410h-163v410z" />
    <glyph glyph-name="cent" unicode="&#xa2;" horiz-adv-x="1130" 
d="M967 512l112 -66q-63 -123 -186 -194.5t-272 -71.5q-60 0 -140 17l-63 -197h-103l74 229q-141 62 -224 193t-83 295q0 227 154 381q152 155 385 155q60 0 96 -8l61 189h103l-70 -215q181 -67 258 -234l-111 -63q-59 120 -186 172l-250 -770q50 -13 99 -13q114 0 204 53.5
t142 147.5zM217 717q0 -116 57.5 -213t155.5 -148l246 762q-50 4 -55 4q-172 0 -287 -118q-117 -117 -117 -287z" />
    <glyph glyph-name="sterling" unicode="&#xa3;" horiz-adv-x="1198" 
d="M418 592v-453h749v-139h-1085v139h192v453h-151v127h151v309q0 208 125 318q124 112 295 112q280 0 391 -274l-116 -66q-74 201 -275 201q-122 0 -199 -75t-77 -216v-309h473v-127h-473z" />
    <glyph glyph-name="currency" unicode="&#xa4;" horiz-adv-x="1130" 
d="M905 442l144 -143l-66 -66l-143 144q-119 -94 -275 -94q-155 0 -274 94l-144 -144l-65 66l143 143q-96 122 -96 275q0 152 96 274l-143 144l65 65l144 -143q119 94 274 94q156 0 275 -94l143 143l66 -65l-144 -144q96 -116 96 -274q0 -159 -96 -275zM350 932
q-86 -89 -86 -215t86 -215q88 -88 215 -88q128 0 213 88q88 88 88 215t-88 215q-85 88 -213 88q-127 0 -215 -88z" />
    <glyph glyph-name="yen" unicode="&#xa5;" horiz-adv-x="1177" 
d="M1036 1434h162l-442 -723h274v-119h-348l-2 -4v-119h350v-119h-350v-350h-143v350h-387v119h387v123h-387v119h313l-443 723h162l428 -703z" />
    <glyph glyph-name="brokenbar" unicode="&#xa6;" horiz-adv-x="462" 
d="M299 717h-135v758h135v-758zM299 -410h-135v758h135v-758z" />
    <glyph glyph-name="section" unicode="&#xa7;" horiz-adv-x="1044" 
d="M831 285q91 -88 91 -211q0 -129 -103 -215q-101 -88 -266 -88q-159 0 -268.5 70.5t-159.5 201.5l115 66q65 -207 313 -207q105 0 169 46t64 126q0 59 -49 108q-46 46 -97 73.5t-165 74.5l-31 12q-134 57 -221 127q-100 86 -100 225q0 150 145 256q-84 84 -84 205
q0 127 99 215q98 88 252 88q132 0 227 -64t143 -182l-110 -63q-70 178 -260 178q-91 0 -153.5 -46.5t-62.5 -125.5q0 -57 46 -106q48 -48 96 -74q75 -36 147 -68l33 -14q163 -74 242.5 -154.5t79.5 -203.5q0 -148 -132 -250zM258 694q0 -81 59 -135t179 -100
q165 -62 231 -101q100 69 100 177q0 82 -59 136t-184 105q-150 58 -215 98q-111 -68 -111 -180z" />
    <glyph glyph-name="dieresis" unicode="&#xa8;" horiz-adv-x="655" 
d="M199 1204q-26 -26 -65.5 -26t-65.5 26t-26 65.5t26 65.5t65.5 26t65.5 -26t26 -65.5t-26 -65.5zM588 1204q-26 -26 -65.5 -26t-65.5 26t-26 65.5t26 65.5t65.5 26t65.5 -26t26 -65.5t-26 -65.5z" />
    <glyph glyph-name="copyright" unicode="&#xa9;" horiz-adv-x="1646" 
d="M1348 193q-218 -218 -525 -218q-306 0 -524 218q-217 217 -217 524t217 524t524 217q308 0 525 -217t217 -524t-217 -524zM342 231q198 -198 481 -198q282 0 480 198q200 200 200 486q0 283 -200 483q-201 201 -480 201q-280 0 -481 -201q-199 -199 -199 -483
q0 -287 199 -486zM829 324q-168 0 -282 114q-115 115 -115 279q0 163 115 278t282 115q108 0 197 -51t139 -139l-112 -66q-29 61 -89.5 95t-134.5 34q-118 0 -192 -80q-72 -78 -72 -186t72 -189q74 -77 192 -77q75 0 136 34.5t90 96.5l112 -68q-50 -88 -140 -139t-198 -51z
" />
    <glyph glyph-name="guillemotleft" unicode="&#xab;" horiz-adv-x="1007" 
d="M369 1001h168l-226 -368l226 -369h-168l-226 369zM696 1001h168l-225 -368l225 -369h-168l-225 369z" />
    <glyph glyph-name="logicalnot" unicode="&#xac;" horiz-adv-x="1064" 
d="M123 651v131h819v-368h-135v237h-684z" />
    <glyph glyph-name="registered" unicode="&#xae;" horiz-adv-x="1646" 
d="M299 1241q217 217 524 217q308 0 525 -217t217 -524t-217 -524q-218 -218 -525 -218q-306 0 -524 218q-217 217 -217 524t217 524zM342 231q198 -198 481 -198q282 0 480 198q200 200 200 486q0 283 -200 483q-201 201 -480 201q-280 0 -481 -201q-199 -199 -199 -483
q0 -287 199 -486zM1118 852q0 -163 -139 -219l160 -295h-142l-145 270h-21h-106v-270h-127v758h233q132 0 209.5 -69t77.5 -175zM840 973h-115v-242h115q71 0 111 32.5t40 88.5t-40 88.5t-111 32.5z" />
    <glyph glyph-name="overscore" unicode="&#xaf;" horiz-adv-x="614" 
d="M573 1188h-532v119h532v-119z" />
    <glyph glyph-name="degree" unicode="&#xb0;" horiz-adv-x="790" 
d="M395 1044q-134 0 -223 89q-90 90 -90 219q0 127 90 217t223 90t223 -90q91 -91 91 -217q0 -131 -88 -219q-89 -89 -226 -89zM264 1221q51 -54 131 -54t131 54t51 131t-51 131t-131 54t-131 -54t-51 -131t51 -131z" />
    <glyph glyph-name="plusminus" unicode="&#xb1;" horiz-adv-x="1105" 
d="M618 1249v-334h365v-131h-365v-333h-131v333h-364v131h364v334h131zM983 184h-860v131h860v-131z" />
    <glyph glyph-name="acute" unicode="&#xb4;" horiz-adv-x="409" 
d="M41 1167l164 267h164l-197 -267h-131z" />
    <glyph glyph-name="uni00B5" unicode="&#xb5;" horiz-adv-x="1241" 
d="M1100 131h80v-131h-97q-77 0 -128.5 45t-63.5 121q-114 -191 -346 -191q-175 0 -266 105v-490h-136v1434h136v-629q0 -137 72.5 -213t205.5 -76q153 0 242.5 96t89.5 285v537h135v-819q0 -33 20.5 -53.5t55.5 -20.5z" />
    <glyph glyph-name="paragraph" unicode="&#xb6;" horiz-adv-x="1187" 
d="M492 1434h614v-127h-123v-1717h-131v1717h-229v-1717h-131v1024q-172 0 -291 119t-119 291q0 170 119 289q121 121 291 121z" />
    <glyph glyph-name="middot" unicode="&#xb7;" horiz-adv-x="471" 
d="M315 637q-32 -32 -79.5 -32t-79.5 32t-32 80t32 80t79.5 32t79.5 -32t32 -80t-32 -80z" />
    <glyph glyph-name="cedilla" unicode="&#xb8;" horiz-adv-x="501" 
d="M270 0v-92q89 -18 140 -61t51 -105q0 -208 -420 -184v110q301 -24 301 74q0 78 -190 84v174h118z" />
    <glyph glyph-name="guillemotright" unicode="&#xbb;" horiz-adv-x="1007" 
d="M143 1001h168l226 -368l-226 -369h-168l226 369zM471 1001h168l225 -368l-225 -369h-168l225 369z" />
    <glyph glyph-name="onequarter" unicode="&#xbc;" horiz-adv-x="1681" 
d="M367 1434v-820h-127v680l-187 -55l-33 109l238 86h109zM260 0l819 1434h123l-819 -1434h-123zM1536 272h104v-118h-104v-154h-127v154h-422v118l305 547h138l-304 -547h283v197h127v-197z" />
    <glyph glyph-name="onehalf" unicode="&#xbd;" horiz-adv-x="1652" 
d="M367 1434v-820h-127v680l-187 -55l-33 109l238 86h109zM260 0l819 1434h123l-819 -1434h-123zM1450 338l-242 -215h385v-123h-573v104l344 316q86 77 86 174q0 57 -40 92t-107 35q-126 0 -179 -127l-106 59q77 191 285 191q121 0 197.5 -71.5t76.5 -178.5
q0 -141 -127 -256z" />
    <glyph glyph-name="threequarters" unicode="&#xbe;" horiz-adv-x="1896" 
d="M641 854q0 -119 -82 -191.5t-217 -72.5q-209 0 -291 172l107 61q52 -110 184 -110q81 0 126.5 37.5t45.5 103.5q0 64 -46.5 102.5t-125.5 38.5h-8l-64 97l185 219h-377v123h528v-123l-182 -217q103 -20 160 -83t57 -157zM475 0l819 1434h123l-819 -1434h-123zM1751 272
h104v-118h-104v-154h-127v154h-422v118l305 547h138l-304 -547h283v197h127v-197z" />
    <glyph glyph-name="questiondown" unicode="&#xbf;" horiz-adv-x="1089" 
d="M508 1012q32 32 80 32t80 -32t32 -80t-32 -80t-80 -32t-80 32t-32 80t32 80zM516 635h143q0 -94 -38.5 -178t-100.5 -146q-19 -19 -56.5 -54.5t-59.5 -57t-51.5 -55.5t-46 -62t-28.5 -64t-12 -73q0 -116 79 -178t210 -62q252 0 311 207l121 -68q-46 -133 -162.5 -205.5
t-269.5 -72.5q-183 0 -307 100q-125 98 -125 279q0 160 139 295q12 12 56 54.5t61 60.5t50 58.5t47.5 69t27 70t12.5 82.5z" />
    <glyph glyph-name="Agrave" unicode="&#xc0;" horiz-adv-x="1290" 
d="M604 1843l164 -266h-131l-197 266h164zM1270 0h-152l-133 352h-680l-133 -352h-152l551 1434h148zM645 1255l-289 -768h578z" />
    <glyph glyph-name="Aacute" unicode="&#xc1;" horiz-adv-x="1290" 
d="M707 1843h163l-196 -266h-131zM1270 0h-152l-133 352h-680l-133 -352h-152l551 1434h148zM645 1255l-289 -768h578z" />
    <glyph glyph-name="Acircumflex" unicode="&#xc2;" horiz-adv-x="1290" 
d="M788 1577l-143 178l-143 -178h-154l217 266h160l217 -266h-154zM1270 0h-152l-133 352h-680l-133 -352h-152l551 1434h148zM645 1255l-289 -768h578z" />
    <glyph glyph-name="Atilde" unicode="&#xc3;" horiz-adv-x="1290" 
d="M645 1645q-51 38 -75.5 52t-47.5 15q-24 1 -34.5 -26.5t-10.5 -88.5h-119q0 90 25.5 147.5t66.5 76.5t92.5 7.5t104.5 -52.5q37 -28 59.5 -43t45.5 -22.5t34.5 2t19 36.5t7.5 74h119q0 -72 -16 -124t-44 -77.5t-65 -32t-78.5 8t-83.5 47.5zM1270 0h-152l-133 352h-680
l-133 -352h-152l551 1434h148zM645 1255l-289 -768h578z" />
    <glyph glyph-name="Adieresis" unicode="&#xc4;" horiz-adv-x="1290" 
d="M516 1614q-26 -26 -65.5 -26t-65.5 26t-26 65.5t26 65.5t65.5 26t65.5 -26t26 -65.5t-26 -65.5zM905 1614q-26 -26 -65.5 -26t-65.5 26t-26 65.5t26 65.5t65.5 26t65.5 -26t26 -65.5t-26 -65.5zM1270 0h-152l-133 352h-680l-133 -352h-152l551 1434h148zM645 1255
l-289 -768h578z" />
    <glyph glyph-name="Aring" unicode="&#xc5;" horiz-adv-x="1290" 
d="M1270 0h-152l-133 352h-680l-133 -352h-152l527 1370q-119 52 -119 186q0 89 60.5 147t156.5 58t156.5 -58t60.5 -147q0 -134 -119 -186zM645 1657q-64 6 -91 -47.5t0 -106.5t91 -47q66 -6 94 47t0 106.5t-94 47.5zM645 1255l-289 -768h578z" />
    <glyph glyph-name="AE" unicode="&#xc6;" horiz-adv-x="1802" 
d="M1065 655v-520h655v-135h-798v352h-543l-215 -352h-164l297 485v2h2l580 947h831v-136h-645v-507h614v-136h-614zM922 1243l-461 -756h461v756z" />
    <glyph glyph-name="Ccedilla" unicode="&#xc7;" horiz-adv-x="1525" 
d="M834 115q159 0 292 77.5t201 208.5l127 -71q-82 -150 -232.5 -245t-332.5 -108v-69q89 -18 139.5 -61t50.5 -105q0 -208 -420 -184v110q302 -24 302 74q0 78 -191 84v151q-301 21 -496 234q-192 210 -192 506q0 310 213 526q212 215 539 215q197 0 363 -95t257 -257
l-127 -74q-68 131 -201 209t-292 78q-271 0 -439 -174q-170 -176 -170 -428t170 -428q168 -174 439 -174z" />
    <glyph glyph-name="Egrave" unicode="&#xc8;" horiz-adv-x="1085" 
d="M539 1843l163 -266h-131l-196 266h164zM307 655v-520h697v-135h-840v1434h829v-136h-686v-507h635v-136h-635z" />
    <glyph glyph-name="Eacute" unicode="&#xc9;" horiz-adv-x="1085" 
d="M641 1843h164l-197 -266h-131zM307 655v-520h697v-135h-840v1434h829v-136h-686v-507h635v-136h-635z" />
    <glyph glyph-name="Ecircumflex" unicode="&#xca;" horiz-adv-x="1085" 
d="M723 1577l-143 178l-144 -178h-153l217 266h159l218 -266h-154zM307 655v-520h697v-135h-840v1434h829v-136h-686v-507h635v-136h-635z" />
    <glyph glyph-name="Edieresis" unicode="&#xcb;" horiz-adv-x="1085" 
d="M451 1614q-26 -26 -66 -26t-66 26t-26 65.5t26 65.5t66 26t66 -26t26 -65.5t-26 -65.5zM840 1614q-26 -26 -65.5 -26t-65.5 26t-26 65.5t26 65.5t65.5 26t65.5 -26t26 -65.5t-26 -65.5zM307 655v-520h697v-135h-840v1434h829v-136h-686v-507h635v-136h-635z" />
    <glyph glyph-name="Igrave" unicode="&#xcc;" horiz-adv-x="471" 
d="M358 1577h-131l-196 266h164zM164 1434v-1434h143v1434h-143z" />
    <glyph glyph-name="Iacute" unicode="&#xcd;" horiz-adv-x="471" 
d="M133 1577l164 266h164l-197 -266h-131zM164 1434v-1434h143v1434h-143z" />
    <glyph glyph-name="Icircumflex" unicode="&#xce;" horiz-adv-x="471" 
d="M156 1843h159l217 -266h-153l-143 178l-144 -178h-153zM307 0h-143v1434h143v-1434z" />
    <glyph glyph-name="Idieresis" unicode="&#xcf;" horiz-adv-x="471" 
d="M106 1614q-26 -26 -65.5 -26t-65.5 26t-26 65.5t26 65.5t65.5 26t65.5 -26t26 -65.5t-26 -65.5zM496 1614q-26 -26 -65.5 -26t-65.5 26t-26 65.5t26 65.5t65.5 26t65.5 -26t26 -65.5t-26 -65.5zM164 0v1434h143v-1434h-143z" />
    <glyph glyph-name="Eth" unicode="&#xd0;" horiz-adv-x="1515" 
d="M205 1434h553q292 0 483 -209q193 -205 193 -508q0 -302 -193 -510q-192 -207 -483 -207h-553v651h-144v131h144v652zM348 135h410q236 0 385 168q151 171 151 414q0 242 -151 413q-149 168 -385 168h-410v-516h451v-131h-451v-516z" />
    <glyph glyph-name="Ntilde" unicode="&#xd1;" horiz-adv-x="1392" 
d="M528 1597h-118q0 119 43 179.5t108 58t137 -58.5q37 -28 59.5 -43t45.5 -22.5t34.5 2t19 36.5t7.5 74h119q0 -72 -16 -124t-44 -77.5t-65 -32t-78.5 8t-83.5 47.5q-51 38 -75.5 52t-47.5 15q-24 1 -34.5 -26.5t-10.5 -88.5zM1085 266v1168h144v-1434h-123l-799 1167
v-1167h-143v1434h123z" />
    <glyph glyph-name="Ograve" unicode="&#xd2;" horiz-adv-x="1646" 
d="M946 1577h-131l-197 266h164zM1350 190q215 218 215 527t-215 524q-214 217 -527 217q-312 0 -526 -217q-215 -215 -215 -524t215 -527q215 -215 526 -215q312 0 527 215zM397 289q-172 175 -172 428q0 251 172 426q173 176 426 176t426 -176q172 -175 172 -426
q0 -253 -172 -428q-171 -174 -426 -174t-426 174z" />
    <glyph glyph-name="Oacute" unicode="&#xd3;" horiz-adv-x="1646" 
d="M721 1577l164 266h164l-197 -266h-131zM1350 190q215 218 215 527t-215 524q-214 217 -527 217q-312 0 -526 -217q-215 -215 -215 -524t215 -527q215 -215 526 -215q312 0 527 215zM397 289q-172 175 -172 428q0 251 172 426q173 176 426 176t426 -176q172 -175 172 -426
q0 -253 -172 -428q-171 -174 -426 -174t-426 174z" />
    <glyph glyph-name="Ocircumflex" unicode="&#xd4;" horiz-adv-x="1646" 
d="M967 1577l-144 178l-143 -178h-154l217 266h160l217 -266h-153zM297 1241q214 217 526 217q313 0 527 -217q215 -215 215 -524t-215 -527q-215 -215 -527 -215q-311 0 -526 215q-215 218 -215 527t215 524zM397 289q171 -174 426 -174t426 174q172 175 172 428
q0 251 -172 426q-173 176 -426 176t-426 -176q-172 -175 -172 -426q0 -253 172 -428z" />
    <glyph glyph-name="Otilde" unicode="&#xd5;" horiz-adv-x="1646" 
d="M655 1597h-118q0 119 43 179.5t108 58t137 -58.5q37 -28 59.5 -43t45.5 -22.5t34.5 2t19 36.5t7.5 74h119q0 -72 -16 -124t-44 -77.5t-65 -32t-78.5 8t-83.5 47.5q-51 38 -75.5 52t-47.5 15q-24 1 -34.5 -26.5t-10.5 -88.5zM1350 190q-215 -215 -527 -215
q-311 0 -526 215q-215 218 -215 527t215 524q214 217 526 217q313 0 527 -217q215 -215 215 -524t-215 -527zM397 289q171 -174 426 -174t426 174q172 175 172 428q0 251 -172 426q-173 176 -426 176t-426 -176q-172 -175 -172 -426q0 -253 172 -428z" />
    <glyph glyph-name="Odieresis" unicode="&#xd6;" horiz-adv-x="1646" 
d="M694 1614q-26 -26 -65.5 -26t-65.5 26t-26 65.5t26 65.5t65.5 26t65.5 -26t26 -65.5t-26 -65.5zM1083 1614q-26 -26 -65.5 -26t-65.5 26t-26 65.5t26 65.5t65.5 26t65.5 -26t26 -65.5t-26 -65.5zM1350 190q-215 -215 -527 -215q-311 0 -526 215q-215 218 -215 527
t215 524q214 217 526 217q313 0 527 -217q215 -215 215 -524t-215 -527zM397 289q171 -174 426 -174t426 174q172 175 172 428q0 251 -172 426q-173 176 -426 176t-426 -176q-172 -175 -172 -426q0 -253 172 -428z" />
    <glyph glyph-name="multiply" unicode="&#xd7;" horiz-adv-x="964" 
d="M770 1094l92 -86l-291 -291l291 -291l-92 -86l-287 289l-288 -289l-93 86l291 291l-291 291l93 86l288 -287z" />
    <glyph glyph-name="Oslash" unicode="&#xd8;" horiz-adv-x="1667" 
d="M1483 1378l-115 -133q217 -217 217 -528q0 -309 -215 -527q-215 -215 -526 -215q-243 0 -441 142l-100 -117l-96 55l115 133q-220 217 -220 529q0 309 215 524q214 217 527 217q250 0 442 -143l100 119zM246 717q0 -247 166 -422l782 913q-156 111 -350 111
q-253 0 -426 -176q-172 -175 -172 -426zM844 115q255 0 426 174q172 175 172 428q0 248 -166 420l-780 -914q153 -108 348 -108z" />
    <glyph glyph-name="Ugrave" unicode="&#xd9;" horiz-adv-x="1351" 
d="M799 1577h-131l-197 266h164zM143 487q0 -233 148 -372q149 -140 385 -140t385 140q147 138 147 372v947h-143v-947q0 -173 -103 -272.5t-286 -99.5t-286 99.5t-103 272.5v947h-144v-947z" />
    <glyph glyph-name="Uacute" unicode="&#xda;" horiz-adv-x="1351" 
d="M610 1577l164 266h164l-197 -266h-131zM143 487q0 -233 148 -372q149 -140 385 -140t385 140q147 138 147 372v947h-143v-947q0 -173 -103 -272.5t-286 -99.5t-286 99.5t-103 272.5v947h-144v-947z" />
    <glyph glyph-name="Ucircumflex" unicode="&#xdb;" horiz-adv-x="1351" 
d="M819 1577l-143 178l-144 -178h-153l217 266h160l217 -266h-154zM1065 487v947h143v-947q0 -234 -147 -372q-149 -140 -385 -140t-385 140q-148 139 -148 372v947h144v-947q0 -173 103 -272.5t286 -99.5t286 99.5t103 272.5z" />
    <glyph glyph-name="Udieresis" unicode="&#xdc;" horiz-adv-x="1351" 
d="M547 1614q-26 -26 -65.5 -26t-65.5 26t-26 65.5t26 65.5t65.5 26t65.5 -26t26 -65.5t-26 -65.5zM936 1614q-26 -26 -65.5 -26t-65.5 26t-26 65.5t26 65.5t65.5 26t65.5 -26t26 -65.5t-26 -65.5zM143 487v947h144v-947q0 -173 103 -272.5t286 -99.5t286 99.5t103 272.5
v947h143v-947q0 -234 -147 -372q-149 -140 -385 -140t-385 140q-148 139 -148 372z" />
    <glyph glyph-name="Yacute" unicode="&#xdd;" horiz-adv-x="1218" 
d="M664 1843h163l-196 -266h-131zM1036 1434h162l-518 -846v-588h-143v592l-517 842h162l428 -703z" />
    <glyph glyph-name="Thorn" unicode="&#xde;" horiz-adv-x="1208" 
d="M307 1167h369q192 0 321 -129t129 -321q0 -193 -129 -322t-321 -129h-369v-266h-143v1434h143v-267zM307 401h369q134 0 219 88q88 88 88 228q0 137 -88 225q-87 90 -219 90h-369v-631z" />
    <glyph glyph-name="germandbls" unicode="&#xdf;" horiz-adv-x="1056" 
d="M592 -6v123q289 -15 289 172q0 61 -43 133.5t-105 132.5q-147 147 -147 252q-2 27 16.5 62t46 68.5t55 67.5t46 69t16.5 63q0 89 -61 139.5t-162 50.5q-117 0 -190.5 -68.5t-73.5 -203.5v-1055h-136v1055q0 187 111 295q114 108 289 108q167 0 262 -92q96 -93 96 -229
q3 -46 -25.5 -99.5t-64.5 -92.5t-64.5 -78t-25.5 -60q0 -78 147 -213q61 -56 104.5 -139.5t43.5 -165.5q0 -148 -112.5 -228t-311.5 -67z" />
    <glyph glyph-name="agrave" unicode="&#xe0;" 
d="M666 1434l163 -267h-131l-196 267h164zM1024 823v201h135v-1024h-135v201q-142 -226 -414 -226q-218 0 -374 156q-154 157 -154 381t154 381q156 156 374 156q272 0 414 -226zM334 223q117 -117 287 -117q169 0 286 117q117 120 117 289q0 170 -117 287
q-116 119 -286 119q-171 0 -287 -119q-117 -117 -117 -287q0 -169 117 -289z" />
    <glyph glyph-name="aacute" unicode="&#xe1;" 
d="M817 1434h164l-197 -267h-131zM1024 823v201h135v-1024h-135v201q-142 -226 -414 -226q-218 0 -374 156q-154 157 -154 381t154 381q156 156 374 156q272 0 414 -226zM334 223q117 -117 287 -117q169 0 286 117q117 120 117 289q0 170 -117 287q-116 119 -286 119
q-171 0 -287 -119q-117 -117 -117 -287q0 -169 117 -289z" />
    <glyph glyph-name="acircumflex" unicode="&#xe2;" 
d="M846 1167l-144 179l-143 -179h-153l217 267h159l217 -267h-153zM1024 823v201h135v-1024h-135v201q-142 -226 -414 -226q-218 0 -374 156q-154 157 -154 381t154 381q156 156 374 156q272 0 414 -226zM334 223q117 -117 287 -117q169 0 286 117q117 120 117 289
q0 170 -117 287q-116 119 -286 119q-171 0 -287 -119q-117 -117 -117 -287q0 -169 117 -289z" />
    <glyph glyph-name="atilde" unicode="&#xe3;" 
d="M678 1235q-52 39 -76 53t-47 15q-24 1 -34.5 -26.5t-10.5 -88.5h-119q0 90 25.5 147.5t66.5 76t92.5 7t104.5 -52.5q37 -28 59.5 -43t45.5 -22.5t34.5 2t19 36.5t7.5 74h119q0 -72 -16 -124t-44 -77.5t-65 -32t-78.5 8t-83.5 47.5zM1024 823v201h135v-1024h-135v201
q-142 -226 -414 -226q-218 0 -374 156q-154 157 -154 381t154 381q156 156 374 156q272 0 414 -226zM334 223q117 -117 287 -117q169 0 286 117q117 120 117 289q0 170 -117 287q-116 119 -286 119q-171 0 -287 -119q-117 -117 -117 -287q0 -169 117 -289z" />
    <glyph glyph-name="adieresis" unicode="&#xe4;" 
d="M496 1204q-26 -26 -65.5 -26t-65.5 26t-26 65.5t26 65.5t65.5 26t65.5 -26t26 -65.5t-26 -65.5zM885 1204q-26 -26 -65.5 -26t-65.5 26t-26 65.5t26 65.5t65.5 26t65.5 -26t26 -65.5t-26 -65.5zM1024 823v201h135v-1024h-135v201q-142 -226 -414 -226q-218 0 -374 156
q-154 157 -154 381t154 381q156 156 374 156q272 0 414 -226zM334 223q117 -117 287 -117q169 0 286 117q117 120 117 289q0 170 -117 287q-116 119 -286 119q-171 0 -287 -119q-117 -117 -117 -287q0 -169 117 -289z" />
    <glyph glyph-name="aring" unicode="&#xe5;" 
d="M780 1184q-58 -58 -155 -58t-158 58q-59 59 -59 147q0 87 59 146q62 59 158 59t155 -59q62 -59 62 -146q0 -88 -62 -147zM625 1432q-64 6 -91 -47t0 -106.5t91 -47.5q66 -6 94 47.5t0 106.5t-94 47zM1024 823v201h135v-1024h-135v201q-142 -226 -414 -226
q-218 0 -374 156q-154 157 -154 381t154 381q156 156 374 156q272 0 414 -226zM334 223q117 -117 287 -117q169 0 286 117q117 120 117 289q0 170 -117 287q-116 119 -286 119q-171 0 -287 -119q-117 -117 -117 -287q0 -169 117 -289z" />
    <glyph glyph-name="ae" unicode="&#xe6;" horiz-adv-x="2134" 
d="M1563 1049q231 0 364 -160q135 -156 135 -381q0 -10 -4 -64h-895q20 -155 127.5 -246.5t268.5 -91.5q238 0 337 175l119 -70q-67 -110 -182.5 -173t-255.5 -63q-290 0 -418 224v-199h-135v201q-142 -226 -414 -226q-218 0 -374 156q-154 157 -154 381t154 381
q156 156 374 156q272 0 414 -226v201h135v-205q128 230 404 230zM334 223q117 -117 287 -117q169 0 286 117q117 120 117 289q0 170 -117 287q-116 119 -286 119q-171 0 -287 -119q-117 -117 -117 -287q0 -169 117 -289zM1556 918q-163 0 -268.5 -94t-124.5 -249h760
q-18 158 -120 250.5t-247 92.5z" />
    <glyph glyph-name="ccedilla" unicode="&#xe7;" horiz-adv-x="1130" 
d="M967 307l112 -65q-57 -111 -165 -182t-240 -83v-69q89 -18 139.5 -61t50.5 -105q0 -208 -420 -184v110q301 -24 301 74q0 78 -190 84v154q-207 21 -340 172t-133 360q0 227 154 381q153 156 385 156q152 0 272 -72.5t176 -196.5l-111 -63q-41 93 -131.5 147t-205.5 54
q-171 0 -287 -119q-117 -117 -117 -287q0 -169 117 -289q117 -117 287 -117q114 0 204 53.5t142 147.5z" />
    <glyph glyph-name="egrave" unicode="&#xe8;" horiz-adv-x="1196" 
d="M584 1434l164 -267h-132l-196 267h164zM616 1049q230 0 367 -162q141 -159 141 -379q0 -10 -4 -64h-899q20 -155 131.5 -246.5t276.5 -91.5q114 0 199.5 47.5t129.5 127.5l119 -70q-69 -111 -186 -173.5t-264 -62.5q-242 0 -394 152q-151 151 -151 385q0 231 149 383
q151 154 385 154zM616 918q-159 0 -267 -95t-128 -248h764q-21 164 -125 252q-108 91 -244 91z" />
    <glyph glyph-name="eacute" unicode="&#xe9;" horiz-adv-x="1196" 
d="M705 1434h163l-196 -267h-131zM616 1049q230 0 367 -162q141 -159 141 -379q0 -10 -4 -64h-899q20 -155 131.5 -246.5t276.5 -91.5q114 0 199.5 47.5t129.5 127.5l119 -70q-69 -111 -186 -173.5t-264 -62.5q-242 0 -394 152q-151 151 -151 385q0 231 149 383
q151 154 385 154zM616 918q-159 0 -267 -95t-128 -248h764q-21 164 -125 252q-108 91 -244 91z" />
    <glyph glyph-name="ecircumflex" unicode="&#xea;" horiz-adv-x="1196" 
d="M768 1167l-143 179l-144 -179h-153l217 267h160l217 -267h-154zM616 1049q230 0 367 -162q141 -159 141 -379q0 -10 -4 -64h-899q20 -155 131.5 -246.5t276.5 -91.5q114 0 199.5 47.5t129.5 127.5l119 -70q-69 -111 -186 -173.5t-264 -62.5q-242 0 -394 152
q-151 151 -151 385q0 231 149 383q151 154 385 154zM616 918q-159 0 -267 -95t-128 -248h764q-21 164 -125 252q-108 91 -244 91z" />
    <glyph glyph-name="edieresis" unicode="&#xeb;" horiz-adv-x="1196" 
d="M475 1204q-26 -26 -65.5 -26t-65.5 26t-26 65.5t26 65.5t65.5 26t65.5 -26t26 -65.5t-26 -65.5zM864 1204q-26 -26 -65.5 -26t-65.5 26t-26 65.5t26 65.5t65.5 26t65.5 -26t26 -65.5t-26 -65.5zM616 1049q230 0 367 -162q141 -159 141 -379q0 -10 -4 -64h-899
q20 -155 131.5 -246.5t276.5 -91.5q114 0 199.5 47.5t129.5 127.5l119 -70q-69 -111 -186 -173.5t-264 -62.5q-242 0 -394 152q-151 151 -151 385q0 231 149 383q151 154 385 154zM616 918q-159 0 -267 -95t-128 -248h764q-21 164 -125 252q-108 91 -244 91z" />
    <glyph glyph-name="igrave" unicode="&#xec;" horiz-adv-x="421" 
d="M326 1167h-131l-136 267h164zM279 0v1024h-136v-1024h136z" />
    <glyph glyph-name="iacute" unicode="&#xed;" horiz-adv-x="421" 
d="M102 1167l103 267h164l-136 -267h-131zM143 0h136v1024h-136v-1024z" />
    <glyph glyph-name="icircumflex" unicode="&#xee;" horiz-adv-x="421" 
d="M131 1434h160l176 -267h-154l-102 156l-102 -156h-154zM279 0h-136v1024h136v-1024z" />
    <glyph glyph-name="idieresis" unicode="&#xef;" horiz-adv-x="421" 
d="M133 1204q-26 -26 -65.5 -26t-65.5 26t-26 65.5t26 65.5t65.5 26t65.5 -26t26 -65.5t-26 -65.5zM420 1204q-26 -26 -65.5 -26t-65.5 26t-26 65.5t26 65.5t65.5 26t65.5 -26t26 -65.5t-26 -65.5zM279 0h-136v1024h136v-1024z" />
    <glyph glyph-name="eth" unicode="&#xf0;" horiz-adv-x="1200" 
d="M670 1233l354 -475q94 -125 94 -287q0 -220 -153 -358q-150 -138 -365 -138q-214 0 -367 138q-151 139 -151 358q0 213 147 348q150 135 351 135q92 0 163 -32l-182 243l-229 -141v123l168 102l-138 185h158l88 -117l230 141v-123zM983 471q0 129 -61 211
q-109 145 -318 145q-168 0 -278 -98q-109 -100 -109 -258q0 -163 113 -264t270 -101t270 101t113 264z" />
    <glyph glyph-name="ntilde" unicode="&#xf1;" horiz-adv-x="1142" 
d="M594 1235q-52 39 -76 53t-47 15q-24 1 -34.5 -26.5t-10.5 -88.5h-119q0 90 25.5 147.5t66.5 76t92.5 7t104.5 -52.5q37 -28 59.5 -43t45.5 -22.5t34.5 2t19 36.5t7.5 74h119q0 -72 -16 -124t-44 -77.5t-65 -32t-78.5 8t-83.5 47.5zM623 1049q185 0 293 -113.5t108 -306.5
v-629h-135v629q0 137 -73 213t-206 76q-153 0 -242 -96t-89 -285v-537h-136v1024h136v-160q114 185 344 185z" />
    <glyph glyph-name="ograve" unicode="&#xf2;" horiz-adv-x="1241" 
d="M772 1167h-131l-197 267h164zM1001 129q158 158 158 383q0 226 -158 381q-156 156 -380 156q-227 0 -383 -156q-156 -153 -156 -381q0 -227 156 -383q157 -154 383 -154q223 0 380 154zM334 223q-117 120 -117 289q0 170 117 287q116 119 287 119q170 0 286 -119
q117 -117 117 -287q0 -169 -117 -289q-117 -117 -286 -117q-170 0 -287 117z" />
    <glyph glyph-name="oacute" unicode="&#xf3;" horiz-adv-x="1241" 
d="M567 1167l164 267h164l-197 -267h-131zM1001 129q158 158 158 383q0 226 -158 381q-156 156 -380 156q-227 0 -383 -156q-156 -153 -156 -381q0 -227 156 -383q157 -154 383 -154q223 0 380 154zM334 223q-117 120 -117 289q0 170 117 287q116 119 287 119
q170 0 286 -119q117 -117 117 -287q0 -169 -117 -289q-117 -117 -286 -117q-170 0 -287 117z" />
    <glyph glyph-name="ocircumflex" unicode="&#xf4;" horiz-adv-x="1241" 
d="M764 1167l-143 179l-144 -179h-153l217 267h159l218 -267h-154zM238 893q156 156 383 156q224 0 380 -156q158 -155 158 -381q0 -225 -158 -383q-157 -154 -380 -154q-226 0 -383 154q-156 156 -156 383q0 228 156 381zM334 223q117 -117 287 -117q169 0 286 117
q117 120 117 289q0 170 -117 287q-116 119 -286 119q-171 0 -287 -119q-117 -117 -117 -287q0 -169 117 -289z" />
    <glyph glyph-name="otilde" unicode="&#xf5;" horiz-adv-x="1241" 
d="M453 1188h-119q0 90 25.5 147.5t66.5 76t92.5 7t104.5 -52.5q37 -28 59.5 -43t45 -22.5t34.5 2t19 36.5t7 74h119q0 -90 -25 -147.5t-65.5 -76t-91.5 -7t-104 52.5q-52 39 -76 53t-47 15q-24 1 -34.5 -26.5t-10.5 -88.5zM1001 129q-157 -154 -380 -154q-226 0 -383 154
q-156 156 -156 383q0 228 156 381q156 156 383 156q224 0 380 -156q158 -155 158 -381q0 -225 -158 -383zM334 223q117 -117 287 -117q169 0 286 117q117 120 117 289q0 170 -117 287q-116 119 -286 119q-171 0 -287 -119q-117 -117 -117 -287q0 -169 117 -289z" />
    <glyph glyph-name="odieresis" unicode="&#xf6;" horiz-adv-x="1241" 
d="M492 1204q-26 -26 -66 -26t-66 26t-26 65.5t26 65.5t66 26t66 -26t26 -65.5t-26 -65.5zM881 1204q-26 -26 -65.5 -26t-65.5 26t-26 65.5t26 65.5t65.5 26t65.5 -26t26 -65.5t-26 -65.5zM1001 129q-157 -154 -380 -154q-226 0 -383 154q-156 156 -156 383q0 228 156 381
q156 156 383 156q224 0 380 -156q158 -155 158 -381q0 -225 -158 -383zM334 223q117 -117 287 -117q169 0 286 117q117 120 117 289q0 170 -117 287q-116 119 -286 119q-171 0 -287 -119q-117 -117 -117 -287q0 -169 117 -289z" />
    <glyph glyph-name="divide" unicode="&#xf7;" horiz-adv-x="1187" 
d="M674 1020q-32 -32 -80 -32t-80 32t-32 80t32 80t80 32t80 -32t32 -80t-32 -80zM1065 651h-942v131h942v-131zM674 254q-32 -32 -80 -32t-80 32t-32 80t32 80t80 32t80 -32t32 -80t-32 -80z" />
    <glyph glyph-name="oslash" unicode="&#xf8;" horiz-adv-x="1241" 
d="M1106 987l-92 -104q145 -157 145 -371q0 -225 -158 -383q-157 -154 -380 -154q-180 0 -324 105l-80 -90l-82 47l92 104q-145 157 -145 371q0 228 156 381q156 156 383 156q179 0 323 -105l80 90zM217 512q0 -158 100 -270l537 602q-103 74 -233 74q-171 0 -287 -119
q-117 -117 -117 -287zM621 106q169 0 286 117q117 120 117 289q0 158 -100 270l-537 -602q103 -74 234 -74z" />
    <glyph glyph-name="ugrave" unicode="&#xf9;" horiz-adv-x="1142" 
d="M514 1434l164 -267h-131l-197 267h164zM864 487v537h135v-1024h-135v160q-114 -185 -344 -185q-185 0 -293 113.5t-108 306.5v629h135v-629q0 -137 72.5 -213t205.5 -76q153 0 242.5 96t89.5 285z" />
    <glyph glyph-name="uacute" unicode="&#xfa;" horiz-adv-x="1142" 
d="M659 1434h164l-196 -267h-131zM864 487v537h135v-1024h-135v160q-114 -185 -344 -185q-185 0 -293 113.5t-108 306.5v629h135v-629q0 -137 72.5 -213t205.5 -76q153 0 242.5 96t89.5 285z" />
    <glyph glyph-name="ucircumflex" unicode="&#xfb;" horiz-adv-x="1142" 
d="M698 1167l-143 179l-143 -179h-154l217 267h160l217 -267h-154zM864 487v537h135v-1024h-135v160q-114 -185 -344 -185q-185 0 -293 113.5t-108 306.5v629h135v-629q0 -137 72.5 -213t205.5 -76q153 0 242.5 96t89.5 285z" />
    <glyph glyph-name="udieresis" unicode="&#xfc;" horiz-adv-x="1142" 
d="M426 1204q-26 -26 -65.5 -26t-65.5 26t-26 65.5t26 65.5t65.5 26t65.5 -26t26 -65.5t-26 -65.5zM815 1204q-26 -26 -65.5 -26t-65.5 26t-26 65.5t26 65.5t65.5 26t65.5 -26t26 -65.5t-26 -65.5zM864 487v537h135v-1024h-135v160q-114 -185 -344 -185q-185 0 -293 113.5
t-108 306.5v629h135v-629q0 -137 72.5 -213t205.5 -76q153 0 242.5 96t89.5 285z" />
    <glyph glyph-name="yacute" unicode="&#xfd;" horiz-adv-x="1044" 
d="M627 1434h164l-197 -267h-131zM549 166l332 858h143l-438 -1118q-61 -155 -171 -240.5t-243 -75.5v127q186 -21 281 213l26 64l-459 1030h144z" />
    <glyph glyph-name="thorn" unicode="&#xfe;" 
d="M692 1049q220 0 373 -156q156 -156 156 -381t-156 -381q-153 -156 -373 -156q-271 0 -413 226v-611h-136v1844h136v-611q142 226 413 226zM395 223q117 -117 287 -117t287 117q116 119 116 289q0 171 -116 287q-116 119 -287 119t-287 -119q-116 -116 -116 -287
q0 -170 116 -289z" />
    <glyph glyph-name="ydieresis" unicode="&#xff;" horiz-adv-x="1044" 
d="M389 1204q-26 -26 -65.5 -26t-65.5 26t-26 65.5t26 65.5t65.5 26t65.5 -26t26 -65.5t-26 -65.5zM778 1204q-26 -26 -65.5 -26t-65.5 26t-26 65.5t26 65.5t65.5 26t65.5 -26t26 -65.5t-26 -65.5zM549 166l332 858h143l-438 -1118q-61 -155 -171 -240.5t-243 -75.5v127
q186 -21 281 213l26 64l-459 1030h144z" />
    <glyph glyph-name="Amacron" unicode="&#x100;" horiz-adv-x="1290" 
d="M379 1716h532v-119h-532v119zM1270 0h-152l-133 352h-680l-133 -352h-152l551 1434h148zM645 1255l-289 -768h578z" />
    <glyph glyph-name="amacron" unicode="&#x101;" 
d="M358 1307h533v-119h-533v119zM1024 823v201h135v-1024h-135v201q-142 -226 -414 -226q-218 0 -374 156q-154 157 -154 381t154 381q156 156 374 156q272 0 414 -226zM334 223q117 -117 287 -117q169 0 286 117q117 120 117 289q0 170 -117 287q-116 119 -286 119
q-171 0 -287 -119q-117 -117 -117 -287q0 -169 117 -289z" />
    <glyph glyph-name="Abreve" unicode="&#x102;" horiz-adv-x="1290" 
d="M645 1561q-122 0 -194 66t-72 179h123q0 -135 143 -135t143 135h123q0 -116 -70.5 -180.5t-195.5 -64.5zM1270 0h-152l-133 352h-680l-133 -352h-152l551 1434h148zM645 1255l-289 -768h578z" />
    <glyph glyph-name="abreve" unicode="&#x103;" 
d="M1024 823v201h135v-1024h-135v201q-142 -226 -414 -226q-218 0 -374 156q-154 157 -154 381t154 381q156 156 374 156q272 0 414 -226zM334 223q117 -117 287 -117q169 0 286 117q117 120 117 289q0 170 -117 287q-116 119 -286 119q-171 0 -287 -119
q-117 -117 -117 -287q0 -169 117 -289zM713 1149q-122 0 -194.5 66t-72.5 180h123q0 -135 144 -135q143 0 143 135h123q0 -117 -70.5 -181.5t-195.5 -64.5z" />
    <glyph glyph-name="Aogonek" unicode="&#x104;" horiz-adv-x="1290" 
d="M1114 -254q0 -63 70 -63q42 0 86 18v-113q-58 -22 -121 -22q-78 0 -123 42.5t-45 112.5q0 135 147 279h-10l-133 352h-680l-133 -352h-152l551 1434h148l551 -1434q-70 -64 -113 -133.5t-43 -120.5zM645 1255l-289 -768h578z" />
    <glyph glyph-name="aogonek" unicode="&#x105;" 
d="M1159 1024v-1024q-69 -63 -112 -133t-43 -121q0 -63 69 -63q43 0 86 18v-113q-58 -22 -121 -22q-78 0 -123 42.5t-45 112.5q0 130 154 304v176q-142 -226 -414 -226q-218 0 -374 156q-154 157 -154 381t154 381q156 156 374 156q272 0 414 -226v201h135zM334 223
q117 -117 287 -117q169 0 286 117q117 120 117 289q0 170 -117 287q-116 119 -286 119q-171 0 -287 -119q-117 -117 -117 -287q0 -169 117 -289z" />
    <glyph glyph-name="Cacute" unicode="&#x106;" horiz-adv-x="1525" 
d="M731 1577l164 266h164l-197 -266h-131zM834 -25q197 0 364.5 96.5t255.5 258.5l-127 71q-68 -131 -201 -208.5t-292 -77.5q-271 0 -439 174q-170 176 -170 428t170 428q168 174 439 174q159 0 292 -78t201 -209l127 74q-91 162 -257 257t-363 95q-327 0 -539 -215
q-213 -216 -213 -526q0 -311 213 -527q212 -215 539 -215z" />
    <glyph glyph-name="cacute" unicode="&#x107;" horiz-adv-x="1130" 
d="M496 1167l163 267h164l-196 -267h-131zM621 -25q149 0 272 72t186 195l-112 65q-52 -94 -142 -147.5t-204 -53.5q-170 0 -287 117q-117 120 -117 289q0 170 117 287q116 119 287 119q115 0 205.5 -54t131.5 -147l111 63q-56 124 -176 196.5t-272 72.5q-232 0 -385 -156
q-154 -154 -154 -381q0 -226 154 -383q154 -154 385 -154z" />
    <glyph glyph-name="Cdotaccent" unicode="&#x10a;" horiz-adv-x="1525" 
d="M913 1610q-32 -32 -79.5 -32t-79.5 32t-32 79.5t32 79.5t79.5 32t79.5 -32t32 -79.5t-32 -79.5zM834 -25q-327 0 -539 215q-213 216 -213 527q0 310 213 526q212 215 539 215q197 0 363 -95t257 -257l-127 -74q-68 131 -201 209t-292 78q-271 0 -439 -174
q-170 -176 -170 -428t170 -428q168 -174 439 -174q159 0 292 77.5t201 208.5l127 -71q-88 -162 -255.5 -258.5t-364.5 -96.5z" />
    <glyph glyph-name="cdotaccent" unicode="&#x10b;" horiz-adv-x="1130" 
d="M678 1200q-32 -32 -80 -32t-80 32t-32 80t32 80t80 32t80 -32t32 -80t-32 -80zM621 -25q-231 0 -385 154q-154 157 -154 383q0 227 154 381q153 156 385 156q152 0 272 -72.5t176 -196.5l-111 -63q-41 93 -131.5 147t-205.5 54q-171 0 -287 -119q-117 -117 -117 -287
q0 -169 117 -289q117 -117 287 -117q114 0 204 53.5t142 147.5l112 -65q-63 -123 -186 -195t-272 -72z" />
    <glyph glyph-name="Ccaron" unicode="&#x10c;" horiz-adv-x="1525" 
d="M913 1577h-159l-217 266h153l144 -178l143 178h153zM834 115q159 0 292 77.5t201 208.5l127 -71q-88 -162 -255.5 -258.5t-364.5 -96.5q-327 0 -539 215q-213 216 -213 527q0 310 213 526q212 215 539 215q197 0 363 -95t257 -257l-127 -74q-68 131 -201 209t-292 78
q-271 0 -439 -174q-170 -176 -170 -428t170 -428q168 -174 439 -174z" />
    <glyph glyph-name="ccaron" unicode="&#x10d;" horiz-adv-x="1130" 
d="M678 1167h-160l-217 267h154l143 -179l143 179h154zM967 307l112 -65q-63 -123 -186 -195t-272 -72q-231 0 -385 154q-154 157 -154 383q0 227 154 381q153 156 385 156q152 0 272 -72.5t176 -196.5l-111 -63q-41 93 -131.5 147t-205.5 54q-171 0 -287 -119
q-117 -117 -117 -287q0 -169 117 -289q117 -117 287 -117q114 0 204 53.5t142 147.5z" />
    <glyph glyph-name="Dcaron" unicode="&#x10e;" horiz-adv-x="1474" 
d="M797 1577h-160l-217 266h153l144 -178l143 178h154zM164 1434h553q292 0 483 -209q193 -205 193 -508q0 -302 -193 -510q-192 -207 -483 -207h-553v1434zM307 135h410q236 0 385 168q151 171 151 414q0 242 -151 413q-149 168 -385 168h-410v-1163z" />
    <glyph glyph-name="dcaron" unicode="&#x10f;" horiz-adv-x="1437" 
d="M1024 823v611h135v-1434h-135v201q-142 -226 -414 -226q-218 0 -374 156q-154 157 -154 381t154 381q156 156 374 156q272 0 414 -226zM1303 1085l20 349h135l-61 -349h-94zM334 223q117 -117 287 -117q169 0 286 117q117 120 117 289q0 170 -117 287q-116 119 -286 119
q-171 0 -287 -119q-117 -117 -117 -287q0 -169 117 -289z" />
    <glyph glyph-name="Dcroat" unicode="&#x110;" horiz-adv-x="1515" 
d="M205 1434h553q292 0 483 -209q193 -205 193 -508q0 -302 -193 -510q-192 -207 -483 -207h-553v643h-131v123h131v668zM348 135h410q236 0 385 168q151 171 151 414q0 242 -151 413q-149 168 -385 168h-410v-532h365v-123h-365v-508z" />
    <glyph glyph-name="dslash" unicode="&#x111;" horiz-adv-x="1323" 
d="M1159 1290h144v-110h-144v-1180h-135v201q-142 -226 -414 -226q-218 0 -374 156q-154 157 -154 381t154 381q156 156 374 156q272 0 414 -226v357h-377v110h377v144h135v-144zM334 223q117 -117 287 -117q169 0 286 117q117 120 117 289q0 170 -117 287
q-116 119 -286 119q-171 0 -287 -119q-117 -117 -117 -287q0 -169 117 -289z" />
    <glyph glyph-name="Emacron" unicode="&#x112;" horiz-adv-x="1085" 
d="M313 1716h533v-119h-533v119zM307 655v-520h697v-135h-840v1434h829v-136h-686v-507h635v-136h-635z" />
    <glyph glyph-name="emacron" unicode="&#x113;" horiz-adv-x="1196" 
d="M338 1307h532v-119h-532v119zM616 1049q230 0 367 -162q141 -159 141 -379q0 -10 -4 -64h-899q20 -155 131.5 -246.5t276.5 -91.5q114 0 199.5 47.5t129.5 127.5l119 -70q-69 -111 -186 -173.5t-264 -62.5q-242 0 -394 152q-151 151 -151 385q0 231 149 383
q151 154 385 154zM616 918q-159 0 -267 -95t-128 -248h764q-21 164 -125 252q-108 91 -244 91z" />
    <glyph glyph-name="Edotaccent" unicode="&#x116;" horiz-adv-x="1085" 
d="M659 1610q-32 -32 -79.5 -32t-79.5 32t-32 79.5t32 79.5t79.5 32t79.5 -32t32 -79.5t-32 -79.5zM307 655v-520h697v-135h-840v1434h829v-136h-686v-507h635v-136h-635z" />
    <glyph glyph-name="edotaccent" unicode="&#x117;" horiz-adv-x="1196" 
d="M684 1200q-32 -32 -80 -32t-80 32t-32 80t32 80t80 32t80 -32t32 -80t-32 -80zM616 1049q230 0 367 -162q141 -159 141 -379q0 -10 -4 -64h-899q20 -155 131.5 -246.5t276.5 -91.5q114 0 199.5 47.5t129.5 127.5l119 -70q-69 -111 -186 -173.5t-264 -62.5
q-242 0 -394 152q-151 151 -151 385q0 231 149 383q151 154 385 154zM616 918q-159 0 -267 -95t-128 -248h764q-21 164 -125 252q-108 91 -244 91z" />
    <glyph glyph-name="Eogonek" unicode="&#x118;" horiz-adv-x="1085" 
d="M1004 135v-135q-70 -64 -113 -133.5t-43 -120.5q0 -63 70 -63q42 0 86 18v-113q-58 -22 -121 -22q-78 0 -123 42.5t-45 112.5q0 135 147 279h-698v1434h829v-136h-686v-507h635v-136h-635v-520h697z" />
    <glyph glyph-name="eogonek" unicode="&#x119;" horiz-adv-x="1196" 
d="M616 1049q230 0 367 -162q141 -159 141 -379q0 -10 -4 -64h-899q20 -155 131.5 -246.5t276.5 -91.5q114 0 199.5 47.5t129.5 127.5l119 -70q-25 -43 -82 -100q-235 -253 -235 -365q0 -63 69 -63q42 0 86 18v-113q-58 -22 -120 -22q-78 0 -123 42.5t-45 112.5
q0 133 133 269q-58 -15 -133 -15q-242 0 -394 152q-151 151 -151 385q0 231 149 383q151 154 385 154zM616 918q-159 0 -267 -95t-128 -248h764q-21 164 -125 252q-108 91 -244 91z" />
    <glyph glyph-name="Ecaron" unicode="&#x11a;" horiz-adv-x="1085" 
d="M659 1577h-159l-217 266h153l144 -178l143 178h154zM307 655v-520h697v-135h-840v1434h829v-136h-686v-507h635v-136h-635z" />
    <glyph glyph-name="ecaron" unicode="&#x11b;" horiz-adv-x="1196" 
d="M684 1167h-160l-217 267h154l143 -179l144 179h153zM616 1049q230 0 367 -162q141 -159 141 -379q0 -10 -4 -64h-899q20 -155 131.5 -246.5t276.5 -91.5q114 0 199.5 47.5t129.5 127.5l119 -70q-69 -111 -186 -173.5t-264 -62.5q-242 0 -394 152q-151 151 -151 385
q0 231 149 383q151 154 385 154zM616 918q-159 0 -267 -95t-128 -248h764q-21 164 -125 252q-108 91 -244 91z" />
    <glyph glyph-name="Gbreve" unicode="&#x11e;" horiz-adv-x="1615" 
d="M803 1561q-131 0 -209 71t-78 195h131q0 -148 156 -148q155 0 155 148h132q0 -127 -76.5 -196.5t-210.5 -69.5zM817 682h717v-74q0 -265 -191 -450q-192 -183 -509 -183q-327 0 -539 215q-213 216 -213 527q0 310 213 526q212 215 539 215q195 0 364 -96
q166 -94 256 -256l-127 -74q-68 131 -201 209t-292 78q-271 0 -439 -174q-170 -176 -170 -428t170 -428q168 -174 439 -174q242 0 387 121q144 123 165 311h-569v135z" />
    <glyph glyph-name="gbreve" unicode="&#x11f;" 
d="M631 1151q-131 0 -209 71t-78 195h131q0 -147 156 -147q155 0 155 147h132q0 -127 -76.5 -196.5t-210.5 -69.5zM1024 823v201h135v-983q0 -221 -151 -348t-363 -127q-358 0 -485 250l119 67q91 -186 366 -186q176 0 277.5 92.5t101.5 251.5v160q-142 -226 -414 -226
q-218 0 -374 156q-154 157 -154 381t154 381q156 156 374 156q272 0 414 -226zM334 223q117 -117 287 -117q169 0 286 117q117 120 117 289q0 170 -117 287q-116 119 -286 119q-171 0 -287 -119q-117 -117 -117 -287q0 -169 117 -289z" />
    <glyph glyph-name="Gdotaccent" unicode="&#x120;" horiz-adv-x="1615" 
d="M883 1610q-32 -32 -80 -32t-80 32t-32 79.5t32 79.5t80 32t80 -32t32 -79.5t-32 -79.5zM817 682h717v-74q0 -265 -191 -450q-192 -183 -509 -183q-327 0 -539 215q-213 216 -213 527q0 310 213 526q212 215 539 215q195 0 364 -96q166 -94 256 -256l-127 -74
q-68 131 -201 209t-292 78q-271 0 -439 -174q-170 -176 -170 -428t170 -428q168 -174 439 -174q242 0 387 121q144 123 165 311h-569v135z" />
    <glyph glyph-name="gdotaccent" unicode="&#x121;" 
d="M711 1200q-32 -32 -80 -32t-80 32t-32 80t32 80t80 32t80 -32t32 -80t-32 -80zM1024 823v201h135v-983q0 -221 -151 -348t-363 -127q-358 0 -485 250l119 67q91 -186 366 -186q176 0 277.5 92.5t101.5 251.5v160q-142 -226 -414 -226q-218 0 -374 156q-154 157 -154 381
t154 381q156 156 374 156q272 0 414 -226zM334 223q117 -117 287 -117q169 0 286 117q117 120 117 289q0 170 -117 287q-116 119 -286 119q-171 0 -287 -119q-117 -117 -117 -287q0 -169 117 -289z" />
    <glyph glyph-name="Gcommaaccent" unicode="&#x122;" horiz-adv-x="1615" 
d="M817 682h717v-74q0 -265 -191 -450q-192 -183 -509 -183q-327 0 -539 215q-213 216 -213 527q0 310 213 526q212 215 539 215q195 0 364 -96q166 -94 256 -256l-127 -74q-68 131 -201 209t-292 78q-271 0 -439 -174q-170 -176 -170 -428t170 -428q168 -174 439 -174
q242 0 387 121q144 123 165 311h-569v135zM883 -492h-95l21 349h135z" />
    <glyph glyph-name="gcommaaccent" unicode="&#x123;" 
d="M612 1556h95l-21 -348h-135zM1024 823v201h135v-983q0 -221 -151 -348t-363 -127q-358 0 -485 250l119 67q91 -186 366 -186q176 0 277.5 92.5t101.5 251.5v160q-142 -226 -414 -226q-218 0 -374 156q-154 157 -154 381t154 381q156 156 374 156q272 0 414 -226zM334 223
q117 -117 287 -117q169 0 286 117q117 120 117 289q0 170 -117 287q-116 119 -286 119q-171 0 -287 -119q-117 -117 -117 -287q0 -169 117 -289z" />
    <glyph glyph-name="Hbar" unicode="&#x126;" horiz-adv-x="1495" 
d="M1280 1163h133v-114h-133v-1049h-143v670h-779v-670h-143v1049h-133v114h133v271h143v-271h779v271h143v-271zM358 805h779v244h-779v-244z" />
    <glyph glyph-name="hbar" unicode="&#x127;" horiz-adv-x="1163" 
d="M643 1049q185 0 293 -113.5t108 -306.5v-629h-135v629q0 137 -72.5 213t-205.5 76q-153 0 -242.5 -96t-89.5 -285v-537h-135v1180h-144v110h144v144h135v-144h295v-110h-295v-316q114 185 344 185z" />
    <glyph glyph-name="Itilde" unicode="&#x128;" horiz-adv-x="471" 
d="M164 0v1434h143v-1434h-143zM68 1597h-119q0 90 25.5 147.5t66.5 76.5t92.5 7.5t104.5 -52.5q37 -28 59.5 -43t45 -22.5t34.5 2t19 36.5t7 74h119q0 -90 -25 -147.5t-65.5 -76t-91.5 -7t-104 52.5q-51 38 -75.5 52t-47.5 15q-24 1 -34.5 -26.5t-10.5 -88.5z" />
    <glyph glyph-name="itilde" unicode="&#x129;" horiz-adv-x="421" 
d="M279 0h-136v1024h136v-1024zM72 1186h-101q0 121 36 182.5t90.5 59t115.5 -59.5q30 -29 49 -44.5t38 -23t29.5 2t16.5 37t6 75.5h99q0 -92 -20.5 -150.5t-54.5 -77.5t-77 -7.5t-88 53.5t-63.5 55.5t-38.5 14.5t-28.5 -26.5t-8.5 -90.5z" />
    <glyph glyph-name="Imacron" unicode="&#x12a;" horiz-adv-x="471" 
d="M502 1597h-533v119h533v-119zM164 0v1434h143v-1434h-143z" />
    <glyph glyph-name="imacron" unicode="&#x12b;" horiz-adv-x="421" 
d="M416 1188h-410v119h410v-119zM279 0h-136v1024h136v-1024z" />
    <glyph glyph-name="Iogonek" unicode="&#x12e;" horiz-adv-x="471" 
d="M285 -317q43 0 86 18v-113q-58 -22 -121 -22q-78 0 -123 42.5t-45 112.5q0 126 82 281v1432h143v-1434l-49 -90q-43 -93 -43 -164q0 -63 70 -63z" />
    <glyph glyph-name="iogonek" unicode="&#x12f;" horiz-adv-x="421" 
d="M281 1270q-29 -29 -70 -29t-70 29t-29 69.5t29 69.5t70 29t70 -29t29 -69.5t-29 -69.5zM264 -317q42 0 86 18v-113q-58 -22 -121 -22q-76 0 -122 51t-46 125q0 116 82 268v1014h136v-1024q-84 -137 -84 -233q0 -36 19.5 -60t49.5 -24z" />
    <glyph glyph-name="Idot" unicode="&#x130;" horiz-adv-x="471" 
d="M315 1610q-32 -32 -79.5 -32t-79.5 32t-32 79.5t32 79.5t79.5 32t79.5 -32t32 -79.5t-32 -79.5zM164 0v1434h143v-1434h-143z" />
    <glyph glyph-name="dotlessi" unicode="&#x131;" horiz-adv-x="421" 
d="M279 0h-136v1024h136v-1024z" />
    <glyph glyph-name="Kcommaaccent" unicode="&#x136;" horiz-adv-x="1187" 
d="M1147 1434l-688 -697l708 -737h-188l-672 694v-694h-143v1434h143v-656l651 656h189zM637 -492h-94l20 349h135z" />
    <glyph glyph-name="kcommaaccent" unicode="&#x137;" horiz-adv-x="1011" 
d="M950 1024l-528 -492l549 -532h-180l-512 494v-494h-136v1434h136v-863l487 453h184zM551 -492h-94l20 349h135z" />
    <glyph glyph-name="Lacute" unicode="&#x139;" horiz-adv-x="1003" 
d="M332 1843h164l-197 -266h-131zM307 1434v-1299h656v-135h-799v1434h143z" />
    <glyph glyph-name="lacute" unicode="&#x13a;" horiz-adv-x="421" 
d="M143 1577l164 266h164l-197 -266h-131zM143 0h136v1495h-136v-1495z" />
    <glyph glyph-name="Lcommaaccent" unicode="&#x13b;" horiz-adv-x="1003" 
d="M307 1434v-1299h656v-135h-799v1434h143zM592 -492h-94l20 349h135z" />
    <glyph glyph-name="lcommaaccent" unicode="&#x13c;" horiz-adv-x="421" 
d="M279 0h-136v1495h136v-1495zM219 -492h-94l20 349h136z" />
    <glyph glyph-name="Lcaron" unicode="&#x13d;" horiz-adv-x="1003" 
d="M307 1434v-1299h656v-135h-799v1434h143zM545 1434h135l-62 -349h-94z" />
    <glyph glyph-name="lcaron" unicode="&#x13e;" horiz-adv-x="557" 
d="M279 0h-136v1495h136v-1495zM516 1147h-94l20 348h136z" />
    <glyph glyph-name="Lslash" unicode="&#x141;" horiz-adv-x="1044" 
d="M348 586v-451h656v-135h-799v500l-123 -72v129l123 72v805h143v-719l348 205v-129z" />
    <glyph glyph-name="lslash" unicode="&#x142;" horiz-adv-x="491" 
d="M313 848l138 94v-129l-138 -94v-719h-135v627l-137 -95v130l137 94v739h135v-647z" />
    <glyph glyph-name="Nacute" unicode="&#x143;" horiz-adv-x="1392" 
d="M594 1577l164 266h164l-197 -266h-131zM1085 1434v-1168l-798 1168h-123v-1434h143v1167l799 -1167h123v1434h-144z" />
    <glyph glyph-name="nacute" unicode="&#x144;" horiz-adv-x="1142" 
d="M655 1434h164l-196 -267h-131zM623 1049q185 0 293 -113.5t108 -306.5v-629h-135v629q0 137 -73 213t-206 76q-153 0 -242 -96t-89 -285v-537h-136v1024h136v-160q114 185 344 185z" />
    <glyph glyph-name="Ncommaaccent" unicode="&#x145;" horiz-adv-x="1392" 
d="M1085 266v1168h144v-1434h-123l-799 1167v-1167h-143v1434h123zM705 -492h-95l21 349h135z" />
    <glyph glyph-name="ncommaaccent" unicode="&#x146;" horiz-adv-x="1142" 
d="M623 1049q185 0 293 -113.5t108 -306.5v-629h-135v629q0 137 -73 213t-206 76q-153 0 -242 -96t-89 -285v-537h-136v1024h136v-160q114 185 344 185zM608 -492h-94l21 349h135z" />
    <glyph glyph-name="Ncaron" unicode="&#x147;" horiz-adv-x="1392" 
d="M776 1577h-160l-217 266h154l143 -178l144 178h153zM1085 266v1168h144v-1434h-123l-799 1167v-1167h-143v1434h123z" />
    <glyph glyph-name="ncaron" unicode="&#x148;" horiz-adv-x="1142" 
d="M674 1167h-160l-217 267h154l143 -179l143 179h154zM623 1049q185 0 293 -113.5t108 -306.5v-629h-135v629q0 137 -73 213t-206 76q-153 0 -242 -96t-89 -285v-537h-136v1024h136v-160q114 185 344 185z" />
    <glyph glyph-name="Eng" unicode="&#x14a;" horiz-adv-x="1392" 
d="M1085 266v1168h144v-1434q0 -410 -430 -410v140q149 0 217.5 58.5t68.5 211.5v31l-778 1136v-1167h-143v1434h123z" />
    <glyph glyph-name="eng" unicode="&#x14b;" horiz-adv-x="1142" 
d="M623 1049q185 0 293 -113.5t108 -306.5v-711q0 -185 -96 -277t-273 -75v131q122 -12 178 39.5t56 181.5v711q0 137 -73 213t-206 76q-153 0 -242 -96t-89 -285v-537h-136v1024h136v-160q114 185 344 185z" />
    <glyph glyph-name="Omacron" unicode="&#x14c;" horiz-adv-x="1646" 
d="M1090 1597h-533v119h533v-119zM1350 190q-215 -215 -527 -215q-311 0 -526 215q-215 218 -215 527t215 524q214 217 526 217q313 0 527 -217q215 -215 215 -524t-215 -527zM397 289q171 -174 426 -174t426 174q172 175 172 428q0 251 -172 426q-173 176 -426 176
t-426 -176q-172 -175 -172 -426q0 -253 172 -428z" />
    <glyph glyph-name="omacron" unicode="&#x14d;" horiz-adv-x="1241" 
d="M887 1188h-533v119h533v-119zM1001 129q-157 -154 -380 -154q-226 0 -383 154q-156 156 -156 383q0 228 156 381q156 156 383 156q224 0 380 -156q158 -155 158 -381q0 -225 -158 -383zM334 223q117 -117 287 -117q169 0 286 117q117 120 117 289q0 170 -117 287
q-116 119 -286 119q-171 0 -287 -119q-117 -117 -117 -287q0 -169 117 -289z" />
    <glyph glyph-name="Ohungarumlaut" unicode="&#x150;" horiz-adv-x="1646" 
d="M557 1577l143 266h152l-156 -266h-139zM850 1577l164 266h151l-176 -266h-139zM1350 190q215 218 215 527t-215 524q-214 217 -527 217q-312 0 -526 -217q-215 -215 -215 -524t215 -527q215 -215 526 -215q312 0 527 215zM397 289q-172 175 -172 428q0 251 172 426
q173 176 426 176t426 -176q172 -175 172 -426q0 -253 -172 -428q-171 -174 -426 -174t-426 174z" />
    <glyph glyph-name="ohungarumlaut" unicode="&#x151;" horiz-adv-x="1241" 
d="M354 1167l144 267h151l-155 -267h-140zM647 1167l164 267h152l-177 -267h-139zM1001 129q158 158 158 383q0 226 -158 381q-156 156 -380 156q-227 0 -383 -156q-156 -153 -156 -381q0 -227 156 -383q157 -154 383 -154q223 0 380 154zM334 223q-117 120 -117 289
q0 170 117 287q116 119 287 119q170 0 286 -119q117 -117 117 -287q0 -169 -117 -289q-117 -117 -286 -117q-170 0 -287 117z" />
    <glyph glyph-name="OE" unicode="&#x152;" horiz-adv-x="1873" 
d="M1137 655v-520h655v-135h-799q-92 -25 -190 -25q-310 0 -516 215q-205 214 -205 527q0 312 205 526q206 215 516 215q101 0 190 -24h789v-136h-645v-507h614v-136h-614zM993 145v1143q-91 31 -190 31q-254 0 -416 -174t-162 -428t162 -428t416 -174q101 0 190 30z" />
    <glyph glyph-name="oe" unicode="&#x153;" horiz-adv-x="2138" 
d="M1563 1049q225 0 362 -162q141 -159 141 -379q0 -10 -4 -64h-899q20 -155 131.5 -246.5t276.5 -91.5q114 0 200 47.5t130 127.5l118 -70q-69 -111 -185 -173.5t-261 -62.5q-169 0 -295.5 80t-187.5 221q-62 -138 -186.5 -219.5t-282.5 -81.5q-231 0 -385 154t-154 383
t154 383t385 154q158 0 282.5 -81.5t188.5 -222.5q58 141 182.5 222.5t288.5 81.5zM621 106q169 0 286 117q117 120 117 289q0 170 -117 287q-116 119 -286 119q-177 0 -291 -117q-113 -116 -113 -289t113 -289q114 -117 291 -117zM1559 918q-159 0 -267.5 -95t-128.5 -248
h764q-21 164 -125 252q-108 91 -243 91z" />
    <glyph glyph-name="Racute" unicode="&#x154;" horiz-adv-x="1249" 
d="M696 1843h164l-196 -266h-132zM1208 0h-164l-335 573h-402v-573h-143v1434h573q176 0 303 -127t127 -303q0 -148 -88 -261q-82 -109 -221 -151zM737 1298h-430v-589h430q120 0 203 86q84 90 84 209q0 121 -84 208q-83 86 -203 86z" />
    <glyph glyph-name="racute" unicode="&#x155;" horiz-adv-x="643" 
d="M434 1434h164l-197 -267h-131zM279 1024v-170q94 186 323 186v-131q-147 0 -235 -85t-88 -255v-569h-136v1024h136z" />
    <glyph glyph-name="Rcommaaccent" unicode="&#x156;" horiz-adv-x="1249" 
d="M858 592l350 -592h-164l-335 573h-402v-573h-143v1434h573q176 0 303 -127t127 -303q0 -148 -88 -261q-82 -109 -221 -151zM737 1298h-430v-589h430q120 0 203 86q84 90 84 209q0 121 -84 208q-83 86 -203 86zM684 -492h-94l20 349h135z" />
    <glyph glyph-name="rcommaaccent" unicode="&#x157;" horiz-adv-x="643" 
d="M279 1024v-170q94 186 323 186v-131q-147 0 -235 -85t-88 -255v-569h-136v1024h136zM219 -492h-94l20 349h136z" />
    <glyph glyph-name="Rcaron" unicode="&#x158;" horiz-adv-x="1249" 
d="M715 1577h-160l-217 266h154l143 -178l143 178h154zM1208 0h-164l-335 573h-402v-573h-143v1434h573q176 0 303 -127t127 -303q0 -148 -88 -261q-82 -109 -221 -151zM737 1298h-430v-589h430q120 0 203 86q84 90 84 209q0 121 -84 208q-83 86 -203 86z" />
    <glyph glyph-name="rcaron" unicode="&#x159;" horiz-adv-x="643" 
d="M453 1167h-160l-217 267h153l144 -179l143 179h154zM279 1024v-170q94 186 323 186v-131q-147 0 -235 -85t-88 -255v-569h-136v1024h136z" />
    <glyph glyph-name="Sacute" unicode="&#x15a;" horiz-adv-x="1179" 
d="M475 1577l164 266h164l-197 -266h-131zM614 -25q218 0 351 109q133 112 133 293q0 103 -51 184q-29 55 -138 121q-28 20 -96 45q-72 30 -98 37l-111 39q-171 56 -244 108t-73 160q0 116 81 182t216 66q253 0 352 -238l121 68q-62 140 -186.5 224.5t-286.5 84.5
q-190 0 -314 -106q-127 -106 -127 -287q0 -186 164 -285q65 -43 295 -118q190 -62 270 -119q82 -58 82 -170q0 -118 -90 -188t-248 -70q-162 0 -267 73.5t-144 208.5l-123 -71q56 -165 196 -258t336 -93z" />
    <glyph glyph-name="sacute" unicode="&#x15b;" horiz-adv-x="929" 
d="M530 1434h164l-196 -267h-131zM250 756q0 -118 211 -174q158 -40 222 -70q165 -79 165 -242q0 -130 -105 -213q-101 -82 -266 -82q-144 0 -248.5 64.5t-146.5 171.5l115 68q29 -80 103.5 -126.5t176.5 -46.5q105 0 170.5 41.5t65.5 122.5q0 118 -211 174q-158 40 -222 70
q-165 79 -165 242q0 127 98 209q104 84 252 84q124 0 218.5 -56t139.5 -153l-112 -66q-59 144 -246 144q-92 0 -153.5 -43.5t-61.5 -118.5z" />
    <glyph glyph-name="Scedilla" unicode="&#x15e;" horiz-adv-x="1179" 
d="M1098 377q0 -176 -122.5 -283.5t-326.5 -118.5v-67q89 -18 140 -61t51 -105q0 -208 -420 -184v110q301 -24 301 74q0 78 -191 84v154q-166 20 -282.5 110t-165.5 236l123 71q39 -135 144 -208.5t267 -73.5q158 0 248 70t90 188q0 112 -82 170q-80 57 -270 119
q-230 75 -295 118q-164 99 -164 285q0 181 127 287q124 106 314 106q162 0 286.5 -84.5t186.5 -224.5l-121 -68q-99 238 -352 238q-135 0 -216 -66t-81 -182q0 -108 73 -160t244 -108l111 -39q26 -7 98 -37q68 -25 96 -45q109 -66 138 -121q51 -81 51 -184z" />
    <glyph glyph-name="scedilla" unicode="&#x15f;" horiz-adv-x="929" 
d="M848 270q0 -118 -88.5 -198.5t-231.5 -94.5v-69q89 -18 140 -61t51 -105q0 -208 -420 -184v110q301 -24 301 74q0 78 -190 84v154q-120 13 -206 75.5t-122 155.5l115 68q29 -80 103.5 -126.5t176.5 -46.5q105 0 170.5 41.5t65.5 122.5q0 118 -211 174q-158 40 -222 70
q-165 79 -165 242q0 127 98 209q104 84 252 84q124 0 218.5 -56t139.5 -153l-112 -66q-59 144 -246 144q-92 0 -153.5 -43.5t-61.5 -118.5q0 -118 211 -174q158 -40 222 -70q165 -79 165 -242z" />
    <glyph glyph-name="Scaron" unicode="&#x160;" horiz-adv-x="1179" 
d="M657 1577h-159l-217 266h153l144 -178l143 178h153zM604 803l111 -39q26 -7 98 -37q68 -25 96 -45q109 -66 138 -121q51 -81 51 -184q0 -181 -133 -293q-133 -109 -351 -109q-196 0 -336 93t-196 258l123 71q39 -135 144 -208.5t267 -73.5q158 0 248 70t90 188
q0 112 -82 170q-80 57 -270 119q-230 75 -295 118q-164 99 -164 285q0 181 127 287q124 106 314 106q162 0 286.5 -84.5t186.5 -224.5l-121 -68q-99 238 -352 238q-135 0 -216 -66t-81 -182q0 -108 73 -160t244 -108z" />
    <glyph glyph-name="scaron" unicode="&#x161;" horiz-adv-x="929" 
d="M549 1167h-160l-217 267h154l143 -179l143 179h154zM250 756q0 -118 211 -174q158 -40 222 -70q165 -79 165 -242q0 -130 -105 -213q-101 -82 -266 -82q-144 0 -248.5 64.5t-146.5 171.5l115 68q29 -80 103.5 -126.5t176.5 -46.5q105 0 170.5 41.5t65.5 122.5
q0 118 -211 174q-158 40 -222 70q-165 79 -165 242q0 127 98 209q104 84 252 84q124 0 218.5 -56t139.5 -153l-112 -66q-59 144 -246 144q-92 0 -153.5 -43.5t-61.5 -118.5z" />
    <glyph glyph-name="uni0162" unicode="&#x162;" horiz-adv-x="1105" 
d="M41 1434h1024v-136h-440v-1298h-144v1298h-440v136zM561 -492h-94l20 349h136z" />
    <glyph glyph-name="uni0163" unicode="&#x163;" horiz-adv-x="768" 
d="M686 1024v-131h-295v-621q0 -84 32.5 -119.5t98.5 -36.5t164 3v-119q-219 -33 -324.5 31.5t-105.5 240.5v621h-215v131h215v246l135 41v-287h295zM492 -492h-95l21 349h135z" />
    <glyph glyph-name="Tcaron" unicode="&#x164;" horiz-adv-x="1105" 
d="M633 1577h-160l-217 266h154l143 -178l143 178h154zM41 1434h1024v-136h-440v-1298h-144v1298h-440v136z" />
    <glyph glyph-name="tcaron" unicode="&#x165;" horiz-adv-x="768" 
d="M524 1464h135l-61 -327h-94zM686 1024v-131h-295v-621q0 -84 32.5 -119.5t98.5 -36.5t164 3v-119q-219 -33 -324.5 31.5t-105.5 240.5v621h-215v131h215v246l135 41v-287h295z" />
    <glyph glyph-name="Tbar" unicode="&#x166;" horiz-adv-x="1105" 
d="M1065 1434v-136h-440v-516h297v-131h-297v-651h-144v651h-297v131h297v516h-440v136h1024z" />
    <glyph glyph-name="tbar" unicode="&#x167;" horiz-adv-x="768" 
d="M686 1024v-131h-295v-305h199v-111h-199v-205q0 -84 32.5 -119.5t98.5 -36.5t164 3v-119q-219 -33 -324.5 31.5t-105.5 240.5v205h-137v111h137v305h-215v131h215v246l135 41v-287h295z" />
    <glyph glyph-name="Utilde" unicode="&#x168;" horiz-adv-x="1351" 
d="M143 487v947h144v-947q0 -173 103 -272.5t286 -99.5t286 99.5t103 272.5v947h143v-947q0 -234 -147 -372q-149 -140 -385 -140t-385 140q-148 139 -148 372zM508 1597h-119q0 90 25.5 147.5t66.5 76.5t92.5 7.5t104.5 -52.5q37 -28 59.5 -43t45.5 -22.5t34.5 2t19 36.5
t7.5 74h119q0 -72 -16 -124t-44 -77.5t-65 -32t-78.5 8t-83.5 47.5q-51 38 -75.5 52t-47.5 15q-24 1 -34.5 -26.5t-10.5 -88.5z" />
    <glyph glyph-name="utilde" unicode="&#x169;" horiz-adv-x="1142" 
d="M864 487v537h135v-1024h-135v160q-114 -185 -344 -185q-185 0 -293 113.5t-108 306.5v629h135v-629q0 -137 72.5 -213t205.5 -76q153 0 242.5 96t89.5 285zM387 1188h-119q0 90 25.5 147.5t66.5 76t92.5 7t104.5 -52.5q37 -28 59.5 -43t45.5 -22.5t34.5 2t19 36.5t7.5 74
h119q0 -72 -16 -124t-44 -77.5t-65 -32t-78.5 8t-83.5 47.5q-52 39 -76 53t-47 15q-24 1 -34.5 -26.5t-10.5 -88.5z" />
    <glyph glyph-name="Umacron" unicode="&#x16a;" horiz-adv-x="1351" 
d="M942 1597h-532v119h532v-119zM143 487v947h144v-947q0 -173 103 -272.5t286 -99.5t286 99.5t103 272.5v947h143v-947q0 -234 -147 -372q-149 -140 -385 -140t-385 140q-148 139 -148 372z" />
    <glyph glyph-name="umacron" unicode="&#x16b;" horiz-adv-x="1142" 
d="M289 1307h532v-119h-532v119zM864 487v537h135v-1024h-135v160q-114 -185 -344 -185q-185 0 -293 113.5t-108 306.5v629h135v-629q0 -137 72.5 -213t205.5 -76q153 0 242.5 96t89.5 285z" />
    <glyph glyph-name="Uring" unicode="&#x16e;" horiz-adv-x="1351" 
d="M831 1532q-57 -57 -155 -57t-158 57q-59 59 -59 147q0 87 59 146q62 59 158 59t155 -59q62 -59 62 -146q0 -88 -62 -147zM676 1579q66 -6 94 47.5t0 106.5t-94 47q-64 6 -91 -47t0 -106.5t91 -47.5zM143 487v947h144v-947q0 -173 103 -272.5t286 -99.5t286 99.5
t103 272.5v947h143v-947q0 -234 -147 -372q-149 -140 -385 -140t-385 140q-148 139 -148 372z" />
    <glyph glyph-name="uring" unicode="&#x16f;" horiz-adv-x="1142" 
d="M711 1184q-58 -58 -156 -58q-97 0 -158 58q-59 59 -59 147q0 87 59 146q62 59 158 59q97 0 156 -59q61 -58 61 -146q0 -89 -61 -147zM555 1432q-64 6 -91 -47t0 -106.5t91 -47.5q66 -6 94 47.5t0 106.5t-94 47zM864 487v537h135v-1024h-135v160q-114 -185 -344 -185
q-185 0 -293 113.5t-108 306.5v629h135v-629q0 -137 72.5 -213t205.5 -76q153 0 242.5 96t89.5 285z" />
    <glyph glyph-name="Uhungarumlaut" unicode="&#x170;" horiz-adv-x="1351" 
d="M410 1577l143 266h152l-156 -266h-139zM702 1577l164 266h152l-176 -266h-140zM143 487q0 -233 148 -372q149 -140 385 -140t385 140q147 138 147 372v947h-143v-947q0 -173 -103 -272.5t-286 -99.5t-286 99.5t-103 272.5v947h-144v-947z" />
    <glyph glyph-name="uhungarumlaut" unicode="&#x171;" horiz-adv-x="1142" 
d="M432 1434h152l-156 -267h-139zM897 1434l-176 -267h-139l163 267h152zM864 487v537h135v-1024h-135v160q-114 -185 -344 -185q-185 0 -293 113.5t-108 306.5v629h135v-629q0 -137 72.5 -213t205.5 -76q153 0 242.5 96t89.5 285z" />
    <glyph glyph-name="Uogonek" unicode="&#x172;" horiz-adv-x="1351" 
d="M1065 487v947h143v-947q0 -267 -188 -405q-137 -127 -189.5 -199t-52.5 -137q0 -63 70 -63q42 0 86 18v-113q-58 -22 -121 -22q-78 0 -123 42.5t-45 112.5q0 127 131 261q-58 -7 -100 -7q-236 0 -385 140q-148 139 -148 372v947h144v-947q0 -173 103 -272.5t286 -99.5
t286 99.5t103 272.5z" />
    <glyph glyph-name="uogonek" unicode="&#x173;" horiz-adv-x="1142" 
d="M999 1024v-1024q-69 -63 -112 -133t-43 -121q0 -63 69 -63q43 0 86 18v-113q-58 -22 -120 -22q-78 0 -123 42.5t-45 112.5q0 123 153 302v137q-114 -185 -344 -185q-185 0 -293 113.5t-108 306.5v629h135v-629q0 -137 72.5 -213t205.5 -76q153 0 242.5 96t89.5 285v537
h135z" />
    <glyph glyph-name="Wcircumflex" unicode="&#x174;" horiz-adv-x="2048" 
d="M1167 1577l-143 178l-143 -178h-154l217 266h160l217 -266h-154zM1481 195l354 1239h152l-416 -1434h-172l-375 1245l-375 -1245h-172l-416 1434h152l354 -1239l373 1239h168z" />
    <glyph glyph-name="wcircumflex" unicode="&#x175;" horiz-adv-x="1576" 
d="M932 1167l-144 179l-143 -179h-153l217 267h159l217 -267h-153zM1124 174l252 850h140l-316 -1024h-147l-265 825l-264 -825h-147l-316 1024h140l252 -850l268 850h135z" />
    <glyph glyph-name="Ycircumflex" unicode="&#x176;" horiz-adv-x="1218" 
d="M745 1577l-143 178l-143 -178h-154l217 266h160l217 -266h-154zM1036 1434h162l-518 -846v-588h-143v592l-517 842h162l428 -703z" />
    <glyph glyph-name="ycircumflex" unicode="&#x177;" horiz-adv-x="1044" 
d="M662 1167l-144 179l-143 -179h-154l217 267h160l217 -267h-153zM549 166l332 858h143l-438 -1118q-61 -155 -171 -240.5t-243 -75.5v127q186 -21 281 213l26 64l-459 1030h144z" />
    <glyph glyph-name="Ydieresis" unicode="&#x178;" horiz-adv-x="1218" 
d="M473 1614q-26 -26 -65.5 -26t-65.5 26t-26 65.5t26 65.5t65.5 26t65.5 -26t26 -65.5t-26 -65.5zM862 1614q-26 -26 -65.5 -26t-65.5 26t-26 65.5t26 65.5t65.5 26t65.5 -26t26 -65.5t-26 -65.5zM1036 1434h162l-518 -846v-588h-143v592l-517 842h162l428 -703z" />
    <glyph glyph-name="Zacute" unicode="&#x179;" horiz-adv-x="1064" 
d="M604 1843h164l-197 -266h-131zM983 1298l-741 -1163h762v-135h-922v135l741 1163h-721v136h881v-136z" />
    <glyph glyph-name="zacute" unicode="&#x17a;" horiz-adv-x="962" 
d="M557 1434h164l-197 -267h-131zM860 934l-569 -803h590v-131h-779v90l570 803h-549v131h737v-90z" />
    <glyph glyph-name="Zdotaccent" unicode="&#x17b;" horiz-adv-x="1064" 
d="M623 1610q-32 -32 -80 -32t-80 32t-32 79.5t32 79.5t80 32t80 -32t32 -79.5t-32 -79.5zM983 1298l-741 -1163h762v-135h-922v135l741 1163h-721v136h881v-136z" />
    <glyph glyph-name="zdotaccent" unicode="&#x17c;" horiz-adv-x="962" 
d="M575 1200q-32 -32 -79.5 -32t-79.5 32t-32 80t32 80t79.5 32t79.5 -32t32 -80t-32 -80zM860 934l-569 -803h590v-131h-779v90l570 803h-549v131h737v-90z" />
    <glyph glyph-name="Zcaron" unicode="&#x17d;" horiz-adv-x="1064" 
d="M623 1577h-160l-217 266h153l144 -178l143 178h154zM983 1298l-741 -1163h762v-135h-922v135l741 1163h-721v136h881v-136z" />
    <glyph glyph-name="zcaron" unicode="&#x17e;" horiz-adv-x="962" 
d="M575 1167h-159l-217 267h153l144 -179l143 179h154zM860 934l-569 -803h590v-131h-779v90l570 803h-549v131h737v-90z" />
    <glyph glyph-name="florin" unicode="&#x192;" horiz-adv-x="899" 
d="M899 1440v-131q-110 40 -181.5 2t-88.5 -142l-66 -385h236v-131h-258l-135 -794q-30 -178 -139.5 -248.5t-266.5 -22.5v131q110 -40 181.5 -2t88.5 142l136 794h-224v131h246l66 385q30 178 139 248.5t266 22.5z" />
    <glyph glyph-name="Ohorn" unicode="&#x1a0;" horiz-adv-x="1646" 
d="M1350 190q-215 -215 -527 -215q-311 0 -526 215q-215 218 -215 527t215 524q214 217 526 217q105 0 199 -24h137q71 0 95 32t24 111v10h125v-10q0 -210 -148 -254q39 -29 95 -82q215 -215 215 -524t-215 -527zM397 289q171 -174 426 -174t426 174q172 175 172 428
q0 251 -172 426q-173 176 -426 176t-426 -176q-172 -175 -172 -426q0 -253 172 -428z" />
    <glyph glyph-name="ohorn" unicode="&#x1a1;" horiz-adv-x="1241" 
d="M1001 129q-157 -154 -380 -154q-226 0 -383 154q-156 156 -156 383q0 228 156 381q156 156 383 156q87 0 167 -25h84q71 0 95 32t24 111v11h125v-11q0 -205 -139 -252q4 -4 12 -11t12 -11q158 -155 158 -381q0 -225 -158 -383zM334 223q117 -117 287 -117q169 0 286 117
q117 120 117 289q0 170 -117 287q-116 119 -286 119q-171 0 -287 -119q-117 -117 -117 -287q0 -169 117 -289z" />
    <glyph glyph-name="Uhorn" unicode="&#x1af;" horiz-adv-x="1351" 
d="M143 487v947h144v-947q0 -173 103 -272.5t286 -99.5t286 99.5t103 272.5v947h76q71 0 95 32t24 111v10h124v-10q0 -115 -42 -180t-134 -82v-828q0 -234 -147 -372q-149 -140 -385 -140t-385 140q-148 139 -148 372z" />
    <glyph glyph-name="uhorn" unicode="&#x1b0;" horiz-adv-x="1142" 
d="M864 487v537h70q71 0 95 32t24 111v11h125v-11q0 -234 -179 -262v-905h-135v160q-114 -185 -344 -185q-185 0 -293 113.5t-108 306.5v629h135v-629q0 -137 72.5 -213t205.5 -76q153 0 242.5 96t89.5 285z" />
    <glyph glyph-name="Scommaaccent" unicode="&#x218;" horiz-adv-x="1179" 
d="M614 -25q-196 0 -336 93t-196 258l123 71q39 -135 144 -208.5t267 -73.5q158 0 248 70t90 188q0 112 -82 170q-80 57 -270 119q-230 75 -295 118q-164 99 -164 285q0 181 127 287q124 106 314 106q162 0 286.5 -84.5t186.5 -224.5l-121 -68q-99 238 -352 238
q-135 0 -216 -66t-81 -182q0 -108 73 -160t244 -108l111 -39q26 -7 98 -37q68 -25 96 -45q109 -66 138 -121q51 -81 51 -184q0 -181 -133 -293q-133 -109 -351 -109zM633 -492h-94l20 349h135z" />
    <glyph glyph-name="scommaaccent" unicode="&#x219;" horiz-adv-x="929" 
d="M250 756q0 -118 211 -174q158 -40 222 -70q165 -79 165 -242q0 -130 -105 -213q-101 -82 -266 -82q-144 0 -248.5 64.5t-146.5 171.5l115 68q29 -80 103.5 -126.5t176.5 -46.5q105 0 170.5 41.5t65.5 122.5q0 118 -211 174q-158 40 -222 70q-165 79 -165 242
q0 127 98 209q104 84 252 84q124 0 218.5 -56t139.5 -153l-112 -66q-59 144 -246 144q-92 0 -153.5 -43.5t-61.5 -118.5zM512 -492h-94l20 349h135z" />
    <glyph glyph-name="uni021A" unicode="&#x21a;" horiz-adv-x="1105" 
d="M41 1434h1024v-136h-440v-1298h-144v1298h-440v136zM561 -492h-94l20 349h136z" />
    <glyph glyph-name="uni021B" unicode="&#x21b;" horiz-adv-x="768" 
d="M686 1024v-131h-295v-621q0 -84 32.5 -119.5t98.5 -36.5t164 3v-119q-219 -33 -324.5 31.5t-105.5 240.5v621h-215v131h215v246l135 41v-287h295zM492 -492h-95l21 349h135z" />
    <glyph glyph-name="circumflex" unicode="&#x2c6;" horiz-adv-x="675" 
d="M418 1434l217 -267h-154l-143 179l-143 -179h-154l217 267h160z" />
    <glyph glyph-name="caron" unicode="&#x2c7;" horiz-adv-x="675" 
d="M338 1255l143 179h154l-217 -267h-160l-217 267h154z" />
    <glyph glyph-name="breve" unicode="&#x2d8;" horiz-adv-x="655" 
d="M328 1151q-131 0 -209 71t-78 195h131q0 -147 156 -147q155 0 155 147h131q0 -127 -76 -196.5t-210 -69.5z" />
    <glyph glyph-name="dotaccent" unicode="&#x2d9;" horiz-adv-x="307" 
d="M233 1200q-32 -32 -79.5 -32t-79.5 32t-32 80t32 80t79.5 32t79.5 -32t32 -80t-32 -80z" />
    <glyph glyph-name="ring" unicode="&#x2da;" horiz-adv-x="516" 
d="M414 1184q-58 -58 -156 -58q-97 0 -158 58q-59 59 -59 147q0 87 59 146q62 59 158 59q97 0 156 -59q61 -58 61 -146q0 -89 -61 -147zM258 1231q66 -6 94 47.5t0 106.5t-94 47q-64 6 -91 -47t0 -106.5t91 -47.5z" />
    <glyph glyph-name="ogonek" unicode="&#x2db;" horiz-adv-x="370" 
d="M209 -434q-78 0 -123 42.5t-45 112.5q0 135 147 279h142q-70 -64 -113 -133.5t-43 -120.5q0 -63 70 -63q43 0 86 18v-113q-58 -22 -121 -22z" />
    <glyph glyph-name="tilde" unicode="&#x2dc;" horiz-adv-x="655" 
d="M160 1188h-119q0 90 25.5 147.5t66.5 76t92.5 7t104.5 -52.5q37 -28 59.5 -43t45.5 -22.5t34.5 2t19 36.5t7.5 74h118q0 -90 -25 -147.5t-65.5 -76t-91.5 -7t-104 52.5q-52 39 -76 53t-47 15q-24 1 -34.5 -26.5t-10.5 -88.5z" />
    <glyph glyph-name="hungarumlaut" unicode="&#x2dd;" horiz-adv-x="690" 
d="M41 1167l143 267h152l-156 -267h-139zM334 1167l164 267h151l-176 -267h-139z" />
    <glyph glyph-name="gravecomb" unicode="&#x300;" horiz-adv-x="0" 
d="M-41 1167h-131l-197 267h164z" />
    <glyph glyph-name="acutecomb" unicode="&#x301;" horiz-adv-x="0" 
d="M-369 1167l164 267h164l-197 -267h-131z" />
    <glyph glyph-name="uni0302" unicode="&#x302;" horiz-adv-x="0" 
d="M-258 1434l217 -267h-154l-143 179l-143 -179h-154l217 267h160z" />
    <glyph glyph-name="tildecomb" unicode="&#x303;" horiz-adv-x="0" 
d="M-496 1188h-118q0 72 16.5 124t44.5 77.5t64.5 32t78.5 -8t84 -47.5q37 -28 59.5 -43t45.5 -22.5t34.5 2t19 36.5t7.5 74h119q0 -72 -16 -124t-44 -77.5t-65 -32t-78.5 8t-83.5 47.5q-52 39 -76 53t-47 15q-24 1 -34.5 -26.5t-10.5 -88.5z" />
    <glyph glyph-name="uni0304" unicode="&#x304;" horiz-adv-x="0" 
d="M-41 1188h-532v119h532v-119z" />
    <glyph glyph-name="uni0306" unicode="&#x306;" horiz-adv-x="0" 
d="M-328 1151q-131 0 -208.5 71t-77.5 195h131q0 -147 155 -147q156 0 156 147h131q0 -127 -76.5 -196.5t-210.5 -69.5z" />
    <glyph glyph-name="uni0307" unicode="&#x307;" horiz-adv-x="0" 
d="M-74 1200q-32 -32 -79.5 -32t-79.5 32t-32 80t32 80t79.5 32t79.5 -32t32 -80t-32 -80z" />
    <glyph glyph-name="uni0308" unicode="&#x308;" horiz-adv-x="0" 
d="M-457 1204q-26 -26 -65.5 -26t-65.5 26t-26 65.5t26 65.5t65.5 26t65.5 -26t26 -65.5t-26 -65.5zM-68 1204q-26 -26 -65.5 -26t-65.5 26t-26 65.5t26 65.5t65.5 26t65.5 -26t26 -65.5t-26 -65.5z" />
    <glyph glyph-name="uni030A" unicode="&#x30a;" horiz-adv-x="0" 
d="M-100 1184q-61 -58 -158 -58q-98 0 -156 58q-61 58 -61 147q0 88 61 146q59 59 156 59q96 0 158 -59q59 -59 59 -146q0 -88 -59 -147zM-258 1231q66 -6 94 47.5t0 106.5t-94 47q-64 6 -91 -47t0 -106.5t91 -47.5z" />
    <glyph glyph-name="uni030B" unicode="&#x30b;" horiz-adv-x="0" 
d="M-649 1167l143 267h152l-156 -267h-139zM-356 1167l163 267h152l-176 -267h-139z" />
    <glyph glyph-name="uni030C" unicode="&#x30c;" horiz-adv-x="0" 
d="M-338 1255l143 179h154l-217 -267h-160l-217 267h154z" />
    <glyph glyph-name="uni0312" unicode="&#x312;" horiz-adv-x="0" 
d="M-135 1966h94l-20 -348h-136z" />
    <glyph glyph-name="uni0326" unicode="&#x326;" horiz-adv-x="0" 
d="M-102 -492h-95l21 349h135z" />
    <glyph glyph-name="uni0327" unicode="&#x327;" horiz-adv-x="0" 
d="M-231 0v-92q89 -18 139.5 -61t50.5 -105q0 -208 -420 -184v110q301 -24 301 74q0 78 -190 84v174h119z" />
    <glyph glyph-name="uni0328" unicode="&#x328;" horiz-adv-x="0" 
d="M-162 -434q-78 0 -123 42.5t-45 112.5q0 134 148 279h141q-70 -64 -113 -133.5t-43 -120.5q0 -63 70 -63q43 0 86 18v-113q-58 -22 -121 -22z" />
    <glyph glyph-name="uni0394" unicode="&#x394;" horiz-adv-x="1290" 
d="M571 1434h148l551 -1434h-1250zM645 1255l-422 -1120h844z" />
    <glyph glyph-name="uni03A9" unicode="&#x3a9;" horiz-adv-x="1646" 
d="M1565 717q0 -182 -83 -335.5t-227 -246.5h285v-135h-559v135q195 53 317 211q123 164 123 371q0 251 -172 426q-173 176 -426 176t-426 -176q-172 -175 -172 -426q0 -206 121 -371q122 -158 320 -211v-135h-560v135h285q-147 92 -228 245t-81 337q0 309 215 524
q214 217 526 217q313 0 527 -217q215 -215 215 -524z" />
    <glyph glyph-name="pi" unicode="&#x3c0;" horiz-adv-x="1331" 
d="M61 1024h1209v-131h-170v-893h-135v893h-590v-893h-135v893h-179v131z" />
    <glyph glyph-name="uni0401" unicode="&#x401;" horiz-adv-x="1085" 
d="M451 1614q-26 -26 -66 -26t-66 26t-26 65.5t26 65.5t66 26t66 -26t26 -65.5t-26 -65.5zM840 1614q-26 -26 -65.5 -26t-65.5 26t-26 65.5t26 65.5t65.5 26t65.5 -26t26 -65.5t-26 -65.5zM307 655v-520h697v-135h-840v1434h829v-136h-686v-507h635v-136h-635z" />
    <glyph glyph-name="uni0402" unicode="&#x402;" horiz-adv-x="1429" 
d="M909 967q176 0 281.5 -102t105.5 -287v-242q0 -185 -95.5 -277t-272.5 -75v131q119 -12 172 39.5t53 181.5v242q0 258 -242 258q-170 0 -327 -68v-768h-144v1298h-399v136h1003v-136h-460v-401q143 70 325 70z" />
    <glyph glyph-name="uni0403" unicode="&#x403;" horiz-adv-x="1003" 
d="M627 1841h164l-197 -266h-131zM164 1434h799v-136h-656v-1298h-143v1434z" />
    <glyph glyph-name="uni0404" unicode="&#x404;" horiz-adv-x="1515" 
d="M823 115q159 0 292.5 77.5t201.5 208.5l127 -71q-88 -162 -256 -258.5t-365 -96.5q-324 0 -534 213q-207 216 -207 529t207 526q209 215 534 215q197 0 363.5 -95t257.5 -257l-127 -74q-68 131 -201.5 209t-292.5 78q-243 0 -409 -152q-164 -150 -185 -383h785v-135h-785
q21 -233 185 -383q165 -151 409 -151z" />
    <glyph glyph-name="uni0405" unicode="&#x405;" horiz-adv-x="1179" 
d="M614 -25q-196 0 -336 93t-196 258l123 71q39 -135 144 -208.5t267 -73.5q158 0 248 70t90 188q0 112 -82 170q-80 57 -270 119q-230 75 -295 118q-164 99 -164 285q0 181 127 287q124 106 314 106q162 0 286.5 -84.5t186.5 -224.5l-121 -68q-99 238 -352 238
q-135 0 -216 -66t-81 -182q0 -108 73 -160t244 -108l111 -39q26 -7 98 -37q68 -25 96 -45q109 -66 138 -121q51 -81 51 -184q0 -181 -133 -293q-133 -109 -351 -109z" />
    <glyph glyph-name="uni0406" unicode="&#x406;" horiz-adv-x="471" 
d="M164 0v1434h143v-1434h-143z" />
    <glyph glyph-name="uni0407" unicode="&#x407;" horiz-adv-x="471" 
d="M106 1614q-26 -26 -65.5 -26t-65.5 26t-26 65.5t26 65.5t65.5 26t65.5 -26t26 -65.5t-26 -65.5zM496 1614q-26 -26 -65.5 -26t-65.5 26t-26 65.5t26 65.5t65.5 26t65.5 -26t26 -65.5t-26 -65.5zM164 0v1434h143v-1434h-143z" />
    <glyph glyph-name="uni0408" unicode="&#x408;" horiz-adv-x="1132" 
d="M518 -25q-153 0 -269.5 63.5t-166.5 182.5l121 72q67 -178 315 -178q154 0 241 73.5t87 217.5v1028h143v-1028q0 -209 -135 -320q-132 -111 -336 -111z" />
    <glyph glyph-name="uni0409" unicode="&#x409;" horiz-adv-x="2037" 
d="M1198 819h328q180 0 305 -119q125 -116 125 -290q0 -177 -125 -293q-126 -117 -305 -117h-471v1298h-582v-665q0 -379 -113 -516q-110 -137 -329 -119v127q149 -21 223 94q76 113 76 418v797h868v-615zM1198 135h328q121 0 203 76q83 77 83 199q0 119 -83 196
q-84 78 -203 78h-328v-549z" />
    <glyph glyph-name="uni040A" unicode="&#x40a;" horiz-adv-x="2007" 
d="M1167 819h328q180 0 305 -119q125 -116 125 -290q0 -177 -125 -293q-126 -117 -305 -117h-471v684h-717v-684h-143v1434h143v-615h717v615h143v-615zM1167 135h328q121 0 203 76q84 78 84 199q0 118 -84 196t-203 78h-328v-549z" />
    <glyph glyph-name="uni040B" unicode="&#x40b;" horiz-adv-x="1439" 
d="M909 967q176 0 281.5 -102t105.5 -287v-578h-143v578q0 258 -242 258q-170 0 -327 -68v-768h-144v1298h-399v136h1003v-136h-460v-401q143 70 325 70z" />
    <glyph glyph-name="uni040C" unicode="&#x40c;" horiz-adv-x="1187" 
d="M647 1841h164l-197 -266h-131zM459 737l708 -737h-188l-672 694v-694h-143v1434h143v-656l651 656h189z" />
    <glyph glyph-name="uni040E" unicode="&#x40e;" horiz-adv-x="1167" 
d="M330 1714h532v-119h-532v119zM623 553l376 881h148l-477 -1121q-72 -172 -182.5 -247.5t-274.5 -65.5v131q116 -12 190 34t123 161l29 67l-494 1041h148z" />
    <glyph glyph-name="uni040F" unicode="&#x40f;" horiz-adv-x="1351" 
d="M1044 135v1299h144v-1434h-440v-274h-144v274h-440v1434h143v-1299h737z" />
    <glyph glyph-name="uni0410" unicode="&#x410;" horiz-adv-x="1290" 
d="M1270 0h-152l-133 352h-680l-133 -352h-152l551 1434h148zM645 1255l-289 -768h578z" />
    <glyph glyph-name="uni0411" unicode="&#x411;" horiz-adv-x="1198" 
d="M307 860h389q176 0 303 -127t127 -303q0 -178 -127 -305q-125 -125 -303 -125h-532v1434h840v-136h-697v-438zM307 135h389q120 0 203 86q84 87 84 209q0 120 -84 207q-82 88 -203 88h-389v-590z" />
    <glyph glyph-name="uni0412" unicode="&#x412;" horiz-adv-x="1269" 
d="M958 743q105 -45 167.5 -136.5t62.5 -207.5q0 -165 -117 -282t-283 -117h-624v1434h577q158 0 273 -115q112 -112 112 -270q0 -202 -168 -306zM741 1298h-434v-499h434q99 0 170 71q72 75 72 179q0 101 -72 176q-70 73 -170 73zM307 135h481q108 0 181 76q75 75 75 188
q0 112 -75 187q-75 78 -181 78h-481v-529z" />
    <glyph glyph-name="uni0413" unicode="&#x413;" horiz-adv-x="1003" 
d="M164 1434h799v-136h-656v-1298h-143v1434z" />
    <glyph glyph-name="uni0414" unicode="&#x414;" horiz-adv-x="1413" 
d="M1188 1434v-1299h153v-409h-143v274h-1024v-274h-143v409h116q142 168 142 512v787h899zM317 135h727v1163h-612v-655q0 -337 -115 -508z" />
    <glyph glyph-name="uni0415" unicode="&#x415;" horiz-adv-x="1085" 
d="M307 655v-520h697v-135h-840v1434h829v-136h-686v-507h635v-136h-635z" />
    <glyph glyph-name="uni0416" unicode="&#x416;" horiz-adv-x="1740" 
d="M1083 737l617 -737h-168l-590 700v-700h-143v700l-590 -700h-168l616 737l-596 697h168l570 -662v662h143v-662l569 662h168z" />
    <glyph glyph-name="uni0417" unicode="&#x417;" horiz-adv-x="1157" 
d="M825 741q119 -44 184.5 -137t65.5 -217q0 -180 -135 -297q-133 -115 -360 -115q-195 0 -321.5 88.5t-176.5 235.5l123 70q28 -117 121 -187.5t254 -70.5q165 0 258.5 75.5t93.5 200.5q0 124 -86 200.5t-234 76.5h-163v135h112q145 0 231.5 73t86.5 191q0 116 -84.5 188
t-225.5 72q-265 0 -348 -225l-119 69q56 136 173.5 213.5t293.5 77.5q201 0 328 -115q125 -113 125 -282q0 -215 -197 -320z" />
    <glyph glyph-name="uni0418" unicode="&#x418;" horiz-adv-x="1392" 
d="M1229 0h-144v1167l-798 -1167h-123v1434h143v-1168l799 1168h123v-1434z" />
    <glyph glyph-name="uni0419" unicode="&#x419;" horiz-adv-x="1392" 
d="M963 1597h-533v119h533v-119zM1229 0h-144v1167l-798 -1167h-123v1434h143v-1168l799 1168h123v-1434z" />
    <glyph glyph-name="uni041A" unicode="&#x41a;" horiz-adv-x="1187" 
d="M459 737l708 -737h-188l-672 694v-694h-143v1434h143v-656l651 656h189z" />
    <glyph glyph-name="uni041B" unicode="&#x41b;" horiz-adv-x="1423" 
d="M31 0v127q150 -21 223 92q76 113 76 418v797h930v-1434h-144v1298h-643v-665q0 -157 -20.5 -272t-57 -186.5t-93.5 -113t-122 -54.5t-149 -7z" />
    <glyph glyph-name="uni041C" unicode="&#x41c;" horiz-adv-x="1638" 
d="M1296 1434h179v-1434h-144v1217l-502 -840h-20l-502 840v-1217h-143v1434h178l477 -799z" />
    <glyph glyph-name="uni041D" unicode="&#x41d;" horiz-adv-x="1392" 
d="M1085 805v629h144v-1434h-144v670h-778v-670h-143v1434h143v-629h778z" />
    <glyph glyph-name="uni041E" unicode="&#x41e;" horiz-adv-x="1646" 
d="M1350 190q-215 -215 -527 -215q-311 0 -526 215q-215 218 -215 527t215 524q214 217 526 217q313 0 527 -217q215 -215 215 -524t-215 -527zM397 289q171 -174 426 -174t426 174q172 175 172 428q0 251 -172 426q-173 176 -426 176t-426 -176q-172 -175 -172 -426
q0 -253 172 -428z" />
    <glyph glyph-name="uni041F" unicode="&#x41f;" horiz-adv-x="1351" 
d="M164 1434h1024v-1434h-144v1298h-737v-1298h-143v1434z" />
    <glyph glyph-name="uni0420" unicode="&#x420;" horiz-adv-x="1208" 
d="M164 1434h512q192 0 321 -129t129 -322q0 -192 -129 -321q-130 -130 -321 -130h-369v-532h-143v1434zM307 668h369q134 0 219 88q88 88 88 227q0 137 -88 225q-87 90 -219 90h-369v-630z" />
    <glyph glyph-name="uni0421" unicode="&#x421;" horiz-adv-x="1525" 
d="M834 -25q-327 0 -539 215q-213 216 -213 527q0 310 213 526q212 215 539 215q197 0 363 -95t257 -257l-127 -74q-68 131 -201 209t-292 78q-271 0 -439 -174q-170 -176 -170 -428t170 -428q168 -174 439 -174q159 0 292 77.5t201 208.5l127 -71q-88 -162 -255.5 -258.5
t-364.5 -96.5z" />
    <glyph glyph-name="uni0422" unicode="&#x422;" horiz-adv-x="1105" 
d="M41 1434h1024v-136h-440v-1298h-144v1298h-440v136z" />
    <glyph glyph-name="uni0423" unicode="&#x423;" horiz-adv-x="1167" 
d="M623 553l376 881h148l-477 -1121q-72 -172 -182.5 -247.5t-274.5 -65.5v131q116 -12 190 34t123 161l29 67l-494 1041h148z" />
    <glyph glyph-name="uni0424" unicode="&#x424;" horiz-adv-x="1646" 
d="M895 162v-162h-143v162q-314 15 -502 157q-189 145 -189 398q0 252 189 397q189 143 502 158v162h143v-162q314 -15 500 -158q190 -144 190 -397q0 -254 -190 -398q-185 -142 -500 -157zM752 293v848q-256 -12 -401.5 -121.5t-145.5 -302.5t145.5 -302.5t401.5 -121.5z
M895 1141v-848q256 12 401.5 121.5t145.5 302.5t-145.5 302.5t-401.5 121.5z" />
    <glyph glyph-name="uni0425" unicode="&#x425;" horiz-adv-x="1187" 
d="M676 739l471 -739h-164l-389 612l-389 -612h-164l471 739l-440 695h161l361 -566l360 566h162z" />
    <glyph glyph-name="uni0426" unicode="&#x426;" horiz-adv-x="1413" 
d="M1188 1434v-1299h153v-409h-143v274h-1034v1434h143v-1299h737v1299h144z" />
    <glyph glyph-name="uni0427" unicode="&#x427;" horiz-adv-x="1280" 
d="M973 739v695h143v-1434h-143v604q-189 -92 -389 -92q-204 0 -328 115q-123 114 -123 295v512h143v-512q0 -126 81.5 -200.5t226.5 -74.5q200 0 389 92z" />
    <glyph glyph-name="uni0428" unicode="&#x428;" horiz-adv-x="1945" 
d="M1638 135v1299h144v-1434h-1618v1434h143v-1299h594v1299h143v-1299h594z" />
    <glyph glyph-name="uni0429" unicode="&#x429;" horiz-adv-x="2007" 
d="M1782 1434v-1299h153v-409h-143v274h-1628v1434h143v-1299h594v1299h143v-1299h594v1299h144z" />
    <glyph glyph-name="uni042A" unicode="&#x42a;" horiz-adv-x="1433" 
d="M901 0h-512v1298h-389v136h532v-533h369q193 0 322 -129t129 -321q0 -193 -129 -322t-322 -129zM532 766v-631h369q134 0 219 88q88 88 88 228q0 137 -88 225q-87 90 -219 90h-369z" />
    <glyph glyph-name="uni042B" unicode="&#x42b;" horiz-adv-x="1587" 
d="M676 0h-512v1434h143v-533h369q192 0 321 -129t129 -321q0 -193 -129 -322t-321 -129zM1423 0h-143v1434h143v-1434zM307 766v-631h369q134 0 219 88q88 88 88 228q0 137 -88 225q-87 90 -219 90h-369z" />
    <glyph glyph-name="uni042C" unicode="&#x42c;" horiz-adv-x="1208" 
d="M307 901h369q192 0 321 -129t129 -321q0 -193 -129 -322t-321 -129h-512v1434h143v-533zM307 135h369q134 0 219 88q88 88 88 228q0 137 -88 225q-87 90 -219 90h-369v-631z" />
    <glyph glyph-name="uni042D" unicode="&#x42d;" horiz-adv-x="1515" 
d="M692 1458q327 0 533 -215q209 -212 209 -526t-209 -529q-207 -213 -533 -213q-197 0 -364.5 96.5t-255.5 258.5l127 71q68 -131 201 -208.5t292 -77.5q245 0 410 151q163 149 184 383h-784v135h784q-21 234 -184 383q-166 152 -410 152q-159 0 -292 -78t-201 -209
l-127 74q91 162 257 257t363 95z" />
    <glyph glyph-name="uni042E" unicode="&#x42e;" horiz-adv-x="2129" 
d="M1307 1458q312 0 526 -217q215 -215 215 -524t-215 -527q-215 -215 -526 -215q-298 0 -508 201q-209 203 -224 494h-268v-670h-143v1434h143v-629h271q35 283 237 467q204 186 492 186zM881 289q171 -174 426 -174t426 174q172 175 172 428q0 251 -172 426
q-173 176 -426 176t-426 -176q-172 -175 -172 -426q0 -253 172 -428z" />
    <glyph glyph-name="uni042F" unicode="&#x42f;" horiz-adv-x="1269" 
d="M532 1434h574v-1434h-143v573h-345l-393 -573h-164l400 580q-156 28 -256 145q-103 121 -103 279q0 178 125 303q127 127 305 127zM532 709h431v589h-431q-119 0 -202 -86q-84 -87 -84 -208q0 -119 84 -209q83 -86 202 -86z" />
    <glyph glyph-name="uni0430" unicode="&#x430;" 
d="M1024 823v201h135v-1024h-135v201q-142 -226 -414 -226q-218 0 -374 156q-154 157 -154 381t154 381q156 156 374 156q272 0 414 -226zM334 223q117 -117 287 -117q169 0 286 117q117 120 117 289q0 170 -117 287q-116 119 -286 119q-171 0 -287 -119
q-117 -117 -117 -287q0 -169 117 -289z" />
    <glyph glyph-name="uni0431" unicode="&#x431;" horiz-adv-x="1161" 
d="M598 -25q-220 0 -369 146q-147 147 -147 381q0 260 78 401q77 141 315 256q102 46 119 53q48 19 113 50q178 82 180 202l106 -61q-9 -51 -32 -92q-26 -45 -52.5 -71.5t-79.5 -57.5q-42 -24 -84 -45l-102 -43l-96 -41q-142 -61 -210 -128t-97 -173q66 88 172 134t215 46
q206 0 338 -135q135 -132 135 -342q0 -206 -144 -344q-142 -136 -358 -136zM598 111q158 0 262 96q105 99 105 248q0 153 -99 247q-94 99 -258 99q-143 0 -264 -92q-119 -88 -119 -242q0 -155 107 -256q106 -100 266 -100z" />
    <glyph glyph-name="uni0432" unicode="&#x432;" horiz-adv-x="1024" 
d="M795 526q168 -61 168 -239q0 -128 -85 -207.5t-237 -79.5h-498v1024h457q147 0 230 -75t83 -199q0 -155 -118 -224zM600 893h-321v-311h321q178 0 178 159q0 72 -46 112t-132 40zM279 131h362q90 0 138 43t48 121q0 73 -48 114.5t-138 41.5h-362v-320z" />
    <glyph glyph-name="uni0433" unicode="&#x433;" horiz-adv-x="819" 
d="M143 1024h656v-131h-520v-893h-136v1024z" />
    <glyph glyph-name="uni0434" unicode="&#x434;" horiz-adv-x="1208" 
d="M1004 1024v-893h143v-405h-135v274h-836v-274h-135v405h125q104 137 104 387v506h734zM330 131h538v762h-462v-375q0 -238 -76 -387z" />
    <glyph glyph-name="uni0435" unicode="&#x435;" horiz-adv-x="1196" 
d="M616 1049q230 0 367 -162q141 -159 141 -379q0 -10 -4 -64h-899q20 -155 131.5 -246.5t276.5 -91.5q114 0 199.5 47.5t129.5 127.5l119 -70q-69 -111 -186 -173.5t-264 -62.5q-242 0 -394 152q-151 151 -151 385q0 231 149 383q151 154 385 154zM616 918q-159 0 -267 -95
t-128 -248h764q-21 164 -125 252q-108 91 -244 91z" />
    <glyph glyph-name="uni0436" unicode="&#x436;" horiz-adv-x="1380" 
d="M881 532l458 -532h-163l-418 494v-494h-135v494l-418 -494h-164l459 532l-439 492h164l398 -455v455h135v-455l397 455h164z" />
    <glyph glyph-name="uni0437" unicode="&#x437;" horiz-adv-x="911" 
d="M672 526q178 -67 178 -245q0 -131 -100 -218q-98 -88 -283 -88q-311 0 -406 246l115 68q65 -183 291 -183q116 0 182 51t66 132q0 73 -53.5 117.5t-143.5 44.5h-149v131h108q88 0 138.5 44t50.5 122q0 74 -60.5 122t-159.5 48q-191 0 -256 -154l-112 65q103 220 368 220
q164 0 259 -86q96 -84 96 -207q0 -159 -129 -230z" />
    <glyph glyph-name="uni0438" unicode="&#x438;" horiz-adv-x="1146" 
d="M279 236l610 788h115v-1024h-136v788l-610 -788h-115v1024h136v-788z" />
    <glyph glyph-name="uni0439" unicode="&#x439;" horiz-adv-x="1146" 
d="M840 1188h-533v119h533v-119zM279 236l610 788h115v-1024h-136v788l-610 -788h-115v1024h136v-788z" />
    <glyph glyph-name="uni043A" unicode="&#x43a;" horiz-adv-x="1011" 
d="M422 532l549 -532h-180l-512 494v-494h-136v1024h136v-453l487 453h184z" />
    <glyph glyph-name="uni043B" unicode="&#x43b;" horiz-adv-x="1126" 
d="M250 1024h733v-1024h-135v893h-463v-457q0 -258 -98 -352q-96 -96 -267 -84v127q120 -12 175 57.5t55 251.5v588z" />
    <glyph glyph-name="uni043C" unicode="&#x43c;" horiz-adv-x="1290" 
d="M991 1024h156v-1024h-135v817l-359 -581h-16l-358 581v-817h-136v1024h156l346 -561z" />
    <glyph glyph-name="uni043D" unicode="&#x43d;" horiz-adv-x="1146" 
d="M868 578v446h136v-1024h-136v446h-589v-446h-136v1024h136v-446h589z" />
    <glyph glyph-name="uni043E" unicode="&#x43e;" horiz-adv-x="1241" 
d="M1001 129q-157 -154 -380 -154q-226 0 -383 154q-156 156 -156 383q0 228 156 381q156 156 383 156q224 0 380 -156q158 -155 158 -381q0 -225 -158 -383zM334 223q117 -117 287 -117q169 0 286 117q117 120 117 289q0 170 -117 287q-116 119 -286 119q-171 0 -287 -119
q-117 -117 -117 -287q0 -169 117 -289z" />
    <glyph glyph-name="uni043F" unicode="&#x43f;" horiz-adv-x="1146" 
d="M143 1024h861v-1024h-136v893h-589v-893h-136v1024z" />
    <glyph glyph-name="uni0440" unicode="&#x440;" 
d="M692 1049q220 0 373 -156q156 -156 156 -381t-156 -381q-153 -156 -373 -156q-271 0 -413 226v-611h-136v1434h136v-201q142 226 413 226zM395 223q117 -117 287 -117t287 117q116 119 116 289q0 171 -116 287q-116 119 -287 119t-287 -119q-116 -116 -116 -287
q0 -170 116 -289z" />
    <glyph glyph-name="uni0441" unicode="&#x441;" horiz-adv-x="1130" 
d="M621 -25q-231 0 -385 154q-154 157 -154 383q0 227 154 381q153 156 385 156q152 0 272 -72.5t176 -196.5l-111 -63q-41 93 -131.5 147t-205.5 54q-171 0 -287 -119q-117 -117 -117 -287q0 -169 117 -289q117 -117 287 -117q114 0 204 53.5t142 147.5l112 -65
q-63 -123 -186 -195t-272 -72z" />
    <glyph glyph-name="uni0442" unicode="&#x442;" horiz-adv-x="901" 
d="M20 1024h861v-131h-363v-893h-135v893h-363v131z" />
    <glyph glyph-name="uni0443" unicode="&#x443;" horiz-adv-x="1044" 
d="M549 166l332 858h143l-438 -1118q-61 -155 -171 -240.5t-243 -75.5v127q186 -21 281 213l26 64l-459 1030h144z" />
    <glyph glyph-name="uni0444" unicode="&#x444;" horiz-adv-x="1372" 
d="M754 -23v-387h-136v387q-243 21 -389 170q-147 150 -147 365t147 365q146 149 389 170v387h136v-387q243 -21 389 -170q147 -150 147 -365t-147 -365q-146 -149 -389 -170zM618 111v802q-183 -19 -292 -129.5t-109 -271.5t109 -271.5t292 -129.5zM754 913v-802
q183 19 292 129.5t109 271.5t-109 271.5t-292 129.5z" />
    <glyph glyph-name="uni0445" unicode="&#x445;" horiz-adv-x="1044" 
d="M604 530l400 -530h-162l-320 422l-319 -422h-162l401 530l-374 494h161l293 -387l293 387h162z" />
    <glyph glyph-name="uni0446" unicode="&#x446;" horiz-adv-x="1208" 
d="M983 1024v-893h164v-405h-135v274h-869v1024h136v-893h569v893h135z" />
    <glyph glyph-name="uni0447" unicode="&#x447;" horiz-adv-x="1085" 
d="M807 514v510h135v-1024h-135v389q-119 -61 -293 -61q-202 0 -307 93t-105 275v328h136v-328q0 -127 66.5 -184t205.5 -57q158 0 297 59z" />
    <glyph glyph-name="uni0448" unicode="&#x448;" horiz-adv-x="1658" 
d="M1380 131v893h136v-1024h-1373v1024h136v-893h483v893h135v-893h483z" />
    <glyph glyph-name="uni0449" unicode="&#x449;" horiz-adv-x="1720" 
d="M1516 1024v-893h143v-405h-135v274h-1381v1024h136v-893h483v893h135v-893h483v893h136z" />
    <glyph glyph-name="uni044A" unicode="&#x44a;" horiz-adv-x="1105" 
d="M422 635h280q141 0 242 -90q100 -87 100 -228q0 -142 -100 -229q-98 -88 -242 -88h-415v893h-287v131h422v-389zM422 131h280q88 0 147.5 51.5t59.5 134.5t-59.5 135t-147.5 52h-280v-373z" />
    <glyph glyph-name="uni044B" unicode="&#x44b;" horiz-adv-x="1323" 
d="M279 635h280q141 0 242 -90q100 -87 100 -228q0 -142 -100 -229q-98 -88 -242 -88h-416v1024h136v-389zM1044 0v1024h136v-1024h-136zM279 131h280q88 0 147.5 51.5t59.5 134.5t-59.5 135t-147.5 52h-280v-373z" />
    <glyph glyph-name="uni044C" unicode="&#x44c;" horiz-adv-x="962" 
d="M279 635h280q141 0 242 -90q100 -87 100 -228q0 -142 -100 -229q-98 -88 -242 -88h-416v1024h136v-389zM279 131h280q88 0 147.5 51.5t59.5 134.5t-59.5 135t-147.5 52h-280v-373z" />
    <glyph glyph-name="uni044D" unicode="&#x44d;" horiz-adv-x="1103" 
d="M508 1049q231 0 373 -154q141 -150 141 -383t-143 -385t-375 -152q-164 0 -286 72.5t-177 198.5l117 67q36 -95 127 -151t219 -56q152 0 255 94.5t124 245.5h-510v132h510q-19 151 -121 245.5t-254 94.5q-116 0 -206.5 -55t-133.5 -150l-119 67q62 125 184 197t275 72z
" />
    <glyph glyph-name="uni044E" unicode="&#x44e;" horiz-adv-x="1638" 
d="M1018 1049q225 0 381 -156q157 -154 157 -381q0 -226 -157 -383q-157 -154 -381 -154q-204 0 -356 134q-149 137 -170 337h-213v-446h-136v1024h136v-446h213q21 201 170 335q151 136 356 136zM731 223q117 -117 287 -117t287 117q116 119 116 289q0 171 -116 287
q-116 119 -287 119t-287 -119q-117 -117 -117 -287q0 -169 117 -289z" />
    <glyph glyph-name="uni044F" unicode="&#x44f;" horiz-adv-x="1024" 
d="M465 1024h416v-1024h-136v393h-176l-315 -393h-172l324 397q-125 19 -204 104t-79 206q0 139 98 227q104 90 244 90zM465 520h280v373h-280q-88 0 -147.5 -51.5t-59.5 -134.5t59.5 -135t147.5 -52z" />
    <glyph glyph-name="uni0451" unicode="&#x451;" horiz-adv-x="1196" 
d="M475 1204q-26 -26 -65.5 -26t-65.5 26t-26 65.5t26 65.5t65.5 26t65.5 -26t26 -65.5t-26 -65.5zM864 1204q-26 -26 -65.5 -26t-65.5 26t-26 65.5t26 65.5t65.5 26t65.5 -26t26 -65.5t-26 -65.5zM616 1049q230 0 367 -162q141 -159 141 -379q0 -10 -4 -64h-899
q20 -155 131.5 -246.5t276.5 -91.5q114 0 199.5 47.5t129.5 127.5l119 -70q-69 -111 -186 -173.5t-264 -62.5q-242 0 -394 152q-151 151 -151 385q0 231 149 383q151 154 385 154zM616 918q-159 0 -267 -95t-128 -248h764q-21 164 -125 252q-108 91 -244 91z" />
    <glyph glyph-name="uni0452" unicode="&#x452;" horiz-adv-x="1163" 
d="M643 1049q185 0 293 -113.5t108 -306.5v-711q0 -185 -95.5 -277t-272.5 -75v131q122 -12 177.5 39.5t55.5 181.5v711q0 137 -72.5 213t-205.5 76q-153 0 -242.5 -96t-89.5 -285v-537h-135v1180h-144v110h144v144h135v-144h295v-110h-295v-316q114 185 344 185z" />
    <glyph glyph-name="uni0453" unicode="&#x453;" horiz-adv-x="819" 
d="M483 1434h164l-196 -267h-132zM143 1024h656v-131h-520v-893h-136v1024z" />
    <glyph glyph-name="uni0454" unicode="&#x454;" horiz-adv-x="1103" 
d="M946 313l117 -67q-55 -126 -177 -198.5t-286 -72.5q-231 0 -377 152q-141 153 -141 385q0 233 141 383q142 154 373 154q153 0 275 -72t184 -197l-119 -67q-43 95 -133.5 150t-206.5 55q-152 0 -254 -94.5t-121 -245.5h510v-132h-510q21 -151 124 -245.5t255 -94.5
q128 0 219 56t127 151z" />
    <glyph glyph-name="uni0455" unicode="&#x455;" horiz-adv-x="929" 
d="M250 756q0 -118 211 -174q158 -40 222 -70q165 -79 165 -242q0 -130 -105 -213q-101 -82 -266 -82q-144 0 -248.5 64.5t-146.5 171.5l115 68q29 -80 103.5 -126.5t176.5 -46.5q105 0 170.5 41.5t65.5 122.5q0 118 -211 174q-158 40 -222 70q-165 79 -165 242
q0 127 98 209q104 84 252 84q124 0 218.5 -56t139.5 -153l-112 -66q-59 144 -246 144q-92 0 -153.5 -43.5t-61.5 -118.5z" />
    <glyph glyph-name="uni0456" unicode="&#x456;" horiz-adv-x="421" 
d="M281 1270q-29 -29 -70 -29t-70 29t-29 69.5t29 69.5t70 29t70 -29t29 -69.5t-29 -69.5zM279 0h-136v1024h136v-1024z" />
    <glyph glyph-name="uni0457" unicode="&#x457;" horiz-adv-x="421" 
d="M82 1204q-26 -26 -65.5 -26t-65.5 26t-26 65.5t26 65.5t65.5 26t65.5 -26t26 -65.5t-26 -65.5zM471 1204q-26 -26 -65.5 -26t-65.5 26t-26 65.5t26 65.5t65.5 26t65.5 -26t26 -65.5t-26 -65.5zM279 0h-136v1024h136v-1024z" />
    <glyph glyph-name="uni0458" unicode="&#x458;" horiz-adv-x="471" 
d="M190 1409q29 29 70 29t70 -29t29 -69.5t-29 -69.5t-70 -29t-70 29t-29 69.5t29 69.5zM193 -82v1106h135v-1106q0 -185 -96 -277t-273 -75v131q122 -12 178 39.5t56 181.5z" />
    <glyph glyph-name="uni0459" unicode="&#x459;" horiz-adv-x="1615" 
d="M963 594h270q139 0 230 -81.5t91 -215.5t-91 -215.5t-230 -81.5h-406v893h-442v-457q0 -258 -98 -352q-96 -96 -267 -84v127q120 -12 175 57.5t55 251.5v588h713v-430zM963 131h270q84 0 135 43t51 123t-51 123t-135 43h-270v-332z" />
    <glyph glyph-name="uni045A" unicode="&#x45a;" horiz-adv-x="1615" 
d="M963 594h270q139 0 230 -81.5t91 -215.5t-91 -215.5t-230 -81.5h-406v463h-548v-463h-136v1024h136v-430h548v430h136v-430zM963 131h270q84 0 135 43t51 123t-51 123t-135 43h-270v-332z" />
    <glyph glyph-name="uni045B" unicode="&#x45b;" horiz-adv-x="1163" 
d="M643 1049q185 0 293 -113.5t108 -306.5v-629h-135v629q0 137 -72.5 213t-205.5 76q-153 0 -242.5 -96t-89.5 -285v-537h-135v1180h-144v110h144v144h135v-144h295v-110h-295v-316q114 185 344 185z" />
    <glyph glyph-name="uni045C" unicode="&#x45c;" horiz-adv-x="1011" 
d="M565 1434h164l-197 -267h-131zM422 532l549 -532h-180l-512 494v-494h-136v1024h136v-453l487 453h184z" />
    <glyph glyph-name="uni045E" unicode="&#x45e;" horiz-adv-x="1044" 
d="M252 1307h532v-119h-532v119zM549 166l332 858h143l-438 -1118q-61 -155 -171 -240.5t-243 -75.5v127q186 -21 281 213l26 64l-459 1030h144z" />
    <glyph glyph-name="uni045F" unicode="&#x45f;" horiz-adv-x="1146" 
d="M868 131v893h136v-1024h-363v-274h-135v274h-363v1024h136v-893h589z" />
    <glyph glyph-name="uni0490" unicode="&#x490;" horiz-adv-x="1003" 
d="M819 1434v245h144v-381h-656v-1298h-143v1434h655z" />
    <glyph glyph-name="uni0491" unicode="&#x491;" horiz-adv-x="819" 
d="M664 1024v213h135v-344h-520v-893h-136v1024h521z" />
    <glyph glyph-name="Wgrave" unicode="&#x1e80;" horiz-adv-x="2048" 
d="M1147 1577h-131l-197 266h164zM477 0h172l375 1245l375 -1245h172l416 1434h-152l-354 -1239l-373 1239h-168l-373 -1239l-354 1239h-152z" />
    <glyph glyph-name="wgrave" unicode="&#x1e81;" horiz-adv-x="1576" 
d="M748 1434l163 -267h-131l-196 267h164zM1124 174l252 850h140l-316 -1024h-147l-265 825l-264 -825h-147l-316 1024h140l252 -850l268 850h135z" />
    <glyph glyph-name="Wacute" unicode="&#x1e82;" horiz-adv-x="2048" 
d="M922 1577l163 266h164l-196 -266h-131zM477 0h172l375 1245l375 -1245h172l416 1434h-152l-354 -1239l-373 1239h-168l-373 -1239l-354 1239h-152z" />
    <glyph glyph-name="wacute" unicode="&#x1e83;" horiz-adv-x="1576" 
d="M850 1434h164l-197 -267h-131zM1124 174l252 850h140l-316 -1024h-147l-265 825l-264 -825h-147l-316 1024h140l252 -850l268 850h135z" />
    <glyph glyph-name="Wdieresis" unicode="&#x1e84;" horiz-adv-x="2048" 
d="M895 1614q-26 -26 -65.5 -26t-65.5 26t-26 65.5t26 65.5t65.5 26t65.5 -26t26 -65.5t-26 -65.5zM1284 1614q-26 -26 -65.5 -26t-65.5 26t-26 65.5t26 65.5t65.5 26t65.5 -26t26 -65.5t-26 -65.5zM649 0h-172l-416 1434h152l354 -1239l373 1239h168l373 -1239l354 1239
h152l-416 -1434h-172l-375 1245z" />
    <glyph glyph-name="wdieresis" unicode="&#x1e85;" horiz-adv-x="1576" 
d="M659 1204q-26 -26 -65.5 -26t-65.5 26t-26 65.5t26 65.5t65.5 26t65.5 -26t26 -65.5t-26 -65.5zM1049 1204q-26 -26 -65.5 -26t-65.5 26t-26 65.5t26 65.5t65.5 26t65.5 -26t26 -65.5t-26 -65.5zM1124 174l252 850h140l-316 -1024h-147l-265 825l-264 -825h-147
l-316 1024h140l252 -850l268 850h135z" />
    <glyph glyph-name="uni1EA0" unicode="&#x1ea0;" horiz-adv-x="1290" 
d="M713 -342q-29 -29 -70 -29t-70 29t-29 69.5t29 69.5t70 29t70 -29t29 -69.5t-29 -69.5zM1270 0h-152l-133 352h-680l-133 -352h-152l551 1434h148zM645 1255l-289 -768h578z" />
    <glyph glyph-name="uni1EA1" unicode="&#x1ea1;" 
d="M692 -342q-29 -29 -69.5 -29t-69.5 29t-29 69.5t29 69.5t69.5 29t69.5 -29t29 -69.5t-29 -69.5zM1024 823v201h135v-1024h-135v201q-142 -226 -414 -226q-218 0 -374 156q-154 157 -154 381t154 381q156 156 374 156q272 0 414 -226zM334 223q117 -117 287 -117
q169 0 286 117q117 120 117 289q0 170 -117 287q-116 119 -286 119q-171 0 -287 -119q-117 -117 -117 -287q0 -169 117 -289z" />
    <glyph glyph-name="uni1EA2" unicode="&#x1ea2;" horiz-adv-x="1290" 
d="M694 1577h-100q0 63 6.5 86.5t34.5 42.5l20 10q15 10 23.5 17t15 19.5t6.5 29.5q0 21 -15.5 34t-39.5 13q-27 0 -51 -19t-35 -55l-1 1q-2 1 -6.5 3t-10 4.5t-13.5 6t-16.5 8t-20 11t-22.5 13.5q24 62 71 94.5t105 32.5q68 0 115 -37.5t47 -107.5q0 -97 -70 -133
q-24 -12 -35 -28t-8 -46zM1270 0h-152l-133 352h-680l-133 -352h-152l551 1434h148zM645 1255l-289 -768h578z" />
    <glyph glyph-name="uni1EA3" unicode="&#x1ea3;" 
d="M791 1165h-101q0 63 6.5 86.5t34.5 42.5l21 11q16 10 23.5 16.5t14.5 19t7 29.5q0 21 -16 34t-40 13q-27 0 -51 -19t-35 -55l-1 1q-2 1 -6.5 3t-10 4.5t-13.5 6.5t-16.5 8.5t-20 11t-22.5 13.5q24 62 71 94.5t105 32.5q68 0 115 -38t47 -108q0 -98 -69 -133
q-24 -12 -35 -28t-8 -46zM1024 823v201h135v-1024h-135v201q-142 -226 -414 -226q-218 0 -374 156q-154 157 -154 381t154 381q156 156 374 156q272 0 414 -226zM334 223q117 -117 287 -117q169 0 286 117q117 120 117 289q0 170 -117 287q-116 119 -286 119
q-171 0 -287 -119q-117 -117 -117 -287q0 -169 117 -289z" />
    <glyph glyph-name="uni1EA4" unicode="&#x1ea4;" horiz-adv-x="1290" 
d="M1270 0h-152l-133 352h-680l-133 -352h-152l551 1434h148zM645 1255l-289 -768h578zM778 1577l-133 166l-133 -166h-143l202 248h148l203 -248h-144zM993 2003h152l-182 -248h-123z" />
    <glyph glyph-name="uni1EA5" unicode="&#x1ea5;" 
d="M1024 823v201h135v-1024h-135v201q-142 -226 -414 -226q-218 0 -374 156q-154 157 -154 381t154 381q156 156 374 156q272 0 414 -226zM334 223q117 -117 287 -117q169 0 286 117q117 120 117 289q0 170 -117 287q-116 119 -286 119q-171 0 -287 -119
q-117 -117 -117 -287q0 -169 117 -289zM836 1167l-134 166l-133 -166h-143l203 248h147l203 -248h-143zM1051 1593h151l-182 -247h-123z" />
    <glyph glyph-name="uni1EA6" unicode="&#x1ea6;" horiz-adv-x="1290" 
d="M1270 0h-152l-133 352h-680l-133 -352h-152l551 1434h148zM645 1255l-289 -768h578zM778 1577l-133 166l-133 -166h-143l202 248h148l203 -248h-144zM1006 1755h-123l-183 248h152z" />
    <glyph glyph-name="uni1EA7" unicode="&#x1ea7;" 
d="M1024 823v201h135v-1024h-135v201q-142 -226 -414 -226q-218 0 -374 156q-154 157 -154 381t154 381q156 156 374 156q272 0 414 -226zM334 223q117 -117 287 -117q169 0 286 117q117 120 117 289q0 170 -117 287q-116 119 -286 119q-171 0 -287 -119
q-117 -117 -117 -287q0 -169 117 -289zM836 1167l-134 166l-133 -166h-143l203 248h147l203 -248h-143zM1063 1346h-123l-182 247h151z" />
    <glyph glyph-name="uni1EA8" unicode="&#x1ea8;" horiz-adv-x="1290" 
d="M1270 0h-152l-133 352h-680l-133 -352h-152l551 1434h148zM645 1255l-289 -768h578zM778 1577l-133 166l-133 -166h-143l202 248h148l203 -248h-144zM938 1755h-94q0 59 6.5 81t32.5 40l18 8q16 11 22.5 16.5t13.5 18t7 27.5q0 20 -14.5 32.5t-36.5 12.5q-25 0 -47.5 -18
t-32.5 -52q0 1 -9.5 5t-31 14.5t-43.5 23.5q21 59 65 89t99 30q63 0 106 -35t43 -100q0 -91 -65 -123q-23 -12 -32.5 -26.5t-6.5 -43.5z" />
    <glyph glyph-name="uni1EA9" unicode="&#x1ea9;" 
d="M1024 823v201h135v-1024h-135v201q-142 -226 -414 -226q-218 0 -374 156q-154 157 -154 381t154 381q156 156 374 156q272 0 414 -226zM334 223q117 -117 287 -117q169 0 286 117q117 120 117 289q0 170 -117 287q-116 119 -286 119q-171 0 -287 -119
q-117 -117 -117 -287q0 -169 117 -289zM836 1167l-134 166l-133 -166h-143l203 248h147l203 -248h-143zM995 1346h-94q0 59 6.5 80.5t32.5 39.5l18 9q16 11 22.5 16t13.5 17.5t7 27.5q0 20 -14.5 32.5t-36.5 12.5q-25 0 -47.5 -18t-32.5 -52q0 1 -9.5 5t-31 14.5t-43.5 23.5
q21 59 65 89t99 30q63 0 106.5 -35t43.5 -100q0 -91 -66 -123q-23 -12 -32.5 -26t-6.5 -43z" />
    <glyph glyph-name="uni1EAA" unicode="&#x1eaa;" horiz-adv-x="1290" 
d="M1270 0h-152l-133 352h-680l-133 -352h-152l551 1434h148zM645 1255l-289 -768h578zM778 1577l-133 166l-133 -166h-143l202 248h148l203 -248h-144zM492 1882h-111q0 84 23.5 137.5t61.5 71t86 6.5t97 -49q34 -26 55 -40t42 -21t32 2.5t18 34.5t7 69h110
q0 -84 -23 -137.5t-61 -71t-85.5 -7t-96.5 49.5q-37 27 -51 36.5t-31.5 17.5t-32.5 8q-22 1 -31 -24t-9 -83z" />
    <glyph glyph-name="uni1EAB" unicode="&#x1eab;" 
d="M1024 823v201h135v-1024h-135v201q-142 -226 -414 -226q-218 0 -374 156q-154 157 -154 381t154 381q156 156 374 156q272 0 414 -226zM334 223q117 -117 287 -117q169 0 286 117q117 120 117 289q0 170 -117 287q-116 119 -286 119q-171 0 -287 -119
q-117 -117 -117 -287q0 -169 117 -289zM836 1167l-134 166l-133 -166h-143l203 248h147l203 -248h-143zM549 1473h-111q0 111 40.5 167t101 53t127.5 -55q34 -26 55 -40t41.5 -21t31.5 2.5t18 34.5t7 69h111q0 -111 -39.5 -167t-99.5 -53t-127 55q-50 37 -71.5 49t-43.5 12
q-22 1 -31.5 -24t-9.5 -82z" />
    <glyph glyph-name="uni1EAC" unicode="&#x1eac;" horiz-adv-x="1290" 
d="M1270 0h-152l-133 352h-680l-133 -352h-152l551 1434h148zM645 1255l-289 -768h578zM778 1577l-133 166l-133 -166h-143l202 248h148l203 -248h-144zM713 -342q-29 -29 -70 -29t-70 29t-29 69.5t29 69.5t70 29t70 -29t29 -69.5t-29 -69.5z" />
    <glyph glyph-name="uni1EAD" unicode="&#x1ead;" 
d="M1024 823v201h135v-1024h-135v201q-142 -226 -414 -226q-218 0 -374 156q-154 157 -154 381t154 381q156 156 374 156q272 0 414 -226zM334 223q117 -117 287 -117q169 0 286 117q117 120 117 289q0 170 -117 287q-116 119 -286 119q-171 0 -287 -119
q-117 -117 -117 -287q0 -169 117 -289zM836 1167l-134 166l-133 -166h-143l203 248h147l203 -248h-143zM692 -342q-29 -29 -69.5 -29t-69.5 29t-29 69.5t29 69.5t69.5 29t69.5 -29t29 -69.5t-29 -69.5z" />
    <glyph glyph-name="uni1EAE" unicode="&#x1eae;" horiz-adv-x="1290" 
d="M1270 0h-152l-133 352h-680l-133 -352h-152l551 1434h148zM645 1255l-289 -768h578zM645 1561q-114 0 -181 61t-67 166h115q0 -125 133 -125t133 125h115q0 -107 -66 -167t-182 -60zM737 2073h152l-182 -248h-123z" />
    <glyph glyph-name="uni1EAF" unicode="&#x1eaf;" 
d="M713 1149q-114 0 -181 61t-67 166h115q0 -125 133 -125t133 125h115q0 -107 -66 -167t-182 -60zM1024 823v201h135v-1024h-135v201q-142 -226 -414 -226q-218 0 -374 156q-154 157 -154 381t154 381q156 156 374 156q272 0 414 -226zM334 223q117 -117 287 -117
q169 0 286 117q117 120 117 289q0 170 -117 287q-116 119 -286 119q-171 0 -287 -119q-117 -117 -117 -287q0 -169 117 -289zM805 1661h151l-182 -248h-123z" />
    <glyph glyph-name="uni1EB0" unicode="&#x1eb0;" horiz-adv-x="1290" 
d="M1270 0h-152l-133 352h-680l-133 -352h-152l551 1434h148zM645 1255l-289 -768h578zM645 1561q-114 0 -181 61t-67 166h115q0 -125 133 -125t133 125h115q0 -107 -66 -167t-182 -60zM729 1825h-123l-182 248h151z" />
    <glyph glyph-name="uni1EB1" unicode="&#x1eb1;" 
d="M713 1149q-114 0 -181 61t-67 166h115q0 -125 133 -125t133 125h115q0 -107 -66 -167t-182 -60zM1024 823v201h135v-1024h-135v201q-142 -226 -414 -226q-218 0 -374 156q-154 157 -154 381t154 381q156 156 374 156q272 0 414 -226zM334 223q117 -117 287 -117
q169 0 286 117q117 120 117 289q0 170 -117 287q-116 119 -286 119q-171 0 -287 -119q-117 -117 -117 -287q0 -169 117 -289zM797 1413h-123l-182 248h151z" />
    <glyph glyph-name="uni1EB2" unicode="&#x1eb2;" horiz-adv-x="1290" 
d="M1270 0h-152l-133 352h-680l-133 -352h-152l551 1434h148zM645 1255l-289 -768h578zM645 1561q-114 0 -181 61t-67 166h115q0 -125 133 -125t133 125h115q0 -107 -66 -167t-182 -60zM700 1825h-100q0 63 6.5 86.5t34.5 42.5l21 10q15 10 23.5 17t15 19.5t6.5 29.5
q0 21 -16 34t-40 13q-27 0 -51 -19t-35 -55l-1 1q-2 1 -6.5 3t-10 4.5t-13.5 6t-16.5 8t-20 11t-22.5 13.5q24 62 71 94.5t105 32.5q68 0 115 -37.5t47 -107.5q0 -98 -70 -134q-24 -12 -35 -27.5t-8 -45.5z" />
    <glyph glyph-name="uni1EB3" unicode="&#x1eb3;" 
d="M713 1149q-114 0 -181 61t-67 166h115q0 -125 133 -125t133 125h115q0 -107 -66 -167t-182 -60zM1024 823v201h135v-1024h-135v201q-142 -226 -414 -226q-218 0 -374 156q-154 157 -154 381t154 381q156 156 374 156q272 0 414 -226zM334 223q117 -117 287 -117
q169 0 286 117q117 120 117 289q0 170 -117 287q-116 119 -286 119q-171 0 -287 -119q-117 -117 -117 -287q0 -169 117 -289zM768 1413h-100q0 63 6.5 86.5t34.5 42.5l20 10q15 10 23.5 17t15 19.5t6.5 29.5q0 21 -15.5 34t-39.5 13q-27 0 -51 -19t-35 -55l-1 1q-2 1 -6.5 3
t-10 4.5t-13.5 6t-16.5 8t-20 11t-22.5 13.5q24 62 71 94.5t105 32.5q68 0 115 -37.5t47 -107.5q0 -97 -70 -133q-24 -12 -35 -28t-8 -46z" />
    <glyph glyph-name="uni1EB4" unicode="&#x1eb4;" horiz-adv-x="1290" 
d="M1270 0h-152l-133 352h-680l-133 -352h-152l551 1434h148zM645 1255l-289 -768h578zM645 1561q-114 0 -181 61t-67 166h115q0 -125 133 -125t133 125h115q0 -107 -66 -167t-182 -60zM492 1843h-111q0 84 23.5 137.5t61.5 71t86 6.5t97 -49q34 -26 55 -40t42 -21t32 2.5
t18 34.5t7 69h110q0 -84 -23 -137.5t-61 -71t-85.5 -7t-96.5 49.5q-37 27 -51 36.5t-31.5 17.5t-32.5 8q-22 1 -31 -24t-9 -83z" />
    <glyph glyph-name="uni1EB5" unicode="&#x1eb5;" 
d="M713 1149q-114 0 -181 61t-67 166h115q0 -125 133 -125t133 125h115q0 -107 -66 -167t-182 -60zM1024 823v201h135v-1024h-135v201q-142 -226 -414 -226q-218 0 -374 156q-154 157 -154 381t154 381q156 156 374 156q272 0 414 -226zM334 223q117 -117 287 -117
q169 0 286 117q117 120 117 289q0 170 -117 287q-116 119 -286 119q-171 0 -287 -119q-117 -117 -117 -287q0 -169 117 -289zM559 1432h-110q0 111 40 167t100.5 53t127.5 -55q34 -26 55 -40t41.5 -21t31.5 2.5t18 34.5t7 69h111q0 -111 -39.5 -167t-99.5 -53t-127 55
q-50 37 -71.5 49t-43.5 12q-22 1 -31.5 -24t-9.5 -82z" />
    <glyph glyph-name="uni1EB6" unicode="&#x1eb6;" horiz-adv-x="1290" 
d="M1270 0h-152l-133 352h-680l-133 -352h-152l551 1434h148zM645 1255l-289 -768h578zM645 1561q-114 0 -181 61t-67 166h115q0 -125 133 -125t133 125h115q0 -107 -66 -167t-182 -60zM713 -342q-29 -29 -70 -29t-70 29t-29 69.5t29 69.5t70 29t70 -29t29 -69.5t-29 -69.5z
" />
    <glyph glyph-name="uni1EB7" unicode="&#x1eb7;" 
d="M713 1149q-114 0 -181 61t-67 166h115q0 -125 133 -125t133 125h115q0 -107 -66 -167t-182 -60zM1024 823v201h135v-1024h-135v201q-142 -226 -414 -226q-218 0 -374 156q-154 157 -154 381t154 381q156 156 374 156q272 0 414 -226zM334 223q117 -117 287 -117
q169 0 286 117q117 120 117 289q0 170 -117 287q-116 119 -286 119q-171 0 -287 -119q-117 -117 -117 -287q0 -169 117 -289zM692 -342q-29 -29 -69.5 -29t-69.5 29t-29 69.5t29 69.5t69.5 29t69.5 -29t29 -69.5t-29 -69.5z" />
    <glyph glyph-name="uni1EB8" unicode="&#x1eb8;" horiz-adv-x="1085" 
d="M645 -342q-29 -29 -69.5 -29t-69.5 29t-29 69.5t29 69.5t69.5 29t69.5 -29t29 -69.5t-29 -69.5zM307 655v-520h697v-135h-840v1434h829v-136h-686v-507h635v-136h-635z" />
    <glyph glyph-name="uni1EB9" unicode="&#x1eb9;" horiz-adv-x="1196" 
d="M692 -342q-29 -29 -69.5 -29t-69.5 29t-29 69.5t29 69.5t69.5 29t69.5 -29t29 -69.5t-29 -69.5zM616 1049q230 0 367 -162q141 -159 141 -379q0 -10 -4 -64h-899q20 -155 131.5 -246.5t276.5 -91.5q114 0 199.5 47.5t129.5 127.5l119 -70q-69 -111 -186 -173.5
t-264 -62.5q-242 0 -394 152q-151 151 -151 385q0 231 149 383q151 154 385 154zM616 918q-159 0 -267 -95t-128 -248h764q-21 164 -125 252q-108 91 -244 91z" />
    <glyph glyph-name="uni1EBA" unicode="&#x1eba;" horiz-adv-x="1085" 
d="M655 1577h-100q0 63 6.5 86.5t34.5 42.5l20 10q15 10 23.5 17t15.5 20t7 29q0 21 -16 34t-40 13q-27 0 -51 -19t-35 -55l-2 1q-1 1 -5.5 3t-10 4.5t-13.5 6t-16.5 8t-20 11t-22.5 13.5q24 62 71 94.5t105 32.5q68 0 115 -37.5t47 -107.5q0 -97 -70 -133q-24 -12 -35 -28
t-8 -46zM307 655v-520h697v-135h-840v1434h829v-136h-686v-507h635v-136h-635z" />
    <glyph glyph-name="uni1EBB" unicode="&#x1ebb;" horiz-adv-x="1196" 
d="M698 1165h-100q0 63 6.5 86.5t34.5 42.5l20 11q16 10 24 16.5t15 19.5t7 29q0 21 -16 34t-40 13q-27 0 -51 -19t-35 -55l-1 1q-2 1 -6.5 3t-10 4.5t-13.5 6.5t-16.5 8.5t-20 11t-22.5 13.5q24 62 71 94.5t105 32.5q68 0 115 -38t47 -108q0 -97 -70 -133q-24 -12 -35 -28
t-8 -46zM616 1049q230 0 367 -162q141 -159 141 -379q0 -10 -4 -64h-899q20 -155 131.5 -246.5t276.5 -91.5q114 0 199.5 47.5t129.5 127.5l119 -70q-69 -111 -186 -173.5t-264 -62.5q-242 0 -394 152q-151 151 -151 385q0 231 149 383q151 154 385 154zM616 918
q-159 0 -267 -95t-128 -248h764q-21 164 -125 252q-108 91 -244 91z" />
    <glyph glyph-name="uni1EBC" unicode="&#x1ebc;" horiz-adv-x="1085" 
d="M307 655v-520h697v-135h-840v1434h829v-136h-686v-507h635v-136h-635zM412 1597h-119q0 90 25.5 147.5t66.5 76.5t92.5 7.5t104.5 -52.5q37 -28 59.5 -43t45.5 -22.5t34.5 2t19 36.5t7.5 74h118q0 -90 -25 -147.5t-65.5 -76t-91.5 -7t-104 52.5q-51 38 -75.5 52t-47.5 15
q-24 1 -34.5 -26.5t-10.5 -88.5z" />
    <glyph glyph-name="uni1EBD" unicode="&#x1ebd;" horiz-adv-x="1196" 
d="M616 1049q230 0 367 -162q141 -159 141 -379q0 -10 -4 -64h-899q20 -155 131.5 -246.5t276.5 -91.5q114 0 199.5 47.5t129.5 127.5l119 -70q-69 -111 -186 -173.5t-264 -62.5q-242 0 -394 152q-151 151 -151 385q0 231 149 383q151 154 385 154zM616 918q-159 0 -267 -95
t-128 -248h764q-21 164 -125 252q-108 91 -244 91zM436 1188h-119q0 90 25.5 147.5t66.5 76t92.5 7t104.5 -52.5q37 -28 59.5 -43t45.5 -22.5t34.5 2t19 36.5t7.5 74h119q0 -72 -16 -124t-44 -77.5t-65 -32t-78.5 8t-83.5 47.5q-52 39 -76 53t-47 15q-24 1 -34.5 -26.5
t-10.5 -88.5z" />
    <glyph glyph-name="uni1EBE" unicode="&#x1ebe;" horiz-adv-x="1085" 
d="M713 1577l-133 166l-134 -166h-143l203 248h147l203 -248h-143zM307 655v-520h697v-135h-840v1434h829v-136h-686v-507h635v-136h-635zM928 2003h151l-182 -248h-123z" />
    <glyph glyph-name="uni1EBF" unicode="&#x1ebf;" horiz-adv-x="1196" 
d="M616 1049q230 0 367 -162q141 -159 141 -379q0 -10 -4 -64h-899q20 -155 131.5 -246.5t276.5 -91.5q114 0 199.5 47.5t129.5 127.5l119 -70q-69 -111 -186 -173.5t-264 -62.5q-242 0 -394 152q-151 151 -151 385q0 231 149 383q151 154 385 154zM616 918q-159 0 -267 -95
t-128 -248h764q-21 164 -125 252q-108 91 -244 91zM758 1167l-133 166l-133 -166h-144l203 248h147l203 -248h-143zM973 1593h151l-182 -247h-123z" />
    <glyph glyph-name="uni1EC0" unicode="&#x1ec0;" horiz-adv-x="1085" 
d="M713 1577l-133 166l-134 -166h-143l203 248h147l203 -248h-143zM307 655v-520h697v-135h-840v1434h829v-136h-686v-507h635v-136h-635zM940 1755h-123l-182 248h151z" />
    <glyph glyph-name="uni1EC1" unicode="&#x1ec1;" horiz-adv-x="1196" 
d="M616 1049q230 0 367 -162q141 -159 141 -379q0 -10 -4 -64h-899q20 -155 131.5 -246.5t276.5 -91.5q114 0 199.5 47.5t129.5 127.5l119 -70q-69 -111 -186 -173.5t-264 -62.5q-242 0 -394 152q-151 151 -151 385q0 231 149 383q151 154 385 154zM616 918q-159 0 -267 -95
t-128 -248h764q-21 164 -125 252q-108 91 -244 91zM758 1167l-133 166l-133 -166h-144l203 248h147l203 -248h-143zM985 1346h-123l-182 247h151z" />
    <glyph glyph-name="uni1EC2" unicode="&#x1ec2;" horiz-adv-x="1085" 
d="M713 1577l-133 166l-134 -166h-143l203 248h147l203 -248h-143zM307 655v-520h697v-135h-840v1434h829v-136h-686v-507h635v-136h-635zM872 1755h-94q0 59 6.5 81t32.5 40l19 8q16 11 22.5 16.5t13.5 18t7 27.5q0 20 -15 32.5t-37 12.5q-25 0 -47 -18t-32 -52q0 1 -9.5 5
t-31 14.5t-43.5 23.5q21 59 64.5 89t98.5 30q63 0 106.5 -35t43.5 -100q0 -91 -66 -123q-23 -12 -32.5 -26.5t-6.5 -43.5z" />
    <glyph glyph-name="uni1EC3" unicode="&#x1ec3;" horiz-adv-x="1196" 
d="M616 1049q230 0 367 -162q141 -159 141 -379q0 -10 -4 -64h-899q20 -155 131.5 -246.5t276.5 -91.5q114 0 199.5 47.5t129.5 127.5l119 -70q-69 -111 -186 -173.5t-264 -62.5q-242 0 -394 152q-151 151 -151 385q0 231 149 383q151 154 385 154zM616 918q-159 0 -267 -95
t-128 -248h764q-21 164 -125 252q-108 91 -244 91zM758 1167l-133 166l-133 -166h-144l203 248h147l203 -248h-143zM918 1346h-95q0 59 6.5 80.5t32.5 39.5l19 9q16 11 22.5 16t13.5 17.5t7 27.5q0 20 -15 32.5t-37 12.5q-25 0 -47 -18t-32 -52q0 1 -9.5 5t-31 14.5
t-43.5 23.5q21 59 64.5 89t98.5 30q63 0 106.5 -35t43.5 -100q0 -91 -66 -123q-23 -12 -32 -26t-6 -43z" />
    <glyph glyph-name="uni1EC4" unicode="&#x1ec4;" horiz-adv-x="1085" 
d="M713 1577l-133 166l-134 -166h-143l203 248h147l203 -248h-143zM307 655v-520h697v-135h-840v1434h829v-136h-686v-507h635v-136h-635zM426 1882h-111q0 84 23.5 137.5t62 71t86.5 6.5t97 -49q34 -26 55 -40t41.5 -21t31.5 2.5t18 34.5t7 69h111q0 -84 -23 -137.5
t-61 -71t-85.5 -7t-96.5 49.5q-37 27 -51 36.5t-31.5 17.5t-32.5 8q-22 1 -31.5 -24.5t-9.5 -82.5z" />
    <glyph glyph-name="uni1EC5" unicode="&#x1ec5;" horiz-adv-x="1196" 
d="M616 1049q230 0 367 -162q141 -159 141 -379q0 -10 -4 -64h-899q20 -155 131.5 -246.5t276.5 -91.5q114 0 199.5 47.5t129.5 127.5l119 -70q-69 -111 -186 -173.5t-264 -62.5q-242 0 -394 152q-151 151 -151 385q0 231 149 383q151 154 385 154zM616 918q-159 0 -267 -95
t-128 -248h764q-21 164 -125 252q-108 91 -244 91zM758 1167l-133 166l-133 -166h-144l203 248h147l203 -248h-143zM471 1473h-111q0 111 40.5 167t101 53t127.5 -55q34 -26 55 -40t41.5 -21t31.5 2.5t18 34.5t7 69h111q0 -111 -39.5 -167t-99.5 -53t-127 55
q-50 37 -71.5 49t-43.5 12q-22 1 -31.5 -24t-9.5 -82z" />
    <glyph glyph-name="uni1EC6" unicode="&#x1ec6;" horiz-adv-x="1085" 
d="M713 1577l-133 166l-134 -166h-143l203 248h147l203 -248h-143zM307 655v-520h697v-135h-840v1434h829v-136h-686v-507h635v-136h-635zM645 -342q-29 -29 -69.5 -29t-69.5 29t-29 69.5t29 69.5t69.5 29t69.5 -29t29 -69.5t-29 -69.5z" />
    <glyph glyph-name="uni1EC7" unicode="&#x1ec7;" horiz-adv-x="1196" 
d="M616 1049q230 0 367 -162q141 -159 141 -379q0 -10 -4 -64h-899q20 -155 131.5 -246.5t276.5 -91.5q114 0 199.5 47.5t129.5 127.5l119 -70q-69 -111 -186 -173.5t-264 -62.5q-242 0 -394 152q-151 151 -151 385q0 231 149 383q151 154 385 154zM616 918q-159 0 -267 -95
t-128 -248h764q-21 164 -125 252q-108 91 -244 91zM758 1167l-133 166l-133 -166h-144l203 248h147l203 -248h-143zM692 -342q-29 -29 -69.5 -29t-69.5 29t-29 69.5t29 69.5t69.5 29t69.5 -29t29 -69.5t-29 -69.5z" />
    <glyph glyph-name="uni1EC8" unicode="&#x1ec8;" horiz-adv-x="471" 
d="M287 1577h-101q0 63 6.5 86.5t34.5 42.5l21 10q15 10 23.5 17t15 19.5t6.5 29.5q0 21 -15.5 34t-39.5 13q-27 0 -51 -19t-35 -55q1 1 -9.5 5t-34 15.5t-47.5 26.5q24 62 71.5 94.5t105.5 32.5q68 0 114.5 -37.5t46.5 -107.5q0 -98 -69 -133q-24 -12 -35 -28t-8 -46z
M164 0v1434h143v-1434h-143z" />
    <glyph glyph-name="uni1EC9" unicode="&#x1ec9;" horiz-adv-x="421" 
d="M279 0h-136v1024h136v-1024zM262 1165h-100q0 63 6.5 86.5t34.5 42.5l20 11q16 10 23.5 16.5t14.5 19t7 29.5q0 21 -15.5 34t-39.5 13q-27 0 -51 -19t-35 -55l-1 1q-2 1 -6.5 3t-10 4.5t-13.5 6.5t-16.5 8.5t-20 11t-22.5 13.5q24 62 71 94.5t105 32.5q68 0 115 -38
t47 -108q0 -97 -70 -133q-24 -12 -35 -28t-8 -46z" />
    <glyph glyph-name="uni1ECA" unicode="&#x1eca;" horiz-adv-x="471" 
d="M305 -342q-29 -29 -69.5 -29t-69.5 29t-29 69.5t29 69.5t69.5 29t69.5 -29t29 -69.5t-29 -69.5zM164 0v1434h143v-1434h-143z" />
    <glyph glyph-name="uni1ECB" unicode="&#x1ecb;" horiz-adv-x="421" 
d="M283 -342q-29 -29 -70 -29t-70 29t-29 69.5t29 69.5t70 29t70 -29t29 -69.5t-29 -69.5zM281 1202q-29 -29 -70 -29t-70 29t-29 69.5t29 69.5t70 29t70 -29t29 -69.5t-29 -69.5zM279 0h-136v1024h136v-1024z" />
    <glyph glyph-name="uni1ECC" unicode="&#x1ecc;" horiz-adv-x="1646" 
d="M889 -342q-29 -29 -69.5 -29t-69.5 29t-29 69.5t29 69.5t69.5 29t69.5 -29t29 -69.5t-29 -69.5zM1350 190q-215 -215 -527 -215q-311 0 -526 215q-215 218 -215 527t215 524q214 217 526 217q313 0 527 -217q215 -215 215 -524t-215 -527zM397 289q171 -174 426 -174
t426 174q172 175 172 428q0 251 -172 426q-173 176 -426 176t-426 -176q-172 -175 -172 -426q0 -253 172 -428z" />
    <glyph glyph-name="uni1ECD" unicode="&#x1ecd;" horiz-adv-x="1241" 
d="M686 -342q-29 -29 -69.5 -29t-69.5 29t-29 69.5t29 69.5t69.5 29t69.5 -29t29 -69.5t-29 -69.5zM1001 129q-157 -154 -380 -154q-226 0 -383 154q-156 156 -156 383q0 228 156 381q156 156 383 156q224 0 380 -156q158 -155 158 -381q0 -225 -158 -383zM334 223
q117 -117 287 -117q169 0 286 117q117 120 117 289q0 170 -117 287q-116 119 -286 119q-171 0 -287 -119q-117 -117 -117 -287q0 -169 117 -289z" />
    <glyph glyph-name="uni1ECE" unicode="&#x1ece;" horiz-adv-x="1646" 
d="M1350 190q-215 -215 -527 -215q-311 0 -526 215q-215 218 -215 527t215 524q214 217 526 217q313 0 527 -217q215 -215 215 -524t-215 -527zM397 289q171 -174 426 -174t426 174q172 175 172 428q0 251 -172 426q-173 176 -426 176t-426 -176q-172 -175 -172 -426
q0 -253 172 -428zM920 1577h-101q0 63 6.5 86.5t34.5 42.5l21 10q15 10 23.5 17t15 19.5t6.5 29.5q0 21 -16 34t-40 13q-27 0 -51 -19t-35 -55l-2 1q-1 1 -5.5 3t-10 4.5t-13.5 6t-16.5 8t-20 11t-22.5 13.5q24 62 71 94.5t105 32.5q68 0 115 -37.5t47 -107.5
q0 -98 -69 -133q-24 -12 -35 -28t-8 -46z" />
    <glyph glyph-name="uni1ECF" unicode="&#x1ecf;" horiz-adv-x="1241" 
d="M1001 129q-157 -154 -380 -154q-226 0 -383 154q-156 156 -156 383q0 228 156 381q156 156 383 156q224 0 380 -156q158 -155 158 -381q0 -225 -158 -383zM334 223q117 -117 287 -117q169 0 286 117q117 120 117 289q0 170 -117 287q-116 119 -286 119q-171 0 -287 -119
q-117 -117 -117 -287q0 -169 117 -289zM705 1165h-101q0 63 6.5 86.5t34.5 42.5l21 11q16 10 23.5 16.5t14.5 19t7 29.5q0 21 -16 34t-40 13q-27 0 -51 -19t-35 -55l-1 1q-2 1 -6.5 3t-10 4.5t-13.5 6.5t-16.5 8.5t-20 11t-22.5 13.5q24 62 71 94.5t105 32.5q68 0 115 -38
t47 -108q0 -98 -69 -133q-24 -12 -35 -28t-8 -46z" />
    <glyph glyph-name="uni1ED0" unicode="&#x1ed0;" horiz-adv-x="1646" 
d="M956 1577l-133 166l-133 -166h-143l203 248h147l203 -248h-144zM297 1241q214 217 526 217q313 0 527 -217q215 -215 215 -524t-215 -527q-215 -215 -527 -215q-311 0 -526 215q-215 218 -215 527t215 524zM397 289q171 -174 426 -174t426 174q172 175 172 428
q0 251 -172 426q-173 176 -426 176t-426 -176q-172 -175 -172 -426q0 -253 172 -428zM1171 2003h152l-182 -248h-123z" />
    <glyph glyph-name="uni1ED1" unicode="&#x1ed1;" horiz-adv-x="1241" 
d="M754 1167l-133 166l-134 -166h-143l203 248h147l203 -248h-143zM238 893q156 156 383 156q224 0 380 -156q158 -155 158 -381q0 -225 -158 -383q-157 -154 -380 -154q-226 0 -383 154q-156 156 -156 383q0 228 156 381zM334 223q117 -117 287 -117q169 0 286 117
q117 120 117 289q0 170 -117 287q-116 119 -286 119q-171 0 -287 -119q-117 -117 -117 -287q0 -169 117 -289zM969 1593h151l-182 -247h-123z" />
    <glyph glyph-name="uni1ED2" unicode="&#x1ed2;" horiz-adv-x="1646" 
d="M956 1577l-133 166l-133 -166h-143l203 248h147l203 -248h-144zM297 1241q214 217 526 217q313 0 527 -217q215 -215 215 -524t-215 -527q-215 -215 -527 -215q-311 0 -526 215q-215 218 -215 527t215 524zM397 289q171 -174 426 -174t426 174q172 175 172 428
q0 251 -172 426q-173 176 -426 176t-426 -176q-172 -175 -172 -426q0 -253 172 -428zM1184 1755h-123l-182 248h151z" />
    <glyph glyph-name="uni1ED3" unicode="&#x1ed3;" horiz-adv-x="1241" 
d="M754 1167l-133 166l-134 -166h-143l203 248h147l203 -248h-143zM238 893q156 156 383 156q224 0 380 -156q158 -155 158 -381q0 -225 -158 -383q-157 -154 -380 -154q-226 0 -383 154q-156 156 -156 383q0 228 156 381zM334 223q117 -117 287 -117q169 0 286 117
q117 120 117 289q0 170 -117 287q-116 119 -286 119q-171 0 -287 -119q-117 -117 -117 -287q0 -169 117 -289zM981 1346h-123l-182 247h151z" />
    <glyph glyph-name="uni1ED4" unicode="&#x1ed4;" horiz-adv-x="1646" 
d="M956 1577l-133 166l-133 -166h-143l203 248h147l203 -248h-144zM297 1241q214 217 526 217q313 0 527 -217q215 -215 215 -524t-215 -527q-215 -215 -527 -215q-311 0 -526 215q-215 218 -215 527t215 524zM397 289q171 -174 426 -174t426 174q172 175 172 428
q0 251 -172 426q-173 176 -426 176t-426 -176q-172 -175 -172 -426q0 -253 172 -428zM1116 1755h-94q0 59 6.5 81t32.5 40l18 8q16 11 22.5 16.5t13.5 18t7 27.5q0 20 -14.5 32.5t-36.5 12.5q-25 0 -47.5 -18t-32.5 -52q0 1 -9.5 5t-31 14.5t-43.5 23.5q21 59 65 89t99 30
q63 0 106.5 -35t43.5 -100q0 -91 -66 -123q-23 -12 -32.5 -26.5t-6.5 -43.5z" />
    <glyph glyph-name="uni1ED5" unicode="&#x1ed5;" horiz-adv-x="1241" 
d="M754 1167l-133 166l-134 -166h-143l203 248h147l203 -248h-143zM238 893q156 156 383 156q224 0 380 -156q158 -155 158 -381q0 -225 -158 -383q-157 -154 -380 -154q-226 0 -383 154q-156 156 -156 383q0 228 156 381zM334 223q117 -117 287 -117q169 0 286 117
q117 120 117 289q0 170 -117 287q-116 119 -286 119q-171 0 -287 -119q-117 -117 -117 -287q0 -169 117 -289zM913 1346h-94q0 59 6.5 80.5t32.5 39.5l19 9q16 11 22.5 16t13.5 17.5t7 27.5q0 20 -15 32.5t-37 12.5q-25 0 -47.5 -18t-32.5 -52q0 1 -9.5 5t-30.5 14.5
t-43 23.5q21 59 64.5 89t98.5 30q63 0 106.5 -35t43.5 -100q0 -91 -66 -123q-23 -12 -32.5 -26t-6.5 -43z" />
    <glyph glyph-name="uni1ED6" unicode="&#x1ed6;" horiz-adv-x="1646" 
d="M956 1577l-133 166l-133 -166h-143l203 248h147l203 -248h-144zM297 1241q214 217 526 217q313 0 527 -217q215 -215 215 -524t-215 -527q-215 -215 -527 -215q-311 0 -526 215q-215 218 -215 527t215 524zM397 289q171 -174 426 -174t426 174q172 175 172 428
q0 251 -172 426q-173 176 -426 176t-426 -176q-172 -175 -172 -426q0 -253 172 -428zM670 1882h-111q0 84 23.5 137.5t61.5 71t86 6.5t97 -49q34 -26 55 -40t42 -21t32 2.5t18 34.5t7 69h111q0 -67 -15 -115.5t-41 -72.5t-60 -30t-73 7.5t-78 44.5q-70 51 -90 58
q-13 4 -24 4q-22 1 -31.5 -24.5t-9.5 -82.5z" />
    <glyph glyph-name="uni1ED7" unicode="&#x1ed7;" horiz-adv-x="1241" 
d="M754 1167l-133 166l-134 -166h-143l203 248h147l203 -248h-143zM238 893q156 156 383 156q224 0 380 -156q158 -155 158 -381q0 -225 -158 -383q-157 -154 -380 -154q-226 0 -383 154q-156 156 -156 383q0 228 156 381zM334 223q117 -117 287 -117q169 0 286 117
q117 120 117 289q0 170 -117 287q-116 119 -286 119q-171 0 -287 -119q-117 -117 -117 -287q0 -169 117 -289zM467 1473h-111q0 111 40.5 167t101 53t127.5 -55q34 -26 55 -40t41.5 -21t31.5 2.5t18 34.5t7 69h111q0 -111 -39.5 -167t-99.5 -53t-127 55q-50 37 -71.5 49
t-43.5 12q-22 1 -31.5 -24t-9.5 -82z" />
    <glyph glyph-name="uni1ED8" unicode="&#x1ed8;" horiz-adv-x="1646" 
d="M967 1577l-144 178l-143 -178h-154l217 266h160l217 -266h-153zM297 1241q214 217 526 217q313 0 527 -217q215 -215 215 -524t-215 -527q-215 -215 -527 -215q-311 0 -526 215q-215 218 -215 527t215 524zM397 289q171 -174 426 -174t426 174q172 175 172 428
q0 251 -172 426q-173 176 -426 176t-426 -176q-172 -175 -172 -426q0 -253 172 -428zM889 -342q-29 -29 -69.5 -29t-69.5 29t-29 69.5t29 69.5t69.5 29t69.5 -29t29 -69.5t-29 -69.5z" />
    <glyph glyph-name="uni1ED9" unicode="&#x1ed9;" horiz-adv-x="1241" 
d="M754 1167l-133 166l-134 -166h-143l203 248h147l203 -248h-143zM238 893q156 156 383 156q224 0 380 -156q158 -155 158 -381q0 -225 -158 -383q-157 -154 -380 -154q-226 0 -383 154q-156 156 -156 383q0 228 156 381zM334 223q117 -117 287 -117q169 0 286 117
q117 120 117 289q0 170 -117 287q-116 119 -286 119q-171 0 -287 -119q-117 -117 -117 -287q0 -169 117 -289zM686 -342q-29 -29 -69.5 -29t-69.5 29t-29 69.5t29 69.5t69.5 29t69.5 -29t29 -69.5t-29 -69.5z" />
    <glyph glyph-name="uni1EDA" unicode="&#x1eda;" horiz-adv-x="1646" 
d="M721 1577l164 266h164l-197 -266h-131zM1350 190q-215 -215 -527 -215q-311 0 -526 215q-215 218 -215 527t215 524q214 217 526 217q105 0 199 -24h137q71 0 95 32t24 111v10h125v-10q0 -210 -148 -254q39 -29 95 -82q215 -215 215 -524t-215 -527zM397 289
q171 -174 426 -174t426 174q172 175 172 428q0 251 -172 426q-173 176 -426 176t-426 -176q-172 -175 -172 -426q0 -253 172 -428z" />
    <glyph glyph-name="uni1EDB" unicode="&#x1edb;" horiz-adv-x="1241" 
d="M567 1167l164 267h164l-197 -267h-131zM1001 129q-157 -154 -380 -154q-226 0 -383 154q-156 156 -156 383q0 228 156 381q156 156 383 156q87 0 167 -25h84q71 0 95 32t24 111v11h125v-11q0 -205 -139 -252q4 -4 12 -11t12 -11q158 -155 158 -381q0 -225 -158 -383z
M334 223q117 -117 287 -117q169 0 286 117q117 120 117 289q0 170 -117 287q-116 119 -286 119q-171 0 -287 -119q-117 -117 -117 -287q0 -169 117 -289z" />
    <glyph glyph-name="uni1EDC" unicode="&#x1edc;" horiz-adv-x="1646" 
d="M946 1577h-131l-197 266h164zM1350 190q-215 -215 -527 -215q-311 0 -526 215q-215 218 -215 527t215 524q214 217 526 217q105 0 199 -24h137q71 0 95 32t24 111v10h125v-10q0 -210 -148 -254q39 -29 95 -82q215 -215 215 -524t-215 -527zM397 289q171 -174 426 -174
t426 174q172 175 172 428q0 251 -172 426q-173 176 -426 176t-426 -176q-172 -175 -172 -426q0 -253 172 -428z" />
    <glyph glyph-name="uni1EDD" unicode="&#x1edd;" horiz-adv-x="1241" 
d="M772 1167h-131l-197 267h164zM1001 129q-157 -154 -380 -154q-226 0 -383 154q-156 156 -156 383q0 228 156 381q156 156 383 156q87 0 167 -25h84q71 0 95 32t24 111v11h125v-11q0 -205 -139 -252q4 -4 12 -11t12 -11q158 -155 158 -381q0 -225 -158 -383zM334 223
q117 -117 287 -117q169 0 286 117q117 120 117 289q0 170 -117 287q-116 119 -286 119q-171 0 -287 -119q-117 -117 -117 -287q0 -169 117 -289z" />
    <glyph glyph-name="uni1EDE" unicode="&#x1ede;" horiz-adv-x="1646" 
d="M920 1577h-101q0 63 6.5 86.5t34.5 42.5l21 10q15 10 23.5 17t15 19.5t6.5 29.5q0 21 -16 34t-40 13q-27 0 -51 -19t-35 -55l-2 1q-1 1 -5.5 3t-10 4.5t-13.5 6t-16.5 8t-20 11t-22.5 13.5q24 62 71 94.5t105 32.5q68 0 115 -37.5t47 -107.5q0 -98 -69 -133
q-24 -12 -35 -28t-8 -46zM1350 190q-215 -215 -527 -215q-311 0 -526 215q-215 218 -215 527t215 524q214 217 526 217q105 0 199 -24h137q71 0 95 32t24 111v10h125v-10q0 -210 -148 -254q39 -29 95 -82q215 -215 215 -524t-215 -527zM397 289q171 -174 426 -174t426 174
q172 175 172 428q0 251 -172 426q-173 176 -426 176t-426 -176q-172 -175 -172 -426q0 -253 172 -428z" />
    <glyph glyph-name="uni1EDF" unicode="&#x1edf;" horiz-adv-x="1241" 
d="M705 1165h-101q0 63 6.5 86.5t34.5 42.5l21 11q16 10 23.5 16.5t14.5 19t7 29.5q0 21 -16 34t-40 13q-27 0 -51 -19t-35 -55l-1 1q-2 1 -6.5 3t-10 4.5t-13.5 6.5t-16.5 8.5t-20 11t-22.5 13.5q24 62 71 94.5t105 32.5q68 0 115 -38t47 -108q0 -98 -69 -133
q-24 -12 -35 -28t-8 -46zM1001 129q-157 -154 -380 -154q-226 0 -383 154q-156 156 -156 383q0 228 156 381q156 156 383 156q87 0 167 -25h84q71 0 95 32t24 111v11h125v-11q0 -205 -139 -252q4 -4 12 -11t12 -11q158 -155 158 -381q0 -225 -158 -383zM334 223
q117 -117 287 -117q169 0 286 117q117 120 117 289q0 170 -117 287q-116 119 -286 119q-171 0 -287 -119q-117 -117 -117 -287q0 -169 117 -289z" />
    <glyph glyph-name="uni1EE0" unicode="&#x1ee0;" horiz-adv-x="1646" 
d="M655 1597h-118q0 119 43 179.5t108 58t137 -58.5q37 -28 59.5 -43t45.5 -22.5t34.5 2t19 36.5t7.5 74h119q0 -72 -16 -124t-44 -77.5t-65 -32t-78.5 8t-83.5 47.5q-51 38 -75.5 52t-47.5 15q-24 1 -34.5 -26.5t-10.5 -88.5zM1350 190q-215 -215 -527 -215
q-311 0 -526 215q-215 218 -215 527t215 524q214 217 526 217q105 0 199 -24h137q71 0 95 32t24 111v10h125v-10q0 -210 -148 -254q39 -29 95 -82q215 -215 215 -524t-215 -527zM397 289q171 -174 426 -174t426 174q172 175 172 428q0 251 -172 426q-173 176 -426 176
t-426 -176q-172 -175 -172 -426q0 -253 172 -428z" />
    <glyph glyph-name="uni1EE1" unicode="&#x1ee1;" horiz-adv-x="1241" 
d="M453 1188h-119q0 90 25.5 147.5t66.5 76t92.5 7t104.5 -52.5q37 -28 59.5 -43t45 -22.5t34.5 2t19 36.5t7 74h119q0 -90 -25 -147.5t-65.5 -76t-91.5 -7t-104 52.5q-52 39 -76 53t-47 15q-24 1 -34.5 -26.5t-10.5 -88.5zM1001 129q-157 -154 -380 -154q-226 0 -383 154
q-156 156 -156 383q0 228 156 381q156 156 383 156q87 0 167 -25h84q71 0 95 32t24 111v11h125v-11q0 -205 -139 -252q4 -4 12 -11t12 -11q158 -155 158 -381q0 -225 -158 -383zM334 223q117 -117 287 -117q169 0 286 117q117 120 117 289q0 170 -117 287q-116 119 -286 119
q-171 0 -287 -119q-117 -117 -117 -287q0 -169 117 -289z" />
    <glyph glyph-name="uni1EE2" unicode="&#x1ee2;" horiz-adv-x="1646" 
d="M889 -342q-29 -29 -69.5 -29t-69.5 29t-29 69.5t29 69.5t69.5 29t69.5 -29t29 -69.5t-29 -69.5zM1350 190q-215 -215 -527 -215q-311 0 -526 215q-215 218 -215 527t215 524q214 217 526 217q105 0 199 -24h137q71 0 95 32t24 111v10h125v-10q0 -210 -148 -254
q39 -29 95 -82q215 -215 215 -524t-215 -527zM397 289q171 -174 426 -174t426 174q172 175 172 428q0 251 -172 426q-173 176 -426 176t-426 -176q-172 -175 -172 -426q0 -253 172 -428z" />
    <glyph glyph-name="uni1EE3" unicode="&#x1ee3;" horiz-adv-x="1241" 
d="M686 -342q-29 -29 -69.5 -29t-69.5 29t-29 69.5t29 69.5t69.5 29t69.5 -29t29 -69.5t-29 -69.5zM1001 129q-157 -154 -380 -154q-226 0 -383 154q-156 156 -156 383q0 228 156 381q156 156 383 156q87 0 167 -25h84q71 0 95 32t24 111v11h125v-11q0 -205 -139 -252
q4 -4 12 -11t12 -11q158 -155 158 -381q0 -225 -158 -383zM334 223q117 -117 287 -117q169 0 286 117q117 120 117 289q0 170 -117 287q-116 119 -286 119q-171 0 -287 -119q-117 -117 -117 -287q0 -169 117 -289z" />
    <glyph glyph-name="uni1EE4" unicode="&#x1ee4;" horiz-adv-x="1351" 
d="M143 487v947h144v-947q0 -173 103 -272.5t286 -99.5t286 99.5t103 272.5v947h143v-947q0 -234 -147 -372q-149 -140 -385 -140t-385 140q-148 139 -148 372zM745 -342q-29 -29 -69.5 -29t-69.5 29t-29 69.5t29 69.5t69.5 29t69.5 -29t29 -69.5t-29 -69.5z" />
    <glyph glyph-name="uni1EE5" unicode="&#x1ee5;" horiz-adv-x="1142" 
d="M592 -342q-29 -29 -69.5 -29t-69.5 29t-29 69.5t29 69.5t69.5 29t69.5 -29t29 -69.5t-29 -69.5zM864 487v537h135v-1024h-135v160q-114 -185 -344 -185q-185 0 -293 113.5t-108 306.5v629h135v-629q0 -137 72.5 -213t205.5 -76q153 0 242.5 96t89.5 285z" />
    <glyph glyph-name="uni1EE6" unicode="&#x1ee6;" horiz-adv-x="1351" 
d="M766 1577h-100q0 63 6.5 86.5t34.5 42.5l20 10q15 10 23.5 17t15 19.5t6.5 29.5q0 21 -15.5 34t-39.5 13q-27 0 -51 -19t-35 -55l-1 1q-2 1 -6.5 3t-10 4.5t-13.5 6t-16.5 8t-20 11t-22.5 13.5q24 62 71 94.5t105 32.5q68 0 115 -37.5t47 -107.5q0 -97 -70 -133
q-24 -12 -35 -28t-8 -46zM143 487v947h144v-947q0 -173 103 -272.5t286 -99.5t286 99.5t103 272.5v947h143v-947q0 -234 -147 -372q-149 -140 -385 -140t-385 140q-148 139 -148 372z" />
    <glyph glyph-name="uni1EE7" unicode="&#x1ee7;" horiz-adv-x="1142" 
d="M641 1165h-100q0 63 6.5 86.5t34.5 42.5l20 11q16 10 23.5 16.5t14.5 19t7 29.5q0 21 -15.5 34t-39.5 13q-27 0 -51 -19t-35 -55l-2 1q-1 1 -5.5 3t-10 4.5t-13.5 6.5t-16.5 8.5t-20 11t-22.5 13.5q24 62 71 94.5t105 32.5q68 0 115 -38t47 -108q0 -97 -70 -133
q-24 -12 -35 -28t-8 -46zM864 487v537h135v-1024h-135v160q-114 -185 -344 -185q-185 0 -293 113.5t-108 306.5v629h135v-629q0 -137 72.5 -213t205.5 -76q153 0 242.5 96t89.5 285z" />
    <glyph glyph-name="uni1EE8" unicode="&#x1ee8;" horiz-adv-x="1351" 
d="M610 1577l164 266h164l-197 -266h-131zM143 487v947h144v-947q0 -173 103 -272.5t286 -99.5t286 99.5t103 272.5v947h76q71 0 95 32t24 111v10h124v-10q0 -115 -42 -180t-134 -82v-828q0 -234 -147 -372q-149 -140 -385 -140t-385 140q-148 139 -148 372z" />
    <glyph glyph-name="uni1EE9" unicode="&#x1ee9;" horiz-adv-x="1142" 
d="M659 1434h164l-196 -267h-131zM864 487v537h70q71 0 95 32t24 111v11h125v-11q0 -234 -179 -262v-905h-135v160q-114 -185 -344 -185q-185 0 -293 113.5t-108 306.5v629h135v-629q0 -137 72.5 -213t205.5 -76q153 0 242.5 96t89.5 285z" />
    <glyph glyph-name="uni1EEA" unicode="&#x1eea;" horiz-adv-x="1351" 
d="M799 1577h-131l-197 266h164zM143 487v947h144v-947q0 -173 103 -272.5t286 -99.5t286 99.5t103 272.5v947h76q71 0 95 32t24 111v10h124v-10q0 -115 -42 -180t-134 -82v-828q0 -234 -147 -372q-149 -140 -385 -140t-385 140q-148 139 -148 372z" />
    <glyph glyph-name="uni1EEB" unicode="&#x1eeb;" horiz-adv-x="1142" 
d="M514 1434l164 -267h-131l-197 267h164zM864 487v537h70q71 0 95 32t24 111v11h125v-11q0 -234 -179 -262v-905h-135v160q-114 -185 -344 -185q-185 0 -293 113.5t-108 306.5v629h135v-629q0 -137 72.5 -213t205.5 -76q153 0 242.5 96t89.5 285z" />
    <glyph glyph-name="uni1EEC" unicode="&#x1eec;" horiz-adv-x="1351" 
d="M766 1577h-102q2 64 9.5 89t35.5 46h-2q2 1 16 9.5t18.5 11.5t16 11.5t16 14.5t11.5 14.5t9.5 18t2.5 20.5q0 32 -22 49t-58 17t-64 -22t-41 -64q-7 3 -41 20h2q-8 4 -24.5 13.5t-24.5 13.5q24 68 76 104.5t117 36.5q77 0 130.5 -44t53.5 -124q0 -107 -78 -147
q-33 -19 -46.5 -37.5t-10.5 -50.5zM143 487v947h144v-947q0 -173 103 -272.5t286 -99.5t286 99.5t103 272.5v947h76q71 0 95 32t24 111v10h124v-10q0 -115 -42 -180t-134 -82v-828q0 -234 -147 -372q-149 -140 -385 -140t-385 140q-148 139 -148 372z" />
    <glyph glyph-name="uni1EED" unicode="&#x1eed;" horiz-adv-x="1142" 
d="M641 1165h-100q0 63 6.5 86.5t34.5 42.5l20 11q16 10 23.5 16.5t14.5 19t7 29.5q0 21 -15.5 34t-39.5 13q-27 0 -51 -19t-35 -55l-2 1q-1 1 -5.5 3t-10 4.5t-13.5 6.5t-16.5 8.5t-20 11t-22.5 13.5q24 62 71 94.5t105 32.5q68 0 115 -38t47 -108q0 -97 -70 -133
q-24 -12 -35 -28t-8 -46zM864 487v537h70q71 0 95 32t24 111v11h125v-11q0 -234 -179 -262v-905h-135v160q-114 -185 -344 -185q-185 0 -293 113.5t-108 306.5v629h135v-629q0 -137 72.5 -213t205.5 -76q153 0 242.5 96t89.5 285z" />
    <glyph glyph-name="uni1EEE" unicode="&#x1eee;" horiz-adv-x="1351" 
d="M143 487v947h144v-947q0 -173 103 -272.5t286 -99.5t286 99.5t103 272.5v947h76q71 0 95 32t24 111v10h124v-10q0 -115 -42 -180t-134 -82v-828q0 -234 -147 -372q-149 -140 -385 -140t-385 140q-148 139 -148 372zM508 1597h-119q0 90 25.5 147.5t66.5 76.5t92.5 7.5
t104.5 -52.5q37 -28 59.5 -43t45.5 -22.5t34.5 2t19 36.5t7.5 74h119q0 -72 -16 -124t-44 -77.5t-65 -32t-78.5 8t-83.5 47.5q-51 38 -75.5 52t-47.5 15q-24 1 -34.5 -26.5t-10.5 -88.5z" />
    <glyph glyph-name="uni1EEF" unicode="&#x1eef;" horiz-adv-x="1142" 
d="M864 487v537h70q71 0 95 32t24 111v11h125v-11q0 -234 -179 -262v-905h-135v160q-114 -185 -344 -185q-185 0 -293 113.5t-108 306.5v629h135v-629q0 -137 72.5 -213t205.5 -76q153 0 242.5 96t89.5 285zM387 1188h-119q0 90 25.5 147.5t66.5 76t92.5 7t104.5 -52.5
q37 -28 59.5 -43t45.5 -22.5t34.5 2t19 36.5t7.5 74h119q0 -72 -16 -124t-44 -77.5t-65 -32t-78.5 8t-83.5 47.5q-52 39 -76 53t-47 15q-24 1 -34.5 -26.5t-10.5 -88.5z" />
    <glyph glyph-name="uni1EF0" unicode="&#x1ef0;" horiz-adv-x="1351" 
d="M745 -342q-29 -29 -69.5 -29t-69.5 29t-29 69.5t29 69.5t69.5 29t69.5 -29t29 -69.5t-29 -69.5zM143 487v947h144v-947q0 -173 103 -272.5t286 -99.5t286 99.5t103 272.5v947h76q71 0 95 32t24 111v10h124v-10q0 -115 -42 -180t-134 -82v-828q0 -234 -147 -372
q-149 -140 -385 -140t-385 140q-148 139 -148 372z" />
    <glyph glyph-name="uni1EF1" unicode="&#x1ef1;" horiz-adv-x="1142" 
d="M592 -342q-29 -29 -69.5 -29t-69.5 29t-29 69.5t29 69.5t69.5 29t69.5 -29t29 -69.5t-29 -69.5zM864 487v537h70q71 0 95 32t24 111v11h125v-11q0 -234 -179 -262v-905h-135v160q-114 -185 -344 -185q-185 0 -293 113.5t-108 306.5v629h135v-629q0 -137 72.5 -213
t205.5 -76q153 0 242.5 96t89.5 285z" />
    <glyph glyph-name="Ygrave" unicode="&#x1ef2;" horiz-adv-x="1218" 
d="M561 1843l164 -266h-131l-197 266h164zM1036 1434h162l-518 -846v-588h-143v592l-517 842h162l428 -703z" />
    <glyph glyph-name="ygrave" unicode="&#x1ef3;" horiz-adv-x="1044" 
d="M477 1434l164 -267h-131l-197 267h164zM549 166l332 858h143l-438 -1118q-61 -155 -171 -240.5t-243 -75.5v127q186 -21 281 213l26 64l-459 1030h144z" />
    <glyph glyph-name="uni1EF4" unicode="&#x1ef4;" horiz-adv-x="1218" 
d="M674 -342q-29 -29 -69.5 -29t-69.5 29t-29 69.5t29 69.5t69.5 29t69.5 -29t29 -69.5t-29 -69.5zM1036 1434h162l-518 -846v-588h-143v592l-517 842h162l428 -703z" />
    <glyph glyph-name="uni1EF5" unicode="&#x1ef5;" horiz-adv-x="1044" 
d="M868 -342q-29 -29 -69.5 -29t-69.5 29t-29 69.5t29 69.5t69.5 29t69.5 -29t29 -69.5t-29 -69.5zM549 166l332 858h143l-438 -1118q-61 -155 -171 -240.5t-243 -75.5v127q186 -21 281 213l26 64l-459 1030h144z" />
    <glyph glyph-name="uni1EF6" unicode="&#x1ef6;" horiz-adv-x="1218" 
d="M676 1577h-101q0 63 6.5 86.5t34.5 42.5l21 10q15 10 23.5 17t15 19.5t6.5 29.5q0 21 -15.5 34t-39.5 13q-27 0 -51 -19t-35 -55l-1 1q-2 1 -6.5 3t-10 4.5t-13.5 6t-16.5 8t-20 11t-22.5 13.5q24 62 71 94.5t105 32.5q68 0 114.5 -37.5t46.5 -107.5q0 -98 -69 -133
q-24 -12 -35 -28t-8 -46zM1036 1434h162l-518 -846v-588h-143v592l-517 842h162l428 -703z" />
    <glyph glyph-name="uni1EF7" unicode="&#x1ef7;" horiz-adv-x="1044" 
d="M608 1165h-100q0 63 6.5 86.5t34.5 42.5l20 11q16 10 23.5 16.5t14.5 19t7 29.5q0 21 -15.5 34t-39.5 13q-27 0 -51 -19t-35 -55l-1 1q-2 1 -6.5 3t-10 4.5t-13.5 6.5t-16.5 8.5t-20 11t-22.5 13.5q24 62 71 94.5t105 32.5q68 0 115 -38t47 -108q0 -97 -70 -133
q-24 -12 -35 -28t-8 -46zM549 166l332 858h143l-438 -1118q-61 -155 -171 -240.5t-243 -75.5v127q186 -21 281 213l26 64l-459 1030h144z" />
    <glyph glyph-name="uni1EF8" unicode="&#x1ef8;" horiz-adv-x="1218" 
d="M1036 1434h162l-518 -846v-588h-143v592l-517 842h162l428 -703zM434 1597h-119q0 90 25.5 147.5t66.5 76.5t92.5 7.5t104.5 -52.5q37 -28 59.5 -43t45.5 -22.5t34.5 2t19 36.5t7.5 74h119q0 -72 -16 -124t-44 -77.5t-65 -32t-78.5 8t-83.5 47.5q-51 38 -75.5 52
t-47.5 15q-24 1 -34.5 -26.5t-10.5 -88.5z" />
    <glyph glyph-name="uni1EF9" unicode="&#x1ef9;" horiz-adv-x="1044" 
d="M549 166l332 858h143l-438 -1118q-61 -155 -171 -240.5t-243 -75.5v127q186 -21 281 213l26 64l-459 1030h144zM350 1188h-119q0 90 25.5 147.5t66.5 76t92.5 7t104.5 -52.5q37 -28 59.5 -43t45.5 -22.5t34.5 2t19 36.5t7.5 74h119q0 -72 -16 -124t-44 -77.5t-65 -32
t-78.5 8t-83.5 47.5q-52 39 -76 53t-47 15q-24 1 -34.5 -26.5t-10.5 -88.5z" />
    <glyph glyph-name="endash" unicode="&#x2013;" horiz-adv-x="1351" 
d="M1188 567h-1024v131h1024v-131z" />
    <glyph glyph-name="emdash" unicode="&#x2014;" horiz-adv-x="1556" 
d="M1393 567h-1229v131h1229v-131z" />
    <glyph glyph-name="quoteleft" unicode="&#x2018;" horiz-adv-x="491" 
d="M287 973h-164l123 461h123z" />
    <glyph glyph-name="quoteright" unicode="&#x2019;" horiz-adv-x="491" 
d="M205 1434h164l-123 -461h-123z" />
    <glyph glyph-name="quotesinglbase" unicode="&#x201a;" horiz-adv-x="491" 
d="M205 174h164l-123 -461h-123z" />
    <glyph glyph-name="quotedblleft" unicode="&#x201c;" horiz-adv-x="778" 
d="M287 973h-164l123 461h123zM573 973h-163l122 461h123z" />
    <glyph glyph-name="quotedblright" unicode="&#x201d;" horiz-adv-x="778" 
d="M205 1434h164l-123 -461h-123zM492 1434h163l-123 -461h-122z" />
    <glyph glyph-name="quotedblbase" unicode="&#x201e;" horiz-adv-x="778" 
d="M205 174h164l-123 -461h-123zM492 174h163l-123 -461h-122z" />
    <glyph glyph-name="dagger" unicode="&#x2020;" horiz-adv-x="983" 
d="M559 1096h301v-131h-301v-965h-135v965h-301v131h301v338h135v-338z" />
    <glyph glyph-name="daggerdbl" unicode="&#x2021;" horiz-adv-x="983" 
d="M860 1096v-131h-301v-496h301v-131h-301v-338h-135v338h-301v131h301v496h-301v131h301v338h135v-338h301z" />
    <glyph glyph-name="bullet" unicode="&#x2022;" horiz-adv-x="614" 
d="M309 512q-86 0 -146.5 60.5t-60.5 146.5q0 85 60.5 144t146.5 59q85 0 144 -59t59 -144q0 -86 -59 -146.5t-144 -60.5z" />
    <glyph glyph-name="ellipsis" unicode="&#x2026;" horiz-adv-x="1249" 
d="M315 12q-32 -32 -79.5 -32t-79.5 32t-32 80t32 80t79.5 32t79.5 -32t32 -80t-32 -80zM705 12q-32 -32 -80 -32t-80 32t-32 80t32 80t80 32t80 -32t32 -80t-32 -80zM1094 12q-32 -32 -80 -32t-80 32t-32 80t32 80t80 32t80 -32t32 -80t-32 -80z" />
    <glyph glyph-name="perthousand" unicode="&#x2030;" horiz-adv-x="2179" 
d="M436 844q-135 0 -223 88q-90 90 -90 219q0 127 90 217t223 90t223 -90q91 -91 91 -217q0 -131 -88 -219t-226 -88zM305 1020q51 -54 131 -54t131 54t51 131t-51 131t-131 54t-131 -54t-51 -131t51 -131zM281 145l-86 50l960 1079l88 -49zM1239 63q-88 -88 -223 -88
t-223 88q-91 91 -91 220q0 126 91 217q90 90 223 90t223 -90t90 -217q0 -130 -90 -220zM1966 63q-88 -88 -223 -88t-223 88q-90 90 -90 220q0 127 90 217t223 90t223 -90t90 -217q0 -130 -90 -220zM885 152q51 -54 131 -54t131 54t51 131t-51 131t-131 54t-131 -54t-51 -131
t51 -131zM1612 152q51 -54 131 -54t131 54t51 131t-51 131t-131 54t-131 -54t-51 -131t51 -131z" />
    <glyph glyph-name="guilsinglleft" unicode="&#x2039;" horiz-adv-x="679" 
d="M369 1001h168l-226 -368l226 -369h-168l-226 369z" />
    <glyph glyph-name="guilsinglright" unicode="&#x203a;" horiz-adv-x="679" 
d="M143 1001h168l226 -368l-226 -369h-168l226 369z" />
    <glyph glyph-name="fraction" unicode="&#x2044;" horiz-adv-x="450" 
d="M696 1434l-819 -1434h-123l819 1434h123z" />
    <glyph glyph-name="Euro" unicode="&#x20ac;" horiz-adv-x="1216" 
d="M737 115q109 0 190.5 54t119.5 153l118 -68q-54 -134 -165 -206.5t-263 -72.5q-221 0 -363 151.5t-179 418.5h-154v119h143v53q0 55 2 69h-145v119h158q37 259 178.5 406t359.5 147q151 0 262.5 -72.5t165.5 -203.5l-118 -68q-85 205 -310 205q-156 0 -259.5 -108
t-135.5 -306h518v-119h-530q-2 -14 -2 -69q0 -43 2 -53h530v-119h-520q31 -207 134 -318.5t263 -111.5z" />
    <glyph glyph-name="uni20BD" unicode="&#x20bd;" horiz-adv-x="1208" 
d="M737 573h-368v-192h532v-119h-532v-262h-144v262h-184v119h184v192h-184v136h184v725h512q176 0 303 -127t127 -303q0 -177 -127 -304t-303 -127zM737 1298h-368v-589h368q120 0 203 86q84 90 84 209q0 121 -84 208q-83 86 -203 86z" />
    <glyph glyph-name="uni2116" unicode="&#x2116;" horiz-adv-x="2080" 
d="M1686 844q-136 0 -224 88q-90 90 -90 219q0 127 90 217t224 90q133 0 223 -90t90 -217q0 -131 -88 -219t-225 -88zM1085 266v1168h144v-1434h-123l-799 1167v-1167h-143v1434h123zM1554 1020q51 -54 131.5 -54t131.5 54t51 131t-51 131t-131.5 54t-131.5 -54t-51 -131
t51 -131zM1974 569h-577v131h577v-131z" />
    <glyph glyph-name="trademark" unicode="&#x2122;" horiz-adv-x="952" 
d="M82 1434h317v-76h-116v-334h-82v334h-119v76zM659 1229l129 205h82v-410h-82v272l-124 -198h-9l-125 198v-272h-81v410h81z" />
    <glyph glyph-name="estimated" unicode="&#x212e;" horiz-adv-x="1679" 
d="M1597 717q0 -31 -30 -31h-1147q-31 0 -31 -31v-393q0 -25 14 -39q173 -182 478 -182q298 0 473 199q15 18 37 18h75q20 0 26.5 -13t-7.5 -26q-224 -239 -604 -239q-364 0 -580 210q-219 213 -219 527q0 313 211 524q213 213 547 213q331 0 544 -213t213 -524zM1290 778
v393q0 25 -14 39q-174 183 -436 183q-263 0 -437 -183q-14 -14 -14 -39v-393q0 -30 31 -30h840q30 0 30 30z" />
    <glyph glyph-name="oneeighth" unicode="&#x215b;" horiz-adv-x="1642" 
d="M367 1434v-820h-127v680l-187 -55l-33 109l238 86h109zM260 0l819 1434h123l-819 -1434h-123zM1458 432q135 -70 135 -215q0 -110 -81 -176t-212 -66t-212.5 66t-81.5 176q0 145 135 213q-109 65 -109 180q0 107 75 170.5t193 63.5q115 0 191 -64t76 -170
q0 -113 -109 -178zM1159 610q0 -56 37 -88.5t104 -32.5q66 0 103 32.5t37 88.5q0 54 -36.5 84.5t-103.5 30.5t-104 -30.5t-37 -84.5zM1300 98q77 0 121.5 36.5t44.5 98.5q0 61 -45.5 97.5t-120.5 36.5q-81 0 -124 -35t-43 -99q0 -62 44 -98.5t123 -36.5z" />
    <glyph glyph-name="threeeighths" unicode="&#x215c;" horiz-adv-x="1857" 
d="M641 854q0 -119 -82 -191.5t-217 -72.5q-209 0 -291 172l107 61q52 -110 184 -110q81 0 126.5 37.5t45.5 103.5q0 64 -46.5 102.5t-125.5 38.5h-8l-64 97l185 219h-377v123h528v-123l-182 -217q103 -20 160 -83t57 -157zM475 0l819 1434h123l-819 -1434h-123zM1673 432
q135 -70 135 -215q0 -110 -80.5 -176t-211.5 -66t-213 66.5t-82 175.5q0 145 135 213q-109 65 -109 180q0 107 75.5 170.5t193.5 63.5q115 0 190.5 -64t75.5 -170q0 -113 -109 -178zM1374 610q0 -56 37.5 -88.5t104.5 -32.5q65 0 102 32.5t37 88.5q0 54 -36 84.5t-103 30.5
t-104.5 -30.5t-37.5 -84.5zM1516 98q77 0 121 36.5t44 98.5q0 61 -45 97.5t-120 36.5q-81 0 -124.5 -35t-43.5 -99q0 -62 44.5 -98.5t123.5 -36.5z" />
    <glyph glyph-name="fiveeighths" unicode="&#x215d;" horiz-adv-x="1835" 
d="M621 854q0 -122 -78.5 -193t-214.5 -71q-211 0 -287 174l109 59q52 -110 178 -110q77 0 121.5 38.5t44.5 102.5q0 69 -44 109.5t-122 40.5h-250l31 430h479v-119h-371l-12 -189h127q129 0 209 -74.5t80 -197.5zM453 0l819 1434h123l-820 -1434h-122zM1651 432
q135 -70 135 -215q0 -110 -81 -176t-212 -66t-213 66.5t-82 175.5q0 145 135 213q-108 64 -108 180q0 107 75 170.5t193 63.5q115 0 190.5 -64t75.5 -170q0 -114 -108 -178zM1352 610q0 -56 37 -88.5t104 -32.5q65 0 102 32.5t37 88.5q0 54 -36 84.5t-103 30.5t-104 -30.5
t-37 -84.5zM1493 98q77 0 121.5 36.5t44.5 98.5q0 61 -45.5 97.5t-120.5 36.5q-81 0 -124.5 -35t-43.5 -99q0 -62 44.5 -98.5t123.5 -36.5z" />
    <glyph glyph-name="seveneighths" unicode="&#x215e;" horiz-adv-x="1742" 
d="M20 1434h545v-103l-303 -717h-135l299 697h-406v123zM360 0l820 1434h123l-820 -1434h-123zM1559 432q135 -70 135 -215q0 -110 -81 -176t-212 -66t-213 66.5t-82 175.5q0 145 135 213q-108 64 -108 180q0 107 75 170.5t193 63.5q115 0 190.5 -64t75.5 -170
q0 -114 -108 -178zM1260 610q0 -56 37 -88.5t104 -32.5q65 0 102 32.5t37 88.5q0 54 -36 84.5t-103 30.5t-104 -30.5t-37 -84.5zM1401 98q77 0 121.5 36.5t44.5 98.5q0 61 -45.5 97.5t-120.5 36.5q-81 0 -124.5 -35t-43.5 -99q0 -62 44.5 -98.5t123.5 -36.5z" />
    <glyph glyph-name="arrowleft" unicode="&#x2190;" horiz-adv-x="1679" 
d="M373 782h1183v-131h-1183l549 -549h-185l-614 615l614 614h185z" />
    <glyph glyph-name="arrowup" unicode="&#x2191;" horiz-adv-x="1474" 
d="M737 1434l615 -615v-184l-547 547v-1182h-135v1182l-547 -547v184z" />
    <glyph glyph-name="arrowright" unicode="&#x2192;" horiz-adv-x="1679" 
d="M758 1331h184l614 -614l-614 -615h-184l549 549h-1184v131h1184z" />
    <glyph glyph-name="arrowdown" unicode="&#x2193;" horiz-adv-x="1474" 
d="M805 1434v-1182l547 547v-185l-615 -614l-614 614v185l547 -547v1182h135z" />
    <glyph glyph-name="arrowboth" unicode="&#x2194;" horiz-adv-x="2129" 
d="M1313 1229h184l510 -512l-510 -512h-184l444 446h-1384l444 -446h-184l-510 512l510 512h184l-444 -447h1384z" />
    <glyph glyph-name="arrowupdn" unicode="&#x2195;" horiz-adv-x="1269" 
d="M1147 1149v-184l-445 442v-1380l445 442v-184l-512 -510l-512 510v184l444 -442v1380l-444 -442v184l512 510z" />
    <glyph glyph-name="uni2196" unicode="&#x2196;" horiz-adv-x="1306" 
d="M348 1073l836 -835l-97 -97l-835 836v-772l-129 129v868h868l129 -129h-772z" />
    <glyph glyph-name="uni2197" unicode="&#x2197;" horiz-adv-x="1306" 
d="M186 1073l129 129h869v-868l-129 -129v772l-836 -836l-96 97l835 835h-772z" />
    <glyph glyph-name="uni2198" unicode="&#x2198;" horiz-adv-x="1306" 
d="M1055 408v772l129 -129v-869h-869l-129 129h772l-835 836l96 96z" />
    <glyph glyph-name="uni2199" unicode="&#x2199;" horiz-adv-x="1306" 
d="M1087 1243l97 -96l-836 -836h772l-129 -129h-868v869l129 129v-772z" />
    <glyph glyph-name="partialdiff" unicode="&#x2202;" horiz-adv-x="1179" 
d="M475 1458q248 0 414 -205q168 -204 168 -536q0 -349 -150 -545q-150 -197 -381 -197q-197 0 -311 123q-113 122 -113 312q0 212 125 340q125 131 344 131q192 0 349 -109q-12 234 -129 393q-118 160 -316 160q-145 0 -268 -72v131q115 74 268 74zM526 106
q167 0 274 141.5t120 387.5q-148 115 -349 115q-155 0 -244 -89t-89 -251q0 -137 75 -220.5t213 -83.5z" />
    <glyph glyph-name="emptyset" unicode="&#x2205;" horiz-adv-x="1646" 
d="M1524 1475l-187 -224q228 -217 228 -534q0 -307 -217 -524q-218 -218 -525 -218q-237 0 -430 138l-127 -154h-143l186 223q-227 217 -227 535q0 307 217 524t524 217q238 0 430 -137l127 154h144zM205 717q0 -260 180 -443l793 955q-158 110 -355 110q-256 0 -438 -182
q-180 -180 -180 -440zM823 94q259 0 439 180t180 443q0 259 -180 442l-793 -954q159 -111 354 -111z" />
    <glyph glyph-name="product" unicode="&#x220f;" horiz-adv-x="1310" 
d="M299 -410h-135v1844h983v-1844h-135v1713h-713v-1713z" />
    <glyph glyph-name="summation" unicode="&#x2211;" horiz-adv-x="1105" 
d="M1044 -410h-942v134l492 808l-461 766v136h881v-131h-727l465 -771l-494 -811h786v-131z" />
    <glyph glyph-name="minus" unicode="&#x2212;" horiz-adv-x="1105" 
d="M983 651h-860v131h860v-131z" />
    <glyph glyph-name="radical" unicode="&#x221a;" horiz-adv-x="1318" 
d="M727 0h-143l-281 483h-180v131h258l260 -450l494 1474h143z" />
    <glyph glyph-name="infinity" unicode="&#x221e;" horiz-adv-x="1638" 
d="M1196 1044q142 0 236 -94t94 -233q0 -140 -94 -234t-236 -94q-198 0 -377 225q-179 -225 -377 -225q-141 0 -235 94t-94 234q0 139 94 233t235 94q198 0 377 -225q179 225 377 225zM444 512q150 0 297 205q-147 205 -297 205q-88 0 -143 -57t-55 -148t55 -148t143 -57z
M1196 512q88 0 143.5 57t55.5 148t-55.5 148t-143.5 57q-150 0 -297 -205q147 -205 297 -205z" />
    <glyph glyph-name="integral" unicode="&#x222b;" horiz-adv-x="899" 
d="M0 -414v131q111 -40 175.5 -3t82.5 143l223 1310q31 182 138 250.5t280 20.5v-131q-245 82 -283 -140l-223 -1310q-30 -178 -134 -248.5t-259 -22.5z" />
    <glyph glyph-name="approxequal" unicode="&#x2248;" horiz-adv-x="1216" 
d="M578 823q-158 90 -230 68q-67 -20 -102 -141l-123 57q55 175 183.5 210.5t332.5 -79.5q103 -64 170.5 -71.5t103 29t58.5 116.5l123 -58q-114 -365 -516 -131zM246 422l-123 57q55 175 183.5 210.5t332.5 -79.5q103 -64 170.5 -71.5t103 29t58.5 116.5l123 -57
q-114 -365 -516 -131q-157 89 -230 67q-67 -20 -102 -141z" />
    <glyph glyph-name="notequal" unicode="&#x2260;" horiz-adv-x="1105" 
d="M983 987v-131h-317l-123 -278h440v-132h-500l-135 -303h-102l135 303h-258v132h317l123 278h-440v131h500l135 303h102l-135 -303h258z" />
    <glyph glyph-name="lessequal" unicode="&#x2264;" horiz-adv-x="1064" 
d="M123 909l819 320v-152l-649 -235l649 -236v-151l-819 319v135zM942 205h-819v131h819v-131z" />
    <glyph glyph-name="greaterequal" unicode="&#x2265;" horiz-adv-x="1064" 
d="M123 1077v152l819 -320v-135l-819 -319v151l649 236zM942 205h-819v131h819v-131z" />
    <glyph glyph-name="lozenge" unicode="&#x25ca;" horiz-adv-x="1105" 
d="M623 0h-140l-381 717l381 717h140l381 -717zM248 717l305 -572l305 572l-305 571z" />
    <glyph glyph-name="NULL" horiz-adv-x="0" 
 />
    <glyph glyph-name="CR" horiz-adv-x="681" 
 />
    <glyph glyph-name="i.loclTRK" horiz-adv-x="421" 
d="M291 1200q-32 -32 -80 -32t-80 32t-32 80t32 80t80 32t80 -32t32 -80t-32 -80zM279 0h-136v1024h136v-1024z" />
    <glyph glyph-name="f_f_j" horiz-adv-x="1609" 
d="M913 1024h553v-1106q0 -185 -95.5 -277t-272.5 -75v131q122 -12 177.5 39.5t55.5 181.5v975h-418v-893h-135v893h-418v-893h-135v893h-174v131h174v41q0 201 111.5 303.5t318.5 89.5v-131q-150 12 -222.5 -51.5t-72.5 -210.5v-41h418v61q0 394 430 394q81 0 197 -25v-123
q-107 17 -197 17q-155 0 -225 -61t-70 -202v-61z" />
    <glyph glyph-name="f_j" horiz-adv-x="1056" 
d="M360 1024h553v-1106q0 -185 -95.5 -277t-272.5 -75v131q122 -12 177.5 39.5t55.5 181.5v975h-418v-893h-135v893h-174v131h174v41q0 393 430 393q86 0 197 -24v-123q-101 16 -197 16q-156 0 -225.5 -60.5t-69.5 -201.5v-41z" />
    <glyph glyph-name="uni0414.loclBGR" horiz-adv-x="1433" 
d="M791 1434l460 -1299h131v-409h-143v274h-1044v-274h-144v409h131l461 1299h148zM717 1255l-383 -1120h766z" />
    <glyph glyph-name="uni041B.loclBGR" horiz-adv-x="1245" 
d="M20 0l529 1434h147l529 -1434h-156l-446 1243l-447 -1243h-156z" />
    <glyph glyph-name="uni0424.loclBGR" horiz-adv-x="1728" 
d="M936 -23v-182h-143v182q-314 21 -514 224q-197 200 -197 516t197 516q199 202 514 223v182h143v-182q315 -21 514 -223q197 -200 197 -516t-197 -516q-200 -203 -514 -224zM793 109v1216q-256 -21 -414 -186q-154 -165 -154 -422q0 -259 154 -424q155 -163 414 -184z
M936 1325v-1216q260 21 412 184q155 162 155 424q0 260 -155 422q-154 165 -412 186z" />
    <glyph glyph-name="uni0414.ss01" horiz-adv-x="1413" 
d="M1188 1434v-1299h153v-135h-1310v135h116q142 168 142 512v787h899zM317 135h727v1163h-612v-655q0 -337 -115 -508z" />
    <glyph glyph-name="uni0426.ss01" horiz-adv-x="1413" 
d="M1188 1434v-1299h153v-135h-1177v1434h143v-1299h737v1299h144z" />
    <glyph glyph-name="uni0429.ss01" horiz-adv-x="2007" 
d="M1782 1434v-1299h153v-135h-1771v1434h143v-1299h594v1299h143v-1299h594v1299h144z" />
    <glyph glyph-name="uni0414.loclBGR.ss01" horiz-adv-x="1433" 
d="M791 1434l460 -1299h131v-135h-1331v135h131l461 1299h148zM717 1255l-383 -1120h766z" />
    <glyph glyph-name="uni0432.loclBGR" horiz-adv-x="1167" 
d="M817 819q128 -41 198 -147.5t70 -261.5q0 -204 -124.5 -319.5t-346.5 -115.5t-346.5 131t-124.5 365v481q0 234 119.5 370t327.5 136q171 0 272 -94.5t101 -249.5q0 -161 -146 -295zM590 1327q-145 0 -228 -101t-83 -274v-166l210 43q90 17 168 17q170 123 170 268
q0 94 -64.5 153.5t-172.5 59.5zM950 410q0 172 -127 252t-334 36l-210 -43v-184q0 -172 88.5 -268.5t246.5 -96.5t247 80.5t89 223.5z" />
    <glyph glyph-name="uni0433.loclBGR" horiz-adv-x="929" 
d="M743 289l115 -68q-43 -108 -148 -177t-247 -69q-164 0 -268 82q-103 83 -103 213q0 99 57.5 165.5t149.5 94.5q31 10 85.5 25.5t89 25.5t78 28t68.5 36.5t42.5 47t17.5 63.5q0 75 -60.5 118.5t-144.5 43.5q-88 0 -157 -40t-99 -114l-113 65q48 101 145.5 160.5
t223.5 59.5q147 0 242 -86q98 -82 98 -207q0 -99 -57 -164.5t-150 -97.5q-27 -8 -73 -20.5t-76.5 -21t-70 -22t-65 -28t-49.5 -33.5t-35.5 -44t-11.5 -55q0 -81 65.5 -122.5t170.5 -41.5q98 0 174 51t106 132z" />
    <glyph glyph-name="uni0434.loclBGR" 
d="M1024 823v201h135v-983q0 -221 -151 -348t-363 -127q-358 0 -485 250l119 67q91 -186 366 -186q176 0 277.5 92.5t101.5 251.5v160q-142 -226 -414 -226q-218 0 -374 156q-154 157 -154 381t154 381q156 156 374 156q272 0 414 -226zM334 223q117 -117 287 -117
q169 0 286 117q117 120 117 289q0 170 -117 287q-116 119 -286 119q-171 0 -287 -119q-117 -117 -117 -287q0 -169 117 -289z" />
    <glyph glyph-name="uni0436.loclBGR" horiz-adv-x="1380" 
d="M881 532l458 -532h-163l-418 494v-494h-135v494l-418 -494h-164l459 532l-439 492h164l398 -455v865h135v-865l397 455h164z" />
    <glyph glyph-name="uni0438.loclBGR" horiz-adv-x="1142" 
d="M864 487v537h135v-1024h-135v160q-114 -185 -344 -185q-185 0 -293 113.5t-108 306.5v629h135v-629q0 -137 72.5 -213t205.5 -76q153 0 242.5 96t89.5 285z" />
    <glyph glyph-name="uni0439.loclBGR" horiz-adv-x="1142" 
d="M289 1307h532v-119h-532v119zM864 487v537h135v-1024h-135v160q-114 -185 -344 -185q-185 0 -293 113.5t-108 306.5v629h135v-629q0 -137 72.5 -213t205.5 -76q153 0 242.5 96t89.5 285z" />
    <glyph glyph-name="uni043A.loclBGR" horiz-adv-x="1011" 
d="M422 532l549 -532h-180l-512 494v-494h-136v1434h136v-863l487 453h184z" />
    <glyph glyph-name="uni043B.loclBGR" horiz-adv-x="1044" 
d="M604 1024l420 -1024h-143l-359 883l-358 -883h-144l420 1024h164z" />
    <glyph glyph-name="uni043F.loclBGR" horiz-adv-x="1142" 
d="M623 1049q185 0 293 -113.5t108 -306.5v-629h-135v629q0 137 -73 213t-206 76q-153 0 -242 -96t-89 -285v-537h-136v1024h136v-160q114 185 344 185z" />
    <glyph glyph-name="uni0442.loclBGR" horiz-adv-x="1736" 
d="M1235 1049q173 0 278 -111t105 -299v-639h-135v639q0 132 -68 205.5t-182 73.5q-132 0 -208.5 -88t-76.5 -263v-567h-135v639q0 133 -64 206t-176 73q-130 0 -212 -90t-82 -261v-567h-136v1024h136v-150q111 175 313 175q223 0 311 -187q111 187 332 187z" />
    <glyph glyph-name="uni0446.loclBGR" horiz-adv-x="1216" 
d="M1075 131h80v-405h-135v278q-62 11 -103 53.5t-51 108.5q-114 -191 -346 -191q-185 0 -293 113.5t-108 306.5v629h135v-629q0 -137 72.5 -213t205.5 -76q153 0 242.5 96t89.5 285v537h135v-819q0 -33 20.5 -53.5t55.5 -20.5z" />
    <glyph glyph-name="uni0448.loclBGR" horiz-adv-x="1736" 
d="M1458 457v567h135v-1024h-135v150q-111 -175 -313 -175q-223 0 -311 187q-111 -187 -332 -187q-173 0 -278 111t-105 299v639h135v-639q0 -132 68 -205.5t182 -73.5q132 0 208 88t76 263v567h136v-639q0 -133 63.5 -206t175.5 -73q130 0 212.5 90t82.5 261z" />
    <glyph glyph-name="uni0449.loclBGR" horiz-adv-x="1810" 
d="M1669 131h80v-405h-135v278q-59 7 -99.5 48.5t-52.5 103.5q-111 -181 -317 -181q-223 0 -311 187q-111 -187 -332 -187q-173 0 -278 111t-105 299v639h135v-639q0 -132 68 -205.5t182 -73.5q132 0 208 88t76 263v567h136v-639q0 -133 63.5 -206t175.5 -73q130 0 212.5 90
t82.5 261v567h135v-819q0 -33 20.5 -53.5t55.5 -20.5z" />
    <glyph glyph-name="uni044C.loclBGR" horiz-adv-x="978" 
d="M254 692h264q189 0 294.5 -92t105.5 -256q0 -153 -113 -260q-112 -109 -287 -109q-185 0 -293 105q-106 103 -106 264v680h135v-332zM518 106q114 0 189 72q75 69 75 166q0 103 -69.5 160t-194.5 57h-264v-217q0 -96 72 -168q73 -70 192 -70z" />
    <glyph glyph-name="uni044A.loclBGR" horiz-adv-x="1150" 
d="M422 692h264q189 0 294 -92t105 -256q0 -154 -112 -260q-112 -109 -287 -109q-185 0 -293 105q-106 103 -106 264v549h-287v131h422v-332zM686 106q113 0 188 72q76 70 76 166q0 103 -69.5 160t-194.5 57h-264v-217q0 -96 72 -168q73 -70 192 -70z" />
    <glyph glyph-name="uni044E.loclBGR" horiz-adv-x="1638" 
d="M1018 1049q225 0 381 -156q157 -154 157 -381q0 -226 -157 -383q-157 -154 -381 -154q-204 0 -356 134q-149 137 -170 337h-213v-446h-136v1434h136v-856h213q21 201 170 335q151 136 356 136zM731 223q117 -117 287 -117t287 117q116 119 116 289q0 171 -116 287
q-116 119 -287 119t-287 -119q-117 -117 -117 -287q0 -169 117 -289z" />
    <glyph glyph-name="zero.sinf" horiz-adv-x="839" 
d="M682 -233q-94 -119 -262 -119q-170 0 -264 119q-95 121 -95 315t95 315q94 119 264 119q168 0 262 -119q96 -122 96 -315t-96 -315zM250 -150q61 -79 170 -79t170 79t61 232q0 152 -61 231q-62 80 -170 80t-170 -80t-62 -231q0 -152 62 -232z" />
    <glyph glyph-name="one.sinf" horiz-adv-x="489" 
d="M20 406l238 86h109v-820h-127v680l-187 -55z" />
    <glyph glyph-name="two.sinf" horiz-adv-x="698" 
d="M637 -328h-574v105l345 315q86 77 86 174q0 57 -40.5 92t-107.5 35q-125 0 -178 -127l-107 60q76 190 285 190q121 0 198 -71.5t77 -178.5q0 -141 -127 -256l-242 -215h385v-123z" />
    <glyph glyph-name="three.sinf" horiz-adv-x="712" 
d="M606 369l-182 -217q103 -20 160 -83t57 -157q0 -119 -82 -191.5t-217 -72.5q-209 0 -291 172l107 61q52 -110 184 -110q81 0 126.5 37.5t45.5 103.5q0 64 -46.5 102.5t-125.5 38.5h-8l-64 97l185 219h-377v123h528v-123z" />
    <glyph glyph-name="four.sinf" horiz-adv-x="724" 
d="M580 -55h104v-119h-104v-154h-127v154h-422v119l305 547h137l-303 -547h283v196h127v-196z" />
    <glyph glyph-name="five.sinf" horiz-adv-x="671" 
d="M215 184h127q129 0 209 -74.5t80 -197.5q0 -122 -78.5 -193t-214.5 -71q-211 0 -287 174l109 59q52 -110 178 -110q77 0 121.5 38.5t44.5 102.5q0 69 -44 109t-122 40h-250l31 431h479v-119h-371z" />
    <glyph glyph-name="six.sinf" horiz-adv-x="686" 
d="M342 219q130 0 215 -82q88 -82 88 -203q0 -120 -88 -202q-87 -84 -215 -84t-215 84q-86 83 -86 202q0 82 39 144v2l6 6l2 4l256 402h154l-189 -275q6 2 33 2zM342 -229q79 0 127.5 45.5t48.5 117.5t-48.5 117t-127.5 45t-126.5 -45t-47.5 -117t48 -117.5t126 -45.5z" />
    <glyph glyph-name="seven.sinf" horiz-adv-x="606" 
d="M20 369v123h545v-103l-303 -717h-135l299 697h-406z" />
    <glyph glyph-name="eight.sinf" horiz-adv-x="686" 
d="M502 104q135 -70 135 -215q0 -110 -81 -175.5t-212 -65.5q-132 0 -213.5 66t-81.5 175q0 145 135 213q-108 65 -108 181q0 107 75 170t193 63q115 0 190.5 -63.5t75.5 -169.5q0 -115 -108 -179zM203 283q0 -56 37 -88.5t104 -32.5q65 0 102 32.5t37 88.5q0 54 -36 84
t-103 30t-104 -30t-37 -84zM344 -229q77 0 121.5 36.5t44.5 98.5q0 61 -45.5 97t-120.5 36q-81 0 -124.5 -35t-43.5 -98q0 -62 44.5 -98.5t123.5 -36.5z" />
    <glyph glyph-name="nine.sinf" horiz-adv-x="686" 
d="M606 86v-2l-4 -6l-4 -4l-256 -402h-154l189 275q-6 -2 -33 -2q-129 0 -217 82q-86 83 -86 202q0 120 86 203q90 84 217 84q128 0 215 -84q86 -83 86 -203q0 -81 -39 -143zM344 393q-79 0 -127.5 -46t-48.5 -118t48.5 -116.5t127.5 -44.5t126.5 44.5t47.5 116.5t-48 118
t-126 46z" />
    <glyph glyph-name="zero.tf" horiz-adv-x="1167" 
d="M983 176q-142 -201 -399 -201t-402 201q-141 202 -141 541t141 538q144 203 402 203t399 -203q143 -198 143 -538t-143 -541zM289 272q109 -157 295 -157q187 0 293 157q106 153 106 445q0 291 -106 444q-106 158 -293 158q-186 0 -295 -158q-105 -156 -105 -444
q0 -289 105 -445z" />
    <glyph glyph-name="one.tf" horiz-adv-x="1167" 
d="M686 1434v-1299h420v-135h-1024v135h461v1141l-322 -96l-37 123l379 131h123z" />
    <glyph glyph-name="two.tf" horiz-adv-x="1167" 
d="M1085 0h-993v129l518 446q158 135 229.5 233.5t71.5 199.5q0 145 -89 228t-240 83q-119 0 -212.5 -63.5t-142.5 -178.5l-118 70q66 147 191.5 229t281.5 82q203 0 338 -123t135 -327q0 -136 -86.5 -264t-259.5 -269l-412 -336h788v-139z" />
    <glyph glyph-name="three.tf" horiz-adv-x="1167" 
d="M1024 1298l-367 -460q196 -21 312 -131t116 -291q0 -207 -147 -324t-375 -117q-179 0 -321 86q-140 90 -189 238l121 70q31 -117 136 -185.5t253 -68.5q176 0 277.5 78.5t101.5 222.5t-101.5 222.5t-277.5 78.5v2l-2 -2h-37l-63 94l391 487h-750v136h922v-136z" />
    <glyph glyph-name="four.tf" horiz-adv-x="1167" 
d="M942 422h184v-135h-184v-287h-143v287h-758v135l532 1012h156l-532 -1012h602v397h143v-397z" />
    <glyph glyph-name="five.tf" horiz-adv-x="1167" 
d="M305 856h279q213 0 356 -119q145 -118 145 -321t-145 -324q-144 -117 -356 -117q-180 0 -322 86q-139 89 -188 238l121 70q31 -117 136 -185.5t253 -68.5q163 0 260.5 79t97.5 222t-97.5 222t-260.5 79h-430l51 717h829v-136h-698z" />
    <glyph glyph-name="six.tf" horiz-adv-x="1167" 
d="M563 922q239 0 379 -131q143 -128 143 -342t-143 -345q-141 -129 -379 -129q-237 0 -381 129q-141 132 -141 345q0 162 90 284l500 701h170l-373 -525q67 13 135 13zM283 205q104 -90 280 -90q178 0 279 90q100 87 100 244q0 156 -100 243q-101 90 -279 90
q-176 0 -280 -90q-99 -88 -99 -243t99 -244z" />
    <glyph glyph-name="seven.tf" horiz-adv-x="1167" 
d="M82 1298v136h1003v-136l-583 -1298h-148l582 1298h-854z" />
    <glyph glyph-name="eight.tf" horiz-adv-x="1167" 
d="M856 739q113 -51 176.5 -142.5t63.5 -207.5q0 -196 -142 -305q-139 -109 -370 -109t-373 109q-139 109 -139 305q0 116 63 207.5t176 142.5q-190 114 -190 322q0 192 131 293q131 104 332 104q200 0 331 -104q132 -102 132 -293q0 -208 -191 -322zM264 1061
q0 -122 86 -190t234 -68t233.5 68t85.5 190q0 127 -83.5 192.5t-235.5 65.5t-236 -65.5t-84 -192.5zM309 186q95 -71 275 -71q177 0 272 71q96 72 96 203t-96 203q-97 72 -272 72q-178 0 -275 -72q-94 -70 -94 -203t94 -203z" />
    <glyph glyph-name="nine.tf" horiz-adv-x="1167" 
d="M1126 985q0 -163 -90 -285l-499 -700h-170l372 524q-61 -12 -135 -12q-237 0 -381 129q-141 132 -141 344q0 213 141 342q143 131 381 131q239 0 379 -131q143 -128 143 -342zM324 1229q-99 -89 -99 -244t99 -244q104 -90 280 -90q178 0 279 90q100 87 100 244t-100 244
q-101 90 -279 90q-176 0 -280 -90z" />
    <glyph glyph-name="zero.dnom" horiz-adv-x="839" 
d="M682 94q-94 -119 -262 -119q-170 0 -264 119q-95 121 -95 316q0 194 95 315q94 119 264 119q168 0 262 -119q96 -122 96 -315q0 -194 -96 -316zM250 178q62 -80 170 -80t170 80q61 79 61 232q0 152 -61 231q-62 80 -170 80t-170 -80t-62 -231q0 -152 62 -232z" />
    <glyph glyph-name="one.dnom" horiz-adv-x="505" 
d="M20 733l238 86h109v-819h-127v680l-187 -55z" />
    <glyph glyph-name="two.dnom" horiz-adv-x="696" 
d="M637 0h-574v104l345 316q86 77 86 174q0 57 -40.5 92t-107.5 35q-125 0 -178 -127l-107 59q77 191 285 191q121 0 198 -71.5t77 -178.5q0 -141 -127 -256l-242 -215h385v-123z" />
    <glyph glyph-name="three.dnom" horiz-adv-x="720" 
d="M606 696l-182 -217q103 -20 160 -82.5t57 -156.5q0 -119 -82 -192t-217 -73q-209 0 -291 172l107 62q53 -111 184 -111q81 0 126.5 38t45.5 104q0 64 -46.5 102.5t-125.5 38.5h-8l-64 96l185 219h-377v123h528v-123z" />
    <glyph glyph-name="four.dnom" horiz-adv-x="724" 
d="M580 272h104v-118h-104v-154h-127v154h-422v118l305 547h137l-303 -547h283v197h127v-197z" />
    <glyph glyph-name="five.dnom" horiz-adv-x="698" 
d="M205 512h127q129 0 209 -74.5t80 -197.5q0 -122 -78.5 -193.5t-214.5 -71.5q-211 0 -287 175l109 59q52 -111 178 -111q77 0 121.5 39t44.5 103q0 69 -44 109t-122 40h-250l31 430h479v-119h-371z" />
    <glyph glyph-name="six.dnom" horiz-adv-x="686" 
d="M342 547q130 0 215 -82q88 -82 88 -203q0 -123 -88 -205q-85 -82 -215 -82t-215 82q-86 83 -86 205q0 82 39 144v2l6 6l2 4l256 401h154l-189 -274q6 2 33 2zM342 98q79 0 127.5 46t48.5 118t-48.5 117t-127.5 45t-126.5 -45t-47.5 -117t48 -118t126 -46z" />
    <glyph glyph-name="seven.dnom" horiz-adv-x="606" 
d="M20 696v123h545v-102l-303 -717h-135l299 696h-406z" />
    <glyph glyph-name="eight.dnom" horiz-adv-x="686" 
d="M502 432q135 -70 135 -215q0 -110 -81 -176t-212 -66t-213 66.5t-82 175.5q0 145 135 213q-108 64 -108 180q0 107 75 170.5t193 63.5q115 0 190.5 -64t75.5 -170q0 -114 -108 -178zM203 610q0 -56 37 -88.5t104 -32.5q65 0 102 32.5t37 88.5q0 54 -36 84.5t-103 30.5
t-104 -30.5t-37 -84.5zM344 98q77 0 121.5 36.5t44.5 98.5q0 61 -45.5 97.5t-120.5 36.5q-81 0 -124.5 -35t-43.5 -99q0 -62 44.5 -98.5t123.5 -36.5z" />
    <glyph glyph-name="nine.dnom" horiz-adv-x="686" 
d="M606 414v-2l-4 -6l-4 -5l-256 -401h-154l189 274q-6 -2 -33 -2q-129 0 -217 82q-86 83 -86 203t86 203q90 84 217 84q128 0 215 -84q86 -83 86 -203q0 -81 -39 -143zM344 721q-79 0 -127.5 -46t-48.5 -118t48.5 -117t127.5 -45t126.5 45t47.5 117t-48 118t-126 46z" />
    <glyph glyph-name="zero.numr" horiz-adv-x="839" 
d="M682 709q-94 -119 -262 -119q-170 0 -264 119q-95 121 -95 315t95 315q94 119 264 119q168 0 262 -119q96 -122 96 -315t-96 -315zM250 793q62 -80 170 -80t170 80q61 79 61 231t-61 231q-62 80 -170 80t-170 -80t-62 -231t62 -231z" />
    <glyph glyph-name="one.numr" horiz-adv-x="505" 
d="M20 1348l238 86h109v-820h-127v680l-187 -55z" />
    <glyph glyph-name="two.numr" horiz-adv-x="696" 
d="M637 614h-574v105l345 315q86 77 86 174q0 57 -40.5 92t-107.5 35q-125 0 -178 -127l-107 60q76 190 285 190q121 0 198 -71.5t77 -178.5q0 -141 -127 -256l-242 -215h385v-123z" />
    <glyph glyph-name="three.numr" horiz-adv-x="720" 
d="M606 1311l-182 -217q103 -20 160 -83t57 -157q0 -119 -82 -191.5t-217 -72.5q-209 0 -291 172l107 61q52 -110 184 -110q81 0 126.5 37.5t45.5 103.5q0 64 -46.5 102.5t-125.5 38.5h-8l-64 97l185 219h-377v123h528v-123z" />
    <glyph glyph-name="four.numr" horiz-adv-x="724" 
d="M580 887h104v-119h-104v-154h-127v154h-422v119l305 547h137l-303 -547h283v196h127v-196z" />
    <glyph glyph-name="five.numr" horiz-adv-x="698" 
d="M205 1126h127q129 0 209 -74.5t80 -197.5q0 -122 -78.5 -193t-214.5 -71q-211 0 -287 174l109 59q52 -110 178 -110q77 0 121.5 38.5t44.5 102.5q0 69 -44 109.5t-122 40.5h-250l31 430h479v-119h-371z" />
    <glyph glyph-name="six.numr" horiz-adv-x="686" 
d="M342 1161q130 0 215 -82q88 -82 88 -202q0 -123 -88 -205q-85 -82 -215 -82t-215 82q-86 83 -86 205q0 81 39 143v2l6 6l2 4l256 402h154l-189 -275q6 2 33 2zM342 713q79 0 127.5 46t48.5 118t-48.5 116.5t-127.5 44.5t-126.5 -44.5t-47.5 -116.5t48 -118t126 -46z" />
    <glyph glyph-name="seven.numr" horiz-adv-x="606" 
d="M20 1311v123h545v-103l-303 -717h-135l299 697h-406z" />
    <glyph glyph-name="eight.numr" horiz-adv-x="686" 
d="M502 1047q135 -71 135 -216q0 -110 -81 -175.5t-212 -65.5q-132 0 -213.5 66t-81.5 175q0 145 135 213q-108 64 -108 181q0 107 75 170t193 63q115 0 190.5 -63.5t75.5 -169.5q0 -113 -108 -178zM203 1225q0 -56 37 -88.5t104 -32.5q65 0 102 32.5t37 88.5q0 54 -36 84
t-103 30t-104 -30t-37 -84zM344 713q77 0 121.5 36.5t44.5 98.5q0 61 -45.5 97t-120.5 36q-81 0 -124.5 -35t-43.5 -98q0 -62 44.5 -98.5t123.5 -36.5z" />
    <glyph glyph-name="nine.numr" horiz-adv-x="686" 
d="M606 1028v-2l-4 -6l-4 -4l-256 -402h-154l189 275q-6 -2 -33 -2q-129 0 -217 82q-86 83 -86 202q0 120 86 203q90 84 217 84q128 0 215 -84q86 -83 86 -203q0 -81 -39 -143zM344 1335q-79 0 -127.5 -46t-48.5 -118t48.5 -116.5t127.5 -44.5t126.5 44.5t47.5 116.5
t-48 118t-126 46z" />
    <glyph glyph-name="zero.sups" horiz-adv-x="839" 
d="M682 1036q-93 -118 -262 -118q-171 0 -264 118q-95 121 -95 316q0 194 95 315q94 119 264 119q168 0 262 -119q96 -122 96 -315q0 -194 -96 -316zM250 1120q62 -80 170 -80t170 80q61 79 61 232q0 152 -61 231q-62 80 -170 80t-170 -80t-62 -231q0 -152 62 -232z" />
    <glyph glyph-name="one.sups" horiz-adv-x="505" 
d="M20 1675l238 86h109v-819h-127v680l-187 -55z" />
    <glyph glyph-name="two.sups" horiz-adv-x="696" 
d="M637 942h-574v105l345 315q86 77 86 174q0 57 -40.5 92t-107.5 35q-125 0 -178 -127l-107 59q77 191 285 191q121 0 198 -71.5t77 -178.5q0 -141 -127 -256l-242 -215h385v-123z" />
    <glyph glyph-name="three.sups" horiz-adv-x="720" 
d="M606 1638l-182 -217q103 -20 160 -82.5t57 -156.5q0 -119 -82 -191.5t-217 -72.5q-209 0 -291 172l107 61q53 -111 184 -111q81 0 126.5 38t45.5 104q0 64 -46.5 102.5t-125.5 38.5h-8l-64 96l185 219h-377v123h528v-123z" />
    <glyph glyph-name="four.sups" horiz-adv-x="724" 
d="M580 1214h104v-118h-104v-154h-127v154h-422v118l305 547h137l-303 -547h283v197h127v-197z" />
    <glyph glyph-name="five.sups" horiz-adv-x="698" 
d="M205 1454h127q129 0 209 -74.5t80 -197.5q0 -122 -78.5 -193t-214.5 -71q-211 0 -287 174l109 59q52 -111 178 -111q77 0 121.5 39t44.5 103q0 69 -44 109t-122 40h-250l31 430h479v-119h-371z" />
    <glyph glyph-name="six.sups" horiz-adv-x="686" 
d="M342 1489q130 0 215 -82q88 -82 88 -203q0 -123 -88 -205q-84 -81 -215 -81t-215 81q-86 83 -86 205q0 82 39 144v2l6 6l2 4l256 401h154l-189 -274q6 2 33 2zM342 1040q79 0 127.5 46t48.5 118t-48.5 117t-127.5 45t-126.5 -45t-47.5 -117t48 -118t126 -46z" />
    <glyph glyph-name="seven.sups" horiz-adv-x="606" 
d="M20 1638v123h545v-102l-303 -717h-135l299 696h-406z" />
    <glyph glyph-name="eight.sups" horiz-adv-x="686" 
d="M502 1374q135 -70 135 -215q0 -110 -81 -175.5t-212 -65.5q-132 0 -213.5 66t-81.5 175q0 145 135 213q-108 64 -108 180q0 107 75 170.5t193 63.5q115 0 190.5 -64t75.5 -170q0 -114 -108 -178zM203 1552q0 -56 37 -88t104 -32q66 0 102.5 32t36.5 88q0 54 -36 84.5
t-103 30.5t-104 -30.5t-37 -84.5zM344 1040q77 0 121.5 37t44.5 99q0 61 -45.5 97t-120.5 36q-81 0 -124.5 -35t-43.5 -98q0 -62 44.5 -99t123.5 -37z" />
    <glyph glyph-name="nine.sups" horiz-adv-x="686" 
d="M606 1356v-2l-4 -6l-4 -5l-256 -401h-154l189 275q-9 -3 -33 -3q-129 0 -217 82q-86 83 -86 203t86 203q90 84 217 84q128 0 215 -84q86 -83 86 -203q0 -81 -39 -143zM344 1663q-79 0 -127.5 -46t-48.5 -118t48.5 -117t127.5 -45t126.5 45t47.5 117t-48 118t-126 46z" />
    <glyph glyph-name="cent.tf" horiz-adv-x="1167" 
d="M983 512l113 -66q-63 -123 -186.5 -194.5t-272.5 -71.5q-59 0 -139 17l-64 -197h-102l74 229q-141 62 -224.5 193t-83.5 295q0 227 154 381q152 155 385 155q60 0 96 -8l62 189h102l-70 -215q181 -67 258 -234l-110 -63q-58 120 -187 172l-249 -770q50 -13 98 -13
q114 0 204 53.5t142 147.5zM233 717q0 -116 57.5 -213t155.5 -148l246 762q-50 4 -55 4q-172 0 -287 -118q-117 -117 -117 -287z" />
    <glyph glyph-name="dollar.tf" horiz-adv-x="1167" 
d="M1085 373q0 -163 -111.5 -269.5t-297.5 -123.5v-185h-123v182q-350 21 -471 318l123 72q74 -232 348 -250v563q-99 30 -161 58t-122 71q-116 86 -116 268q0 159 110 260q117 104 289 119v182h123v-184q277 -27 379 -285l-121 -67q-65 189 -258 213v-531
q104 -32 175.5 -66.5t126.5 -82.5t81 -113t26 -149zM297 1077q0 -96 60 -154t196 -102v496q-119 -12 -187.5 -76t-68.5 -164zM676 641v-522q126 13 196 81.5t70 172.5q0 101 -63.5 162.5t-202.5 105.5z" />
    <glyph glyph-name="Euro.tf" horiz-adv-x="1167" 
d="M993 352l117 -65q-47 -151 -155 -231.5t-259 -80.5q-209 0 -342.5 151.5t-169.5 418.5h-133v119h123v53q0 55 2 69h-125v119h135q37 259 171 406t339 147q147 0 252 -75.5t154 -217.5l-119 -67q-35 107 -110.5 164t-176.5 57q-143 0 -238 -108t-126 -306h497v-119h-510
q-2 -14 -2 -69v-53h512v-119h-501q29 -207 124.5 -318.5t243.5 -111.5q105 0 183 61t114 176z" />
    <glyph glyph-name="florin.tf" horiz-adv-x="1167" 
d="M1106 1440v-131q-240 83 -293 -140l-96 -385h307v-131h-340l-197 -794q-89 -363 -426 -271v131q238 -83 291 140l197 794h-305v131h338l96 385q89 366 428 271z" />
    <glyph glyph-name="uni20BD.tf" horiz-adv-x="1167" 
d="M676 573h-328v-192h492v-119h-492v-262h-143v262h-185v119h185v192h-185v136h185v725h471q176 0 303 -127t127 -303q0 -177 -127 -304t-303 -127zM676 1298h-328v-589h328q120 0 203 86q84 90 84 209q0 121 -84 208q-83 86 -203 86z" />
    <glyph glyph-name="sterling.tf" horiz-adv-x="1167" 
d="M397 592v-453h750v-139h-1086v139h193v453h-152v127h152v309q0 208 125 318q124 112 295 112q280 0 391 -274l-117 -66q-74 201 -274 201q-123 0 -200 -75t-77 -216v-309h473v-127h-473z" />
    <glyph glyph-name="yen.tf" horiz-adv-x="1167" 
d="M995 1434h158l-469 -723h342v-119h-371v-123h371v-119h-371v-350h-143v350h-367v119h367v123h-367v119h340l-469 723h158l412 -633z" />
    <glyph glyph-name="brevecy" horiz-adv-x="614" 
d="M573 1188h-532v119h532v-119z" />
    </font>
</defs>
</svg>
